<svg version="1.2" baseProfile="tiny-ps" xmlns="http://www.w3.org/2000/svg" viewBox="0 0 888 2300"
	width="888" height="1776">
	<title>23andMe_logo-svg</title>
	<style>
		tspan { white-space:pre }
		.shp0 { fill: #92c746 }
		.shp1 { fill: #d50f67 }
		.shp2 { fill: #3ba510 }
	</style>
	<g id="Layer">
		<g id="Layer">
			<path id="Layer" class="shp0"
				d="M207.65 919.37L327.42 1317.38L269.47 1433.31C234.69 1502.86 149.69 1533.78 80.14 1499C10.59 1464.22 -20.32 1379.21 14.46 1309.65L207.65 919.37Z" />
			<path id="Layer" class="shp0"
				d="M872.22 208.35L509.02 946.42L389.25 548.4L617.21 80.83C651.99 11.28 736.99 -19.64 806.54 15.14C879.95 49.92 907 134.93 872.22 208.35Z" />
			<path id="Layer" class="shp1"
				d="M327.42 1317.38L512.89 942.55L709.94 1591.74C729.26 1665.16 686.76 1746.31 613.35 1769.49C539.93 1792.68 458.79 1750.17 435.61 1676.75L327.42 1317.38Z" />
			<path id="Layer" class="shp1"
				d="M389.25 544.54L203.78 919.37L33.77 366.78C14.46 293.36 56.96 212.22 130.37 189.03C203.78 169.71 284.92 212.22 308.11 285.64L389.25 544.54Z" />
			<path id="Layer" class="shp2"
				d="M389.25 548.4L509.02 946.42L327.42 1321.24L203.78 919.37L389.25 548.4Z" />
		</g>
	</g>
</svg>