<svg width="1939" height="2500" viewBox="0 0 256 330" xmlns="http://www.w3.org/2000/svg" preserveAspectRatio="xMidYMid"><path d="M251.547 273.499c-2.322-2.315-4.293-3.682-6.028-4.18-1.759-.505-3.33-.129-4.543 1.088l-1.142 1.14c-11.959 11.959-25.883 21.348-41.388 27.906-16.045 6.786-33.094 10.227-50.674 10.227s-34.63-3.44-50.674-10.227c-15.503-6.557-29.427-15.946-41.386-27.905-12.459-12.459-21.847-26.382-27.904-41.384-5.905-14.628-7.834-25.63-8.468-29.245-.06-.339-.106-.607-.143-.8-.812-4.257-4.73-4.555-10.362-3.693-2.342.358-9.468 1.448-8.79 6.575l.017.118a148.876 148.876 0 0 0 9.907 34.589c7.534 17.812 18.316 33.805 32.048 47.535 13.732 13.733 29.725 24.515 47.537 32.048 18.44 7.802 38.027 11.758 58.218 11.758 20.18 0 39.768-3.958 58.218-11.764 17.806-7.53 33.8-18.315 47.538-32.054.032-.031.782-.776 1.193-1.223 1.511-1.646 2.827-4.526-3.174-10.51zM147.586 35.255c-19.293 0-39.816 3.895-54.894 10.417-1.612.631-2.575 1.926-2.787 3.745-.198 1.715.265 3.98 1.418 6.925.935 2.39 3.419 8.737 8.227 6.903 15.432-5.887 32.491-9.129 48.036-9.129 17.614 0 34.696 3.448 50.773 10.247 12.774 5.405 24.828 13.21 37.933 24.566.955.829 1.97 1.249 3.014 1.249 2.555 0 5.005-2.51 7.101-4.862 3.5-3.926 5.903-7.189 2.455-10.454-12.514-11.855-26.228-20.711-43.157-27.87-18.41-7.788-37.965-11.737-58.12-11.737zm-26.302 163.126c.023 2.18 2.018 4.092 3.21 5.234l.375.362c2.044 2.01 3.991 3.03 5.786 3.03 1.487 0 2.403-.703 2.728-1.005.9-.837 11.085-11.157 12.057-12.142l11.359 11.322c1.052 1.185 2.195 1.779 3.527 1.815 1.813 0 3.79-1.078 5.875-3.205 4.901-5.005 2.448-7.704 1.262-9.008l-11.508-11.513 12.002-12.087c2.632-2.849.308-5.875-2.01-8.194-3.367-3.366-6.614-4.235-8.697-2.317l-11.934 11.955-12.068-12.072a3.313 3.313 0 0 0-2.333-.936c-1.609 0-3.511 1.087-5.657 3.232-3.711 3.711-4.507 6.276-2.576 8.323l12.073 12.035-12.001 12.023c-.988.985-1.482 2.044-1.47 3.148zm-76.531 17.824c.072.2 1.776 4.913 2.764 7.25 5.422 12.82 13.187 24.336 23.079 34.228 9.885 9.884 21.403 17.649 34.234 23.075 13.282 5.62 27.388 8.468 41.927 8.468 14.536 0 28.642-2.85 41.927-8.469 12.826-5.425 24.344-13.19 34.233-23.079 9.889-9.887 17.653-21.405 23.08-34.232 5.618-13.284 8.467-27.391 8.467-41.928 0-14.538-2.849-28.645-8.468-41.928-5.425-12.826-13.19-24.344-23.079-34.233-9.886-9.887-21.404-17.652-34.233-23.079-13.283-5.619-27.39-8.468-41.927-8.468-14.71 0-29.408 2.928-42.506 8.468-10.47 4.429-28.19 15.831-38.564 26.53l-.06.062V20.228l148.9-.001c5.419-.06 5.419-7.626 5.419-10.113 0-2.486 0-10.05-5.435-10.113L53.509 0c-4.383 0-7.096 3.646-7.096 7.024v124.768c0 4.025 5.014 6.932 9.673 7.928 9.098 1.943 11.2-.965 13.428-4.042l.296-.408c3.401-5.054 14.032-15.752 14.138-15.859 16.59-16.59 38.771-25.725 62.458-25.725 23.574 0 45.693 9.136 62.282 25.725 16.645 16.647 25.813 38.703 25.813 62.107 0 23.489-9.12 45.544-25.681 62.105-16.35 16.35-39.19 25.726-62.663 25.726-15.898 0-31.245-4.236-44.391-12.253l.055-75.864c0-10.116 4.39-21.112 11.743-29.416 8.406-9.493 19.992-14.721 32.622-14.721 12.233 0 23.656 4.643 32.169 13.076 8.451 8.372 13.105 19.526 13.105 31.408 0 25.352-19.935 45.21-45.383 45.21-4.907 0-13.825-2.167-14.192-2.257-5.138-1.53-7.324 5.604-8.044 7.955-2.766 9.043 1.391 10.836 2.252 11.104 8.19 2.541 13.56 3.023 20.604 3.023 35.926 0 65.154-29.242 65.154-65.185 0-35.654-29.21-64.662-65.114-64.662-17.582 0-34.1 6.721-46.509 18.925-11.817 11.623-18.596 27.12-18.596 42.514l-.006.382c-.058 1.92-.095 47.399-.106 62.324l-.067-.075C74.7 233.36 68.026 221.914 63.6 210.221c-1.734-4.583-5.653-3.772-11-2.125-2.335.72-9.44 2.908-7.87 8.045l.023.064z" fill="#0A0A08"/></svg>