<svg xmlns="http://www.w3.org/2000/svg" width="2500" height="2500" viewBox="0 0 192.756 192.756"><g fill-rule="evenodd" clip-rule="evenodd"><path fill="#fff" d="M0 0h192.756v192.756H0V0z"/><path d="M38.404 117.904l-5.753-8.963H18.079l9.958-22.323 15.738 31.256h9.451c4.506 0 9.157-.21 13.463-3.231 4.306-3.021 8.199-8.077 9.497-13.351 1.297-5.274-.003-10.768-2.425-15.074-2.422-4.307-5.968-7.426-9.578-9.221-3.61-1.795-7.219-1.577-10.752-1.577H37.375l4.943 9.286h13.095c1.864 0 3.728.465 5.387 1.315 1.659.851 3.113 2.101 4.242 3.614s1.933 3.29 2.107 5.862c.174 2.572-.28 5.941-2.24 8.5-1.961 2.559-5.414 4.621-8.916 4.621h-6.248L32.374 75.58h-9.141L3.019 117.904h35.385zm41.119-28.271a22.056 22.056 0 0 0-.98 6.474c-.002 2.19.326 4.383.991 6.484a20.995 20.995 0 0 0 2.971 5.926 20.925 20.925 0 0 0 4.723 4.725 20.937 20.937 0 0 0 5.924 2.973c2.102.666 4.293.994 6.485.994s4.383-.328 6.484-.994a20.95 20.95 0 0 0 5.924-2.973c1.811-1.305 3.418-2.913 4.723-4.724s2.307-3.824 2.971-5.927c.666-2.102.994-4.294.994-6.486s-.328-4.384-.994-6.486c-.664-2.103-1.666-4.115-2.971-5.926s-2.912-3.419-4.723-4.725a21.062 21.062 0 0 0-5.924-2.975 21.43 21.43 0 0 0-6.484-.991H72.45l5.22 9.137h22.074c1.23 0 2.463.182 3.645.557a11.722 11.722 0 0 1 7.65 7.656c.375 1.181.559 2.413.559 3.645s-.184 2.463-.559 3.645a11.744 11.744 0 0 1-4.322 5.983 11.82 11.82 0 0 1-3.328 1.671 12.08 12.08 0 0 1-3.645.558 12.07 12.07 0 0 1-3.642-.558 11.742 11.742 0 0 1-5.982-4.325 11.767 11.767 0 0 1-1.669-3.329c-.374-1.182-.558-2.413-.558-3.645s.186-2.464.525-3.537a8.341 8.341 0 0 1 1.477-2.78l-10.372-.047zm56.553-5.212c1.5.755 2.248 1.999 2.285 3.327a4.054 4.054 0 0 1-1.93 3.534c-1.293.792-3.135.473-4.824.473h-8.266l4.133 8.267h7.83c1.898 0 3.975-.241 5.326.494 1.354.736 1.93 2.002 1.969 3.274.037 1.272-.463 2.554-2.074 3.336-1.611.783-4.293.632-6.738.632h-13.252l-3.342 9.698h17.965c4.342 0 8.934-.65 12.156-3.109 3.223-2.458 5.045-6.229 5.23-9.583s-1.268-6.288-2.916-8.226c-1.65-1.937-3.498-2.875-5.441-3.03 1.238-.738 2.146-1.963 2.596-3.877.447-1.914.438-4.516-.562-7.006s-2.988-4.868-5.662-6.291c-2.676-1.424-5.988-1.331-9.17-1.331h-17.375l5.658 8.748 10.629.026c2.062.006 4.277-.11 5.775.644zm8.58-9.636l5.438 9.137h23.381l-4.52-9.137h-24.299zm8.483 16.099l5.436 9.137h22.859l-4.518-9.137h-23.777zm2.609 16.753l-5.438 9.138h39.408l-4.52-9.138h-29.45z"/></g></svg>