<svg xmlns="http://www.w3.org/2000/svg" width="2500" height="2500" viewBox="0 0 192.756 192.756"><g fill-rule="evenodd" clip-rule="evenodd"><path fill="#fff" d="M0 0h192.756v192.756H0V0z"/><path d="M175.736 74.365l-19.764.736 4.283 34.497 13.727-.512 1.754-34.721zm.461 49.887l-.441-12.113-17.047.635.443 12.113 17.045-.635zM65.318 109.447L46.72 73.446l-16.457 1.777-10.243 39.121 15.751-1.703.699-4.814 11.243-1.213 1.853 4.537 15.752-1.704zM44.159 97.973l-5.976.643 1.5-11.755.543-.059c.441 1.565.888 3.181 1.491 4.729l2.442 6.442z" fill="#cc2229"/><path fill="#cc2229" d="M100.061 118.07l6.431-37.237-14.208-2.498-2.165 12.542-9.041-1.59 2.166-12.543-14.206-2.499-6.429 37.234 14.205 2.498 2.235-12.936 9.039 1.592-2.233 12.937 14.206 2.5z"/><path d="M142.219 118.463l.324-40.602-15.359-6.228-27.238 29.685 14.697 5.963 2.859-3.92 10.49 4.254-.473 4.885 14.7 5.963zm-13.346-20.16l-5.574-2.262 6.793-9.671.504.207c-.338 1.592-.695 3.229-.881 4.88l-.842 6.846z" fill="#cc2229"/><path d="M170.881 68.924l-19.76.737 4.279 34.495 13.729-.51 1.752-34.722zm.465 49.888l-.441-12.113-17.049.635.441 12.111 17.049-.633zM58.502 106.943l-18.596-36-16.459 1.778-10.242 39.119 15.75-1.701.7-4.816 11.242-1.213 1.854 4.539 15.751-1.706zM37.344 95.469l-5.977.644 1.5-11.756.543-.06c.441 1.566.887 3.182 1.49 4.73l2.444 6.442z" fill="#265197" stroke="#fff" stroke-width="1.581" stroke-miterlimit="2.613"/><path fill="#265197" stroke="#fff" stroke-width="1.581" stroke-miterlimit="2.613" d="M95.208 112.629l6.431-37.236-14.207-2.499-2.167 12.545-9.041-1.592 2.166-12.543-14.207-2.498-6.428 37.233 14.205 2.502 2.234-12.942 9.04 1.592-2.233 12.938 14.207 2.5z"/><path d="M137.363 113.023l.326-40.602-15.357-6.229-27.24 29.686 14.699 5.961 2.855-3.922 10.494 4.258-.475 4.887 14.698 5.961zm-13.345-20.161l-5.574-2.261 6.793-9.67.506.204c-.34 1.592-.693 3.229-.885 4.883l-.84 6.844z" fill="#265197" stroke="#fff" stroke-width="1.581" stroke-miterlimit="2.613"/></g></svg>