<svg viewBox="0 0 600 600" fill="none" xmlns="http://www.w3.org/2000/svg">
  <path
    d="M270.304 73.5325L63.2153 159.222C51.6992 163.988 51.8185 180.348 63.4068 184.941L271.359 267.406C289.63 274.653 309.977 274.653 328.248 267.406L536.203 184.938C547.789 180.348 547.914 163.991 536.392 159.225L329.31 73.5294C310.417 65.7116 289.193 65.7116 270.301 73.5294"
    fill="#FCB400" />
  <path
    d="M318.255 312.434V518.446C318.255 528.242 328.135 534.954 337.243 531.344L568.965 441.4C571.55 440.376 573.767 438.598 575.328 436.299C576.89 433.999 577.725 431.283 577.725 428.503V222.494C577.725 212.695 567.844 205.986 558.736 209.597L327.014 299.54C324.43 300.565 322.214 302.343 320.652 304.642C319.09 306.942 318.255 309.655 318.255 312.434Z"
    fill="#18BFFF" />
  <path
    d="M264.144 323.066L195.374 356.27L188.391 359.645L43.2219 429.203C34.0228 433.643 22.2744 426.937 22.2744 416.714V223.358C22.2744 219.66 24.1707 216.467 26.7138 214.065C27.7571 213.026 28.9407 212.138 30.2302 211.428C33.6963 209.346 38.6443 208.79 42.8514 210.454L262.988 297.679C274.178 302.118 275.057 317.794 264.144 323.066Z"
    fill="#F82B60" />
  <path
    d="M264.144 323.066L195.374 356.27L26.7139 214.062C27.7574 213.024 28.941 212.137 30.2302 211.428C33.6964 209.346 38.6444 208.79 42.8515 210.454L262.988 297.679C274.178 302.118 275.057 317.794 264.144 323.066Z"
    fill="black" fill-opacity="0.25" />
</svg>