<svg viewBox="0 0 401 400" fill="none" xmlns="http://www.w3.org/2000/svg">
  <style>
    path {
    fill: black;
    }
    @media (prefers-color-scheme: dark) {
    path { fill: white; }
    }
  </style>
  <path
    d="M211.064 26.9395L2.04492 372.299H113.987C128.938 372.299 143.634 368.539 156.584 361.482C170.598 353.833 181.204 342.72 189.468 329.241C199.137 313.479 208.551 297.549 218.05 281.702L242.415 241.137L210.978 188.908L197.049 211.134C181.161 237.46 166.125 264.419 149.683 290.407C141.419 303.421 130.6 315.762 114.669 318.93C112.283 319.395 109.813 319.649 107.342 319.733C104.062 319.86 100.782 319.776 97.5026 319.776L211.064 128.101L356.785 373.06H398.954V337.059L397.974 335.452L211.064 26.9395Z"
    fill="black" />
  <path d="M310.578 138.283L281.716 86.6328H342.479L310.578 138.283Z" fill="black" stroke="black" />
</svg>