<svg width="2500" height="1855" viewBox="0 0 256 190" xmlns="http://www.w3.org/2000/svg" preserveAspectRatio="xMidYMid"><path d="M239.76 158.378c-8.676 0-15.74 7.06-15.74 15.741 0 8.532 7.209 15.743 15.74 15.743 8.684 0 15.746-7.064 15.746-15.743 0-8.826-6.915-15.74-15.746-15.74M239.76 95.408c-8.676 0-15.74 7.062-15.74 15.74 0 8.535 7.209 15.744 15.74 15.744 8.684 0 15.746-7.062 15.746-15.743 0-8.826-6.915-15.741-15.746-15.741M224.02 48.178c0 8.534 7.209 15.746 15.74 15.746 8.684 0 15.746-7.065 15.746-15.746 0-8.826-6.915-15.74-15.746-15.74-8.676 0-15.74 7.062-15.74 15.74z" fill="#35A547"/><path d="M85.52 164.924c-38.341 0-59.457-10.076-59.457-28.363 0-12.06 7.43-26.568 65.38-31.739 28.413-2.523 45.841-5.315 61.441-13.322v46.75c-1.177 6.459-30.765 26.674-67.363 26.674zM27.54 55.359c3.21-12.613 13.307-29.465 63.603-29.465 36.925 0 60.782 10.721 60.782 27.312 0 13.663-21.682 23.03-61.063 26.38C28.975 84.763.154 102.866.154 136.56c0 35.37 28.723 53.301 85.367 53.301 21.19 0 52.43-8.903 68.055-18.976l5.834 14.583h17.382V53.437c0-25.373-22.416-52.484-85.327-52.484C38.438.953 9.819 18.414 3.97 54.338c-.478 2.622-.65 7.778-.65 7.778h22.647s.675-3.723 1.57-6.757z" fill="#3480B7"/></svg>