<svg xmlns="http://www.w3.org/2000/svg" width="2500" height="2500" viewBox="0 0 192.756 192.756"><g fill-rule="evenodd" clip-rule="evenodd"><path fill="#fff" d="M0 0h192.756v192.756H0V0z"/><path d="M160.223 130.494a2.684 2.684 0 0 0-2.686 2.682 2.687 2.687 0 0 0 2.686 2.697 2.68 2.68 0 0 0 2.672-2.697 2.676 2.676 0 0 0-2.672-2.682zm0 5.055a2.357 2.357 0 0 1-2.355-2.373 2.354 2.354 0 0 1 2.355-2.358 2.355 2.355 0 0 1 2.35 2.358 2.359 2.359 0 0 1-2.35 2.373zM147.664 173.144c2.125 1.579 5.199 1.772 7.873 1.772 4.604 0 9.104-4.278 9.104-9.451s-3.807-5.753-8.553-6.338c-3.943-.486-5.727-1.306-5.727-5.213 0-2.566 2.877-5.131 5.395-5.131 2.205-.013 5.129.933 5.426 3.22l.447 2.473 1.104.05.25-5.242c-1.771-1.264-5.064-1.964-7.227-1.964-4.287 0-8.383 3.552-8.383 8.053 0 4.737 2.068 6.428 7.791 7.183 3.062.403 6.375.975 6.375 4.568 0 3.198-2.855 6.328-5.922 6.328-4.475-.333-6.373-2.053-6.422-2.898l-.17-2.854h-1.104c.133 1.462-.609 6.982-.361 5.391l.104.053zM53.075 149.049v-.908c-1.495.04-2.95.119-4.405.158-1.534-.039-3.028-.118-4.562-.158v.908c1.776.02 3.898.336 3.902 2.143v13.62c0 4.497-2.07 8.483-7.497 8.483-5.388 0-7.652-2.883-7.652-7.938v-14.239c-.004-1.204 1.384-1.939 3.241-2.069v-.908c-2.006.04-3.18.119-5.186.158-1.849-.039-3.39-.118-5.238-.158v.908c1.532.119 3.394.24 3.429 2.069v13.963c0 7.147 3.422 9.635 10.462 9.635 7.473 0 9.918-3.269 9.918-10.898v-12.626c.013-1.527 1.22-2.013 3.588-2.143zM145.801 174.216c-.729.082-9.127.067-11.207-.083-2.381-.17-5.598 0-7.695.07v-.908c.416 0 2.791-.306 2.787-2.039v-20.308c.004-1.631-2.371-1.741-2.787-1.741v-1.065c2.098.182 8.336-.067 10.369-.067 2.428 0 6.914.084 7.988.067l-.197 5.962-1.154-.012c0-.846.051-2.437-.396-3.232-.617-.776-2.699-.939-3.74-1.055l-6.33.003v10.626h5.811c1.289.023 2.338-.686 2.482-3.266l1.184.007s-.049 2.686-.041 4.171c.078 1.618-.008 3.019.059 3.979l-1.201.014c-.145-2.579-1.193-3.289-2.482-3.266h-5.811v-.025l-.004 10.395v-.016l6.879.002c1.215-.109 2.949-.035 3.74-1.029.447-.796.396-2.388.396-3.232l1.551-.013c-.264 2.398-.188 4.8-.201 6.061zM74.782 148.142l-.198 6.149h-1.105l-.347-3.034c-.099-.597-.396-.895-1.139-.895l-6.093-.31.049 21.203c-.003 1.733 2.372 2.039 2.788 2.039v.908c-.775-.029-3.782-.119-4.574-.119s-2.18.049-4.376.119v-.908c.417 0 2.791-.306 2.788-2.039l.05-21.203-6.04.31c-.743 0-1.04.298-1.139.895l-.347 3.034h-1.155l-.149-6.149c2.047-.018 8.833.182 10.417.182s8.163-.166 10.57-.182zM27.219 171.914c-.708-.908-1.573-3.317-2.045-4.344l-7.945-20.06h-1.337l-9.827 24.254c-.544 1.293-1.834 1.573-3.231 1.61v.908c1.376-.04 2.714-.119 4.091-.158 1.455.039 2.871.118 4.326.158v-.908c-1.18-.119-3.949-.037-3.285-1.698l2.242-5.664 10.705.007 1.039 2.774c.354.908 1.02 2.491 1.034 3.478.017 1.216-1.729 1.063-2.831 1.104v.908c1.888-.04 2.973-.119 4.861-.158 1.848.039 2.894.118 4.743.158v-.908c-1.337-.158-1.675-.316-2.54-1.461zm-16.204-7.473l-.099.021 4.713-11.732 4.673 11.732-9.287-.021zM87.879 147.667c-8.91 0-13.542 5.766-13.542 13.624 0 7.937 4.683 13.624 13.534 13.624 7.247 0 13.237-5.688 13.237-13.624-.001-7.858-4.319-13.624-13.229-13.624zm.524 25.685c-7.75 0-10.24-7.424-10.24-12.061 0-6.404 1.599-12.061 8.717-12.061s10.401 5.656 10.401 12.061c0 4.637-1.719 12.061-8.878 12.061zM112.336 148.142c-2.123.039-4.941.118-7.064.157-1.652-.039-2.562-.118-4.176-.157v1.065c.416 0 2.791.11 2.789 1.741v20.308c.002 1.733-1.432 2.039-1.848 2.039v.908l3.627-.079c2.322.04 4.682.118 7.002.158 8.102.197 14.162-5.868 14.162-13.214 0-11.104-6.193-13.085-14.492-12.926zm.766 24.676l-5.432.034v-23.188l2.992-.009c8.781 0 12.74 3.641 12.74 12.045 0 5.844-3.418 11.118-10.3 11.118zM171.48 151.15c-.002-1.733 2.371-2.039 2.789-2.039v-.908c-.775.029-3.783.12-4.574.12-.793 0-2.18-.05-4.377-.12v.908c.416 0 2.791.306 2.789 2.039v20.106c.002 1.732-2.373 2.038-2.789 2.038v.908c2.197-.07 3.584-.119 4.377-.119.791 0 3.799.09 4.574.119v-.908c-.418 0-2.791-.306-2.789-2.038v-8.811c-.002-.547.492-.646.84-.298 0 .05 12.135 12.035 12.135 12.035 1.238-.1 4.641-.109 5.467.02v-.908c-.287 0-1.541-.331-2.299-1.099l-12.951-12.709 11.121-9.871c.941-.846 2.225-.704 2.643-.704v-.908c-1.652.021-4.377.07-5.812-.029v1.045c0 .348-.396.845-.768 1.219-.422.422-10.377 10.617-10.377 10.617l.001-9.705zM85.376 17.841l-48.27 117.788V17.841h48.27zM106.295 17.841l48.267 117.788V17.841h-48.267zM95.835 32.387l57.36 103.228h-13.42l-34.199-81.496H86.095l-34.2 81.496H38.474L95.835 32.387z"/><path d="M95.835 59.308l42.208 76.28h-12.555l-22.295-56.939H88.476l-22.295 56.939H53.626l42.209-76.28z"/><path d="M67.913 135.562h56.062l-28.14-51.07-27.922 51.07zM161.598 132.472c0-.253-.111-.521-.336-.647-.225-.134-.477-.147-.73-.147h-1.303v3.006h.363v-1.387h.674l.855 1.387h.436l-.906-1.387c.533-.015.947-.234.947-.825zm-1.446.537h-.561v-1.063h.855c.373 0 .779.057.779.521.002.612-.651.542-1.073.542z"/></g></svg>