<svg version="1.2" xmlns="http://www.w3.org/2000/svg" viewBox="0 0 1386 1514" width="1386" height="1514">
	<title>Baidu_Baike_logo-svg</title>
	<style>
		.s0 { fill: #2830e1 } 
	</style>
	<g id="surface1">
		<path id="path47" class="s0" d="m449.1 1079.4h92.8v209.5h-84.8c0 0-61-2.7-79.6-71.6-10.6-29.1 0-66.3 5.4-79.6 5.3-15.8 23.8-47.7 66.2-58.3z"/>
		<path id="path41" fill-rule="evenodd" class="s0" d="m767.3 246.6c10.5-87.5 119.3-225.4 204.1-206.9 84.8 18.6 164.4 132.6 148.5 230.8-16 98.1-92.8 228-214.7 212.2-122.1-16-148.5-127.4-137.9-236.1zm-254.5 220.1c-90.9 0-164.4-104.3-164.4-233.3 0-129.1 73.5-233.4 164.4-233.4 90.9 0 164.4 104.3 164.4 233.4 0 129-73.5 233.3-164.4 233.3zm-509.1 87.6c0 0 18.6-193.7 151.2-204.2 106-10.6 182.9 106 190.9 172.3 5.3 42.4 26.4 238.8-137.9 273.2-161.8 34.5-222.8-153.9-204.2-241.3zm1222.2 344.8c-180.2 2.6-188.2-122.1-188.2-212.2 0-95.5 18.5-228.1 164.3-228.1 143.2 0 183 140.5 183 188.3 0 45.1 18.5 246.7-159.1 252zm29.2 485.3c-90.2 209.5-418.9 100.7-418.9 100.7 0 0-121.9-39.7-262.4-7.9-140.6 29.2-262.6 18.6-262.6 18.6 0 0-164.3 2.6-212-204.3-45.1-209.5 164.3-323.5 180.2-342.1 16-21.2 127.3-95.5 196.3-212.1 68.8-119.4 281-212.2 429.5 18.5 108.6 156.5 296.8 302.3 296.8 302.3 0 0 140.5 108.8 53.1 326.3zm-612.5-10.6v-517.2l-95.4-2.7v140.6h-114c0 0-114 7.9-153.8 137.9-15.9 87.5 10.7 137.9 16 148.5 2.6 10.6 39.7 74.3 132.5 92.9zm392.4-2.7v-363.3h-106v273.1h-100.8c0 0-31.8-5.3-37.1-31.8v-244l-100.7 2.7v270.5c0 0 5.3 68.9 100.7 92.8z"/>
	</g>
</svg>