<svg
  viewBox="0 0 191 191"
  xmlns="http://www.w3.org/2000/svg"
>
  <style type="text/css">
    path {
    fill: black;
    }
    @media (prefers-color-scheme: dark) {
    path { fill: white; }
    }
</style>
  <g clipPath="url(#clip0_1227_1977)">
    <path
      d="M100.633 108.738H124.727C131.579 108.738 135.914 104.968 135.914 98.9095C135.914 93.1975 131.579 89.0816 124.727 89.0816H100.633C99.835 89.0816 99.152 89.7646 99.152 90.4556V107.364C99.26 108.162 99.828 108.738 100.633 108.738ZM100.633 147.697H125.525C133.175 147.697 137.741 143.811 137.741 136.955C137.741 131.012 133.405 126.213 125.525 126.213H100.633C99.835 126.213 99.152 126.897 99.152 127.588V146.215C99.26 147.128 99.828 147.697 100.633 147.697Z"
      fill="currentColor"
    />
    <path
      d="M188.783 0.422551L117.53 71.4915H129.178C147.332 71.4915 158.067 82.9166 158.067 95.3696C158.067 105.198 151.445 112.393 144.363 115.595C143.22 116.055 143.22 117.652 144.478 118.105C152.696 121.307 158.52 129.876 158.52 139.926C158.52 154.092 149.044 165.402 130.659 165.402H80.192C79.394 165.402 78.712 164.719 78.712 164.028V110.212L0.491961 188.145C-0.537039 189.174 0.145961 191.001 1.63496 191.001H189.696C190.379 191.001 190.954 190.433 190.954 189.742V1.45155C191.292 0.192551 189.696 -0.490449 188.783 0.422551Z"
      fill="currentColor"
    />
  </g>
  <defs>
    <clipPath id="clip0_1227_1977">
      <rect width="191" height="191" fill="currentColor" />
    </clipPath>
  </defs>
</svg>