<svg width="56" height="32" viewBox="0 0 56 32" fill="none" xmlns="http://www.w3.org/2000/svg">
  <path
    d="M29.9525 9.82869C25.8628 9.82869 22.3117 12.1281 20.5172 15.5036C18.7226 12.128 15.1716 9.82893 11.0821 9.82893C8.67845 9.82893 6.46036 10.6231 4.67571 11.9634V2.96687H4.67472C4.64975 1.80751 3.70377 0.874512 2.53835 0.874512C1.37281 0.874512 0.427081 1.80751 0.402356 2.96687H0.401367V20.6864H0.405818C0.500762 26.5031 5.24265 31.1905 11.082 31.1905C15.1715 31.1905 18.7226 28.8907 20.517 25.5151C22.3117 28.891 25.8627 31.1903 29.9522 31.1903C35.851 31.1903 40.633 26.4079 40.633 20.5095C40.6331 14.6104 35.8509 9.82869 29.9525 9.82869ZM11.082 26.9159C7.54369 26.9159 4.67559 24.0477 4.67559 20.5097C4.67559 16.9711 7.54381 14.103 11.082 14.103C14.6202 14.103 17.4885 16.9711 17.4885 20.5097C17.4885 24.0477 14.6202 26.9159 11.082 26.9159ZM29.9525 26.9159C26.4141 26.9159 23.5461 24.0477 23.5461 20.5094C23.5461 16.9709 26.4142 14.103 29.9525 14.103C33.4905 14.103 36.359 16.9709 36.359 20.5094C36.3589 24.0477 33.4905 26.9159 29.9525 26.9159Z"
    fill="#09A9E8" />
  <path
    d="M55.0004 27.8288L49.5305 20.5172L55.0004 13.2055L54.9994 13.2047C55.676 12.2626 55.4799 10.9486 54.5479 10.2484C53.6162 9.54895 52.2996 9.7266 51.5834 10.6387L51.5829 10.6385L46.8619 16.9492L42.1409 10.6385L42.1402 10.6396C41.424 9.7266 40.1076 9.54895 39.1755 10.2489C38.2435 10.9491 38.0474 12.2631 38.7244 13.2049L38.7234 13.2055L44.1932 20.5172L38.7234 27.8288L38.7244 27.8294C38.0473 28.7714 38.2435 30.0852 39.1755 30.7852C40.1076 31.4854 41.424 31.3075 42.1402 30.3951L42.1409 30.396L46.8619 24.0851L51.5829 30.396L51.5834 30.3957C52.2997 31.3077 53.6162 31.4854 54.5479 30.7857C55.4799 30.0857 55.676 28.7717 54.9994 27.8298L55.0004 27.8288Z"
    fill="#09A9E8" />
</svg>