<svg viewBox="0 0 1044 1007" fill="none" xmlns="http://www.w3.org/2000/svg">
  <path d="M393.943 503.2L918.421 378.149V106.244H646.451L393.943 503.2Z" fill="#FF3300" />
  <path
    d="M134.037 498.437C134.037 530.965 138.003 562.541 145.494 592.792L393.963 503.21L143.438 412.818C137.341 440.354 134.037 468.992 134.037 498.364V498.437Z"
    fill="#FF3300" />
  <path
    d="M226.437 245.62L393.893 503.208L471.085 110.145C373.329 123.876 287.176 173.662 226.437 245.62Z"
    fill="#FF3300" />
  <path d="M393.943 503.183L918.421 628.158V900.063H646.451L393.943 503.183Z" fill="#FF3300" />
  <path
    d="M226.425 760.728L393.882 503.141L471 896.131C373.244 882.4 287.091 832.616 226.352 760.655L226.425 760.728Z"
    fill="#FF3300" />
</svg>