<svg viewBox="0 0 54 54" fill="none" xmlns="http://www.w3.org/2000/svg">
  <path
    d="M33.7836 39.8009C31.3196 39.8009 29.3216 41.749 29.3216 44.151C29.3216 46.553 31.3196 48.5 33.7836 48.5C36.2486 48.5 38.2466 46.553 38.2466 44.15C38.2466 41.749 36.2476 39.8009 33.7836 39.8009ZM49.9766 34.445C47.9376 34.445 46.2846 36.0559 46.2846 38.0439C46.2846 40.0319 47.9376 41.644 49.9776 41.644C52.0176 41.644 53.6696 40.0319 53.6696 38.0439C53.6696 36.0559 52.0166 34.444 49.9776 34.444L49.9766 34.445ZM16.5106 23.742C14.0346 23.013 11.2046 23.498 9.11364 24.954C8.01864 25.716 7.42664 26.696 6.57164 27.636C7.64164 26.462 9.20564 26.608 9.20564 26.608C7.75564 27.569 6.91364 28.816 6.03164 29.846C3.97964 31.966 0.0566406 31.773 0.0566406 31.773C1.72864 33.69 5.34864 33.3869 8.15364 32.1229C10.9586 30.8569 11.5186 31.8279 11.5186 31.8279C9.35264 31.6669 7.63264 33.492 7.63264 33.492C8.68864 32.955 10.1626 33.305 12.4976 33.459C14.6046 33.665 17.0476 33.495 18.6306 31.952C21.3586 29.293 20.1506 24.812 16.5106 23.742Z"
    fill="#F26419" />
  <path
    d="M24.5378 19.248L36.6548 15.351C40.8908 13.988 45.6108 15.989 47.2068 20.049C48.9108 24.384 46.5418 29.178 42.0708 30.616L40.9038 30.991C40.6168 31.084 40.3798 30.763 40.5588 30.525C40.7068 30.328 40.8438 30.123 40.9668 29.939C41.0428 29.826 41.1138 29.719 41.1798 29.627C41.8748 28.644 42.6508 27.449 42.5348 26.209C42.4198 24.978 41.5648 23.939 40.5168 23.301C40.1668 23.088 39.8648 22.858 39.5788 22.641C38.8218 22.064 38.1788 21.575 37.0358 21.705C36.0558 21.817 35.1358 22.163 34.2168 22.508C33.8108 22.66 33.4058 22.813 32.9958 22.945L35.8908 22.979C36.2488 22.984 36.6008 23.072 36.9158 23.237L39.7058 24.697C40.5758 25.152 41.0018 26.173 40.6318 27.065C40.3846 27.6534 40.0124 28.1811 39.541 28.6114C39.0696 29.0416 38.5103 29.3643 37.9018 29.557L36.3458 30.057C36.0362 30.1567 35.7084 30.1865 35.3859 30.1444C35.0634 30.1022 34.7543 29.989 34.4808 29.813L31.5818 27.938L29.3118 28.75L24.5378 19.248ZM51.4958 31.203C53.1328 30.673 54.1478 29.077 53.9088 27.411L50.7588 5.5L19.0818 15.704L14.5118 6.612L2.5918 7.387L2.8628 11.209L12.1448 10.612L17.6048 21.478L21.7118 20.158L26.5298 29.745L22.4868 31.191L25.1828 36.556C25.9708 38.123 27.8258 38.882 29.5248 38.33L51.4958 31.203Z"
    fill="#F26419" />
</svg>