<svg viewBox="0 0 1519 1519" fill="none"
  xmlns="http://www.w3.org/2000/svg">
  <path
    d="M1152.36 991.73C1155.32 970.433 1157.82 949.075 1159.86 927.671C1137.31 954.971 1113.35 982.141 1088.05 1009.06C1110.35 1003.8 1131.79 998.014 1152.36 991.73ZM371.247 534.339C368.201 555.453 365.617 576.631 363.498 597.858C386.205 570.14 409.83 543.186 434.333 517.042C413.129 522.149 392.09 527.917 371.247 534.339ZM1166.65 705.096C1178.4 686.106 1189.53 666.734 1200.01 647.012C1186.85 629.647 1173.32 612.57 1159.42 595.793C1163.07 632.133 1165.48 668.592 1166.65 705.096ZM324.247 875.912C336.648 892.526 349.601 909.122 363.1 925.653C359.785 890.324 357.58 854.898 356.49 819.43C345.162 837.922 334.409 856.754 324.247 875.912ZM988.934 1154.26C979.583 1184.04 969.264 1212.02 958.038 1237.9C940.213 1279.01 920.193 1314.87 898.583 1344.94C857.558 1402.02 810.802 1437.98 762.205 1447.41C711.022 1436.39 663.506 1400.22 622.588 1343.65C582.346 1358.75 543.036 1369.47 505.174 1375.45C517.397 1392.37 530.327 1408.07 544.033 1422.26C602.954 1483.25 654.398 1518.02 761.577 1518.02C868.755 1518.02 929.45 1478.66 990.275 1410.21C999.59 1399.67 1008.39 1388.68 1016.66 1377.28C1039.24 1346.32 1059.35 1310.95 1076.9 1271.74C1096.39 1228.18 1112.75 1179.93 1125.98 1127.95C1082.71 1138.89 1036.86 1147.67 988.934 1154.26ZM988.038 115.267C926.768 45.2624 867.491 4.92578 761.577 4.92578C655.662 4.92578 617.984 34.7302 561.792 87.557C542.621 105.583 524.737 126.375 508.093 149.498C486.406 179.635 466.902 213.848 449.665 251.579C429.177 296.419 411.898 346.179 397.96 399.901C440.884 388.699 486.311 379.632 533.792 372.785C543.375 341.722 554.025 312.589 565.667 285.715C582.981 245.723 602.42 210.673 623.413 181.017C664.877 122.417 712.458 85.1005 762.2 74.2776C811.52 83.4332 858.947 120.18 900.405 178.744C939.175 164.053 977.085 153.598 1013.74 147.67C1005.66 136.492 997.081 125.681 988.032 115.273L988.038 115.267ZM990.518 372.197C970.053 369.361 949.221 366.922 928.049 364.893C955.337 387.286 981.88 410.57 1007.64 434.708C1002.58 413.699 996.868 392.853 990.518 372.197ZM533.121 1153.31C554.447 1156.4 576.158 1159.07 598.254 1161.26C569.931 1137.89 542.375 1113.59 515.629 1088.42C520.751 1110.24 526.581 1131.88 533.121 1153.31ZM1382.02 1058.48C1381.17 1044.83 1379.69 1031.22 1377.57 1017.7C1371.74 979.791 1361.02 940.517 1345.75 900.323C1328.57 855.097 1305.67 808.732 1277.79 761.922C1254.98 800.288 1228.8 838.958 1199.6 877.532C1214.48 905.954 1227.27 933.741 1237.84 960.656C1254.24 1002.37 1265.39 1041.93 1271.25 1078.47C1282.28 1147.27 1274.57 1205.27 1247.05 1246.06C1203.48 1274.19 1145.01 1282.35 1076.9 1271.74C1059.35 1310.95 1039.24 1346.32 1016.66 1377.28C1036.49 1380.39 1055.98 1382.21 1074.99 1382.55C1159.78 1384.01 1220.75 1372.22 1296.53 1296.43C1372.32 1220.64 1387.4 1149.89 1382.02 1058.48ZM464.778 144.407C371.953 138.23 301.521 151.616 226.622 226.516C151.728 301.41 146.162 349.116 143.789 426.205C142.97 452.871 145.076 480.61 149.793 509.127C155.852 545.737 166.324 583.683 180.862 622.494C197.915 668.023 220.546 714.732 248.196 761.874C270.673 723.632 296.424 685.123 325.179 646.751C310.445 618.78 297.67 591.378 287.115 564.832C271.017 524.347 259.909 485.855 253.667 450.04C241.236 378.707 248.41 318.196 276.108 275.106C317.845 246.441 378.077 239.006 449.677 251.579C466.914 213.848 486.418 179.635 508.105 149.498C493.752 147.117 479.293 145.418 464.778 144.407ZM1159.44 595.793C1157.36 575.263 1154.9 555.041 1152.05 535.181C1145.17 487.196 1136.01 441.294 1124.68 397.955C1111.09 345.953 1094.38 297.66 1074.63 254.006C1038.88 260.047 1000.3 271.053 959.681 287.062C970.914 313.401 981.203 341.901 990.518 372.197C996.868 392.853 1002.58 413.699 1007.64 434.708C1012.97 456.822 1017.77 479.744 1022.01 503.407C1030.12 548.514 1036.14 596.327 1039.81 646.395C1042.53 683.391 1044.03 721.544 1044.03 760.842C1044.03 800.466 1042.5 838.91 1039.74 876.161C1072.97 837.812 1102.95 799.547 1129.36 761.821C1142.33 743.274 1154.76 724.358 1166.65 705.096C1165.48 668.59 1163.08 632.135 1159.44 595.793ZM533.121 1153.31C526.579 1131.88 520.741 1110.24 515.617 1088.42C510.591 1067.06 506.005 1045 501.988 1022.15C493.906 976.237 488.008 927.356 484.424 876.055C481.738 837.709 480.392 799.281 480.389 760.842C480.389 721.283 481.903 682.94 484.626 645.819C451.309 684.293 421.344 722.825 394.815 760.913C381.474 780.042 368.694 799.556 356.49 819.43C357.618 855.613 359.837 891.066 363.1 925.653C365.171 947.566 367.627 969.153 370.547 990.306C377.097 1037.72 385.808 1083.09 396.625 1125.95C409.934 1178.65 426.471 1227.51 446.194 1271.6C482.804 1265.52 522.269 1254.29 563.84 1237.8C552.607 1211.68 542.342 1183.45 533.121 1153.31ZM647.551 323.975C629.872 337.351 612.491 351.114 595.418 365.255C632.532 361.525 669.764 359.087 707.047 357.945C687.591 345.977 667.748 334.65 647.551 323.981V323.975ZM274.725 1248.58C246.066 1206.85 238.625 1146.61 251.21 1075.01C213.473 1057.78 179.254 1038.27 149.123 1016.59C146.732 1031.25 144.969 1045.72 144.026 1059.91C137.855 1152.74 151.241 1223.18 226.135 1298.06C301.029 1372.96 348.735 1378.52 425.83 1380.9C451.38 1381.69 477.909 1379.77 505.174 1375.46C483.095 1344.9 463.413 1310.1 446.194 1271.61C376.374 1283.2 317.121 1275.82 274.725 1248.58ZM646.465 1199.46C618.245 1214.34 590.606 1227.19 563.84 1237.81C581.284 1278.36 601.014 1313.83 622.588 1343.65C667.719 1326.71 714.007 1304.29 760.722 1276.94C722.795 1254.28 684.594 1228.35 646.465 1199.46ZM876.463 1199.74C893.003 1187.37 909.278 1174.65 925.278 1161.59C891.427 1164.78 856.739 1166.96 821.352 1168.11C839.389 1179.23 857.768 1189.77 876.463 1199.74ZM563.84 1237.81C522.269 1254.3 482.799 1265.52 446.194 1271.61C463.413 1310.1 483.095 1344.9 505.174 1375.46C543.03 1369.48 582.346 1358.76 622.588 1343.66C601.014 1313.84 581.278 1278.36 563.84 1237.81ZM1296.04 228.148C1220.27 152.37 1149.51 137.281 1058.11 142.662C1043.25 143.585 1028.44 145.258 1013.75 147.676C977.091 153.604 939.181 164.059 900.417 178.75C854.775 196.053 807.983 219.176 760.746 247.366C799.433 269.997 838.399 295.98 877.234 325.037C905.413 310.292 932.98 297.588 959.675 287.068C1000.3 271.059 1038.88 260.053 1074.63 254.018C1144.94 242.151 1204.22 249.657 1245.67 277.634C1273.82 321.204 1281.96 379.68 1271.36 447.785C1310.56 465.343 1345.94 485.434 1376.91 508.035C1380.01 488.193 1381.84 468.701 1382.17 449.69C1383.64 364.899 1371.84 303.937 1296.05 228.154L1296.04 228.148ZM1237.52 566.647C1227.11 592.719 1214.56 619.569 1200.01 647.012C1189.53 666.734 1178.4 686.106 1166.65 705.096C1154.76 724.358 1142.32 743.28 1129.35 761.827C1102.94 799.553 1072.97 837.818 1039.74 876.167C1014.02 905.854 987.249 934.611 959.474 962.382C932.499 989.354 904.549 1015.33 875.68 1040.27C926.768 1036.69 975.453 1030.82 1021.21 1022.79C1043.62 1018.86 1065.91 1014.28 1088.05 1009.06C1112.85 982.708 1136.8 955.565 1159.86 927.677C1173.46 911.246 1186.71 894.529 1199.6 877.538C1228.8 838.964 1254.98 800.288 1277.79 761.922C1305.11 715.996 1327.55 670.515 1344.56 626.096C1314.5 604.498 1278.64 584.472 1237.52 566.647ZM502.457 502.766C479.617 506.862 456.895 511.623 434.333 517.042C409.826 543.186 386.203 570.14 363.492 597.858C350.372 613.881 337.596 630.182 325.173 646.751C296.418 685.123 270.667 723.632 248.19 761.868C220.48 809.005 197.755 855.726 180.642 901.26C210.304 922.253 245.342 941.692 285.34 959.012C296.134 932.097 309.182 904.298 324.247 875.912C334.409 856.754 345.162 837.916 356.49 819.424C368.696 799.554 381.478 780.044 394.821 760.919C421.344 722.825 451.309 684.293 484.626 645.819C534.422 588.303 588.364 534.511 646.02 484.876C595.744 488.561 547.73 494.613 502.457 502.766ZM1409.83 534.398C1399.28 525.086 1388.3 516.287 1376.9 508.029C1345.94 485.428 1310.56 465.337 1271.36 447.78C1227 427.92 1177.78 411.312 1124.68 397.955C1136.02 441.294 1145.16 487.196 1152.05 535.181C1182.52 544.675 1211.11 555.195 1237.52 566.647C1278.64 584.472 1314.5 604.498 1344.56 626.096C1401.64 667.127 1437.6 713.878 1447.03 762.474C1436.17 812.921 1400.92 859.808 1345.75 900.323C1361.02 940.517 1371.74 979.791 1377.57 1017.7C1393.54 1006.01 1408.39 993.682 1421.88 980.646C1482.88 921.731 1517.64 870.281 1517.64 763.103C1517.64 655.924 1478.28 595.229 1409.83 534.398H1409.83ZM370.547 990.306C340.191 980.871 311.68 970.416 285.34 959.012C245.348 941.692 210.304 922.253 180.642 901.26C122.048 859.791 84.7196 812.215 73.8968 762.474C83.1828 712.453 120.82 664.374 180.856 622.5C166.318 583.683 155.846 545.737 149.787 509.127C137.722 517.734 126.078 526.918 114.898 536.647C44.8815 597.911 4.54492 657.188 4.54492 763.103C4.54492 869.017 34.3434 906.684 87.1762 962.887C105.202 982.052 125.994 999.942 149.117 1016.58C179.248 1038.27 213.467 1057.78 251.204 1075.01C295.226 1095.12 344.012 1112.15 396.625 1125.95C385.808 1083.09 377.097 1037.72 370.547 990.306ZM762.698 394.442C744.486 381.767 725.927 369.598 707.041 357.951C668.983 359.132 631.714 361.594 595.418 365.255C574.532 367.367 553.978 369.871 533.792 372.785C486.311 379.632 440.884 388.699 397.96 399.901C345.822 413.507 297.415 430.252 253.667 450.04C259.909 485.855 271.017 524.347 287.115 564.832C313.175 553.736 341.324 543.554 371.247 534.339C391.481 528.109 412.485 522.305 434.333 517.042C456.275 511.761 479.001 506.985 502.457 502.766C547.73 494.613 595.739 488.561 646.02 484.876C683.004 482.159 721.163 480.664 760.461 480.664C801.266 480.664 840.808 482.283 879.091 485.203C840.191 451.494 801.207 421.203 762.698 394.442ZM1237.84 960.656C1211.44 972.03 1182.87 982.414 1152.36 991.73C1131.12 998.202 1109.67 1003.98 1088.05 1009.06C1066.51 1014.13 1044.26 1018.74 1021.21 1022.79C975.453 1030.81 926.774 1036.69 875.68 1040.27C838.506 1042.87 800.103 1044.29 760.461 1044.29C722.083 1044.29 684.837 1042.88 648.743 1040.31C686.659 1073.15 724.492 1102.79 761.802 1128.96C781.253 1142.61 801.112 1155.67 821.352 1168.11C856.739 1166.96 891.427 1164.77 925.278 1161.58C946.546 1159.59 967.77 1157.15 988.934 1154.26C1036.86 1147.67 1082.71 1138.89 1125.98 1127.95C1178.54 1114.66 1227.27 1098.15 1271.25 1078.47C1265.39 1041.93 1254.24 1002.37 1237.84 960.656ZM876.463 1199.74C857.768 1189.77 839.389 1179.23 821.352 1168.11C801.112 1155.67 781.253 1142.61 761.802 1128.96C724.492 1102.79 686.659 1073.15 648.743 1040.31C618.978 1014.53 590.146 987.692 562.303 959.849C535.331 932.874 509.358 904.924 484.424 876.055C488.014 927.356 493.912 976.237 501.988 1022.15C506.011 1045 510.586 1067.07 515.623 1088.43C542.371 1113.6 569.929 1137.89 598.254 1161.26C614.063 1174.32 630.136 1187.05 646.465 1199.45C684.588 1228.35 722.795 1254.28 760.722 1276.93C807.342 1304.79 853.523 1327.68 898.583 1344.94C920.193 1314.87 940.213 1279.01 958.038 1237.9C931.586 1227.34 904.321 1214.57 876.463 1199.74ZM1022.01 503.407C1017.9 480.371 1013.1 457.461 1007.64 434.708C981.88 410.57 955.337 387.286 928.049 364.893C911.407 351.233 894.464 337.948 877.234 325.037C838.399 295.98 799.433 269.997 760.746 247.366C714.31 220.214 668.283 197.886 623.413 181.017C602.42 210.673 582.981 245.723 565.667 285.715C592.19 296.354 619.586 309.195 647.551 323.981C667.126 334.329 686.968 345.585 707.047 357.945C725.441 369.266 744.007 381.466 762.698 394.442C801.207 421.203 840.191 451.494 879.091 485.203C936.516 534.95 990.229 588.826 1039.8 646.401C1036.12 596.327 1030.11 548.514 1022.01 503.401L1022.01 503.407Z"
    fill="#49BC82" />
  <path
    d="M1152.36 991.729C1155.32 970.431 1157.82 949.073 1159.86 927.669C1137.31 954.97 1113.35 982.14 1088.06 1009.05C1110.35 1003.8 1131.79 998.012 1152.36 991.729ZM371.247 534.337C368.202 555.451 365.618 576.63 363.498 597.857C386.205 570.138 409.83 543.185 434.333 517.041C413.13 522.148 392.091 527.916 371.247 534.337Z"
    fill="#49BC82" />
  <path
    d="M1166.65 705.09C1178.4 686.102 1189.53 666.732 1200.01 647.012C1186.85 629.647 1173.32 612.57 1159.42 595.793C1163.07 632.133 1165.48 668.586 1166.65 705.09ZM324.247 875.918C336.648 892.532 349.601 909.122 363.1 925.653C359.785 890.324 357.581 854.898 356.49 819.43C345.162 837.922 334.409 856.76 324.247 875.918Z"
    fill="#57B6DF" />
  <path
    d="M988.934 1154.26C979.583 1184.04 969.264 1212.02 958.038 1237.9C940.213 1279.01 920.193 1314.87 898.583 1344.94C857.558 1402.02 810.802 1437.98 762.205 1447.41C711.022 1436.39 663.506 1400.22 622.588 1343.65C582.346 1358.75 543.036 1369.47 505.174 1375.45C517.397 1392.37 530.327 1408.07 544.033 1422.26C602.954 1483.25 654.398 1518.02 761.577 1518.02C868.755 1518.02 929.45 1478.66 990.275 1410.21C999.59 1399.67 1008.39 1388.68 1016.66 1377.28C1039.24 1346.32 1059.35 1310.95 1076.9 1271.74C1096.39 1228.18 1112.75 1179.93 1125.98 1127.95C1082.71 1138.89 1036.86 1147.68 988.934 1154.26ZM988.038 115.267C926.768 45.2624 867.491 4.92578 761.577 4.92578C655.662 4.92578 617.984 34.7302 561.792 87.557C542.621 105.583 524.737 126.375 508.093 149.498C486.406 179.635 466.902 213.848 449.665 251.579C429.177 296.419 411.898 346.179 397.96 399.901C440.884 388.699 486.311 379.632 533.792 372.785C543.375 341.722 554.025 312.589 565.667 285.715C582.981 245.723 602.42 210.673 623.413 181.017C664.877 122.417 712.458 85.1005 762.2 74.2776C811.52 83.4332 858.947 120.18 900.405 178.744C939.175 164.053 977.085 153.598 1013.74 147.67C1005.66 136.492 997.081 125.681 988.032 115.273"
    fill="#49BC82" />
  <path
    d="M990.518 372.197C970.053 369.361 949.22 366.922 928.049 364.893C955.337 387.285 981.88 410.569 1007.64 434.707C1002.58 413.699 996.868 392.852 990.518 372.197ZM533.121 1153.31C554.446 1156.4 576.157 1159.07 598.254 1161.26C569.931 1137.88 542.375 1113.59 515.629 1088.42C520.751 1110.24 526.581 1131.88 533.121 1153.31Z"
    fill="#276392" />
  <path
    d="M1382.02 1058.48C1381.17 1044.83 1379.69 1031.22 1377.57 1017.7C1371.74 979.79 1361.02 940.516 1345.75 900.322C1328.57 855.096 1305.67 808.731 1277.79 761.921C1254.99 800.287 1228.8 838.956 1199.6 877.531C1214.48 905.953 1227.27 933.74 1237.84 960.654C1254.24 1002.37 1265.39 1041.93 1271.25 1078.47C1282.29 1147.27 1274.57 1205.27 1247.05 1246.05C1203.48 1274.19 1145.01 1282.34 1076.9 1271.74C1059.35 1310.94 1039.25 1346.32 1016.66 1377.28C1036.49 1380.38 1055.98 1382.21 1074.99 1382.54C1159.78 1384.01 1220.75 1372.21 1296.53 1296.43C1372.32 1220.64 1387.41 1149.89 1382.02 1058.48ZM464.773 144.405C371.948 138.229 301.516 151.615 226.616 226.515C151.722 301.408 146.157 349.114 143.783 426.204C142.964 452.869 145.071 480.609 149.788 509.126C155.846 545.736 166.319 583.681 180.856 622.493C197.909 668.021 220.54 714.731 248.191 761.873C270.667 723.631 296.419 685.122 325.173 646.749C310.44 618.779 297.665 591.377 287.109 564.83C271.011 524.345 259.904 485.854 253.661 450.039C241.231 378.705 248.404 318.195 276.102 275.105C317.839 246.44 378.071 239.005 449.672 251.578C466.909 213.846 486.413 179.633 508.1 149.497C493.746 147.116 479.287 145.417 464.773 144.405Z"
    fill="#57B6DF" />
  <path
    d="M1159.42 595.793C1157.35 575.263 1154.9 555.041 1152.05 535.181C1145.17 487.196 1136 441.294 1124.68 397.955C1111.09 345.953 1094.37 297.659 1074.63 254.006C1038.88 260.046 1000.3 271.053 959.676 287.062C970.908 313.401 981.203 341.9 990.518 372.197C996.869 392.852 1002.58 413.699 1007.64 434.708C1012.97 456.822 1017.77 479.743 1022.01 503.407C1030.11 548.514 1036.13 596.327 1039.81 646.394C1042.52 683.39 1044.02 721.543 1044.02 760.842C1044.02 800.466 1042.5 838.91 1039.74 876.161C1072.97 837.812 1102.94 799.546 1129.35 761.821C1142.32 743.274 1154.76 724.357 1166.65 705.095C1165.48 668.59 1163.08 632.134 1159.43 595.793M533.121 1153.31C526.579 1131.88 520.741 1110.24 515.617 1088.42C510.592 1067.06 506.005 1045 501.988 1022.15C493.906 976.237 488.008 927.356 484.424 876.054C481.738 837.709 480.392 799.281 480.39 760.842C480.39 721.282 481.903 682.939 484.626 645.819C451.309 684.292 421.344 722.825 394.815 760.913C381.474 780.042 368.694 799.556 356.49 819.43C357.618 855.613 359.837 891.066 363.1 925.653C365.171 947.566 367.628 969.152 370.547 990.305C377.098 1037.71 385.808 1083.09 396.625 1125.95C409.934 1178.65 426.471 1227.51 446.194 1271.6C482.805 1265.52 522.269 1254.29 563.84 1237.8C552.607 1211.68 542.342 1183.45 533.121 1153.31Z"
    fill="#49BC82" />
  <path
    d="M647.551 323.975C629.873 337.35 612.491 351.114 595.419 365.255C632.532 361.525 669.764 359.087 707.047 357.944C687.592 345.976 667.749 334.649 647.551 323.981M274.726 1248.58C246.066 1206.85 238.626 1146.61 251.211 1075.01C213.473 1057.78 179.254 1038.27 149.123 1016.58C146.732 1031.24 144.97 1045.71 144.026 1059.91C137.855 1152.73 151.242 1223.17 226.135 1298.06C301.029 1372.95 348.735 1378.52 425.831 1380.89C451.381 1381.68 477.91 1379.76 505.175 1375.46C483.096 1344.89 463.414 1310.1 446.195 1271.6C376.374 1283.19 317.121 1275.82 274.726 1248.58ZM646.465 1199.45C618.245 1214.33 590.606 1227.18 563.84 1237.8C581.285 1278.36 601.014 1313.83 622.589 1343.65C667.719 1326.71 714.007 1304.28 760.723 1276.93C722.795 1254.27 684.595 1228.34 646.465 1199.45ZM876.463 1199.74C893.003 1187.37 909.279 1174.65 925.279 1161.58C891.428 1164.77 856.74 1166.95 821.352 1168.11C839.389 1179.22 857.769 1189.77 876.463 1199.74Z"
    fill="#FABB66" />
  <path
    d="M563.84 1237.81C522.269 1254.29 482.799 1265.52 446.195 1271.6C463.414 1310.1 483.096 1344.89 505.175 1375.45C543.031 1369.47 582.347 1358.75 622.589 1343.65C601.014 1313.83 581.279 1278.36 563.84 1237.8M1296.05 228.147C1220.27 152.363 1149.52 137.274 1058.1 142.656C1043.24 143.578 1028.44 145.252 1013.75 147.67C977.091 153.597 939.181 164.052 900.417 178.744C854.776 196.046 807.984 219.17 760.746 247.36C799.433 269.991 838.399 295.974 877.235 325.031C905.413 310.286 932.981 297.582 959.676 287.062C1000.3 271.053 1038.88 260.046 1074.63 254.012C1144.94 242.144 1204.22 249.65 1245.68 277.627C1273.82 321.198 1281.97 379.673 1271.36 447.779C1310.56 465.337 1345.94 485.428 1376.91 508.029C1380.01 488.187 1381.84 468.695 1382.17 449.684C1383.64 364.893 1371.84 303.931 1296.05 228.147ZM1237.52 566.641C1227.11 592.713 1214.57 619.568 1200.01 647.011C1189.53 666.733 1178.4 686.105 1166.65 705.095C1154.76 724.357 1142.33 743.273 1129.35 761.82C1102.94 799.546 1072.97 837.812 1039.74 876.161C1014.02 905.848 987.249 934.605 959.474 962.376C932.499 989.347 904.549 1015.33 875.68 1040.26C926.768 1036.69 975.453 1030.81 1021.21 1022.79C1043.62 1018.85 1065.91 1014.28 1088.06 1009.06C1112.85 982.701 1136.8 955.559 1159.86 927.67C1173.46 911.24 1186.71 894.523 1199.6 877.531C1228.8 838.957 1254.98 800.288 1277.79 761.921C1305.11 715.995 1327.55 670.508 1344.56 626.089C1314.5 604.491 1278.64 584.465 1237.52 566.641ZM502.457 502.766C479.617 506.861 456.902 511.622 434.339 517.042C409.832 543.186 386.203 570.139 363.492 597.857C350.373 613.881 337.597 630.182 325.173 646.75C296.419 685.123 270.667 723.632 248.191 761.868C220.481 809.004 197.755 855.725 180.643 901.26C210.305 922.253 245.342 941.691 285.341 959.011C296.134 932.097 309.182 904.298 324.247 875.912C334.409 856.754 345.162 837.916 356.491 819.424C368.696 799.554 381.479 780.043 394.822 760.918C421.345 722.825 451.309 684.292 484.627 645.819C534.422 588.302 588.364 534.51 646.02 484.876C595.745 488.561 547.73 494.613 502.457 502.766Z"
    fill="#FABB66" />
  <path
    d="M1409.83 534.397C1399.28 525.085 1388.3 516.285 1376.9 508.028C1345.94 485.427 1310.56 465.335 1271.36 447.778C1227 427.918 1177.77 411.31 1124.68 397.954C1136.01 441.292 1145.16 487.195 1152.05 535.18C1182.52 544.673 1211.11 555.188 1237.52 566.64C1278.63 584.464 1314.5 604.484 1344.56 626.088C1401.64 667.119 1437.6 713.876 1447.03 762.472C1436.17 812.919 1400.92 859.807 1345.75 900.321C1361.02 940.515 1371.74 979.79 1377.57 1017.7C1393.54 1006.01 1408.39 993.68 1421.88 980.644C1482.88 921.73 1517.64 870.279 1517.64 763.101C1517.64 655.922 1478.28 595.228 1409.83 534.397M370.553 990.304C340.191 980.87 311.68 970.415 285.346 959.01C245.342 941.69 210.304 922.252 180.642 901.259C122.048 859.789 84.7196 812.213 73.8968 762.472C83.1828 712.452 120.82 664.372 180.856 622.499C166.318 583.681 155.846 545.736 149.787 509.125C137.722 517.732 126.078 526.916 114.898 536.645C44.8815 597.91 4.54492 657.186 4.54492 763.101C4.54492 869.016 34.3434 906.682 87.1762 962.885C105.202 982.05 125.994 999.94 149.117 1016.58C179.248 1038.27 213.467 1057.78 251.204 1075.01C295.226 1095.12 344.006 1112.14 396.619 1125.95C385.802 1083.09 377.092 1037.71 370.541 990.304M762.704 394.441C744.492 381.765 725.933 369.596 707.047 357.949C668.983 359.13 631.714 361.587 595.418 365.248C574.532 367.36 553.984 369.87 533.798 372.783C486.323 379.631 440.89 388.697 397.966 399.9C345.827 413.505 297.409 430.25 253.661 450.039C259.903 485.848 271.011 524.345 287.109 564.83C313.169 553.734 341.324 543.552 371.247 534.337C391.481 528.107 412.485 522.304 434.333 517.041C456.275 511.76 479.001 506.983 502.457 502.765C547.73 494.612 595.744 488.56 646.026 484.875C683.01 482.157 721.163 480.662 760.461 480.662C801.266 480.662 840.808 482.282 879.091 485.201C840.191 451.492 801.213 421.201 762.704 394.441ZM1237.84 960.648C1211.44 972.029 1182.87 982.412 1152.36 991.728C1131.12 998.2 1109.67 1003.98 1088.05 1009.05C1066.51 1014.13 1044.26 1018.74 1021.21 1022.78C975.453 1030.81 926.774 1036.69 875.68 1040.26C838.506 1042.86 800.103 1044.29 760.461 1044.29C722.083 1044.29 684.837 1042.88 648.743 1040.31C686.659 1073.15 724.492 1102.79 761.802 1128.96C781.253 1142.61 801.112 1155.66 821.352 1168.1C856.739 1166.95 891.427 1164.77 925.278 1161.58C946.546 1159.59 967.77 1157.15 988.934 1154.26C1036.85 1147.67 1082.71 1138.89 1125.98 1127.95C1178.54 1114.65 1227.27 1098.15 1271.25 1078.47C1265.39 1041.93 1254.24 1002.37 1237.84 960.654"
    fill="#276392" />
  <path
    d="M876.463 1199.74C857.769 1189.77 839.39 1179.22 821.352 1168.1C801.113 1155.66 781.254 1142.61 761.803 1128.97C724.492 1102.79 686.66 1073.15 648.744 1040.31C618.979 1014.53 590.147 987.691 562.303 959.847C535.332 932.872 509.353 904.922 484.419 876.053C488.009 927.355 493.907 976.236 501.982 1022.15C506.005 1045 510.586 1067.07 515.624 1088.43C542.371 1113.6 569.93 1137.89 598.255 1161.26C614.063 1174.32 630.137 1187.05 646.465 1199.45C684.589 1228.35 722.795 1254.28 760.723 1276.93C807.343 1304.79 853.524 1327.68 898.584 1344.93C920.194 1314.87 940.214 1279.01 958.038 1237.9C931.586 1227.33 904.322 1214.56 876.463 1199.74ZM1022.01 503.406C1017.89 480.369 1013.1 457.46 1007.64 434.706C981.881 410.568 955.338 387.284 928.05 364.892C911.408 351.231 894.465 337.941 877.235 325.03C838.399 295.973 799.433 269.99 760.746 247.359C714.31 220.207 668.289 197.885 623.419 181.016C602.426 210.672 582.988 245.721 565.674 285.714C592.197 296.353 619.586 309.193 647.551 323.98C667.126 334.328 686.968 345.584 707.047 357.944C725.442 369.265 744.014 381.464 762.704 394.441C801.213 421.202 840.191 451.493 879.092 485.201C936.516 534.949 990.23 588.825 1039.8 646.399C1036.12 596.326 1030.11 548.519 1022.01 503.406Z"
    fill="#57B6DF" />
</svg>