<svg viewBox="0 0 1888 1812" fill="none"
  xmlns="http://www.w3.org/2000/svg">
  <g clip-path="url(#clip0_66_114)">
    <path
      d="M67.7258 1383.28C48.2701 1414.96 26.2349 1452.09 8.84269 1481.49C5.0105 1488.04 2.57853 1495.34 1.47309 1502.85C0.42375 1510.4 0.823948 1518.08 2.65222 1525.47C4.42093 1532.91 7.66355 1539.84 12.0853 1546.03C16.5071 1552.22 22.108 1557.52 28.5195 1561.65L419.33 1802.5C426.036 1806.69 433.627 1809.49 441.512 1810.75C449.324 1812 457.43 1811.7 465.168 1809.79C472.907 1807.87 480.202 1804.48 486.614 1799.77C493.025 1795.05 498.405 1789.09 502.459 1782.23C518.23 1756.01 538.201 1722.04 559.647 1685.79C714.556 1431.83 871.528 1462.92 1151.94 1596.2L1539.58 1779.95C1546.84 1783.43 1554.72 1785.41 1562.76 1785.78C1570.8 1786.15 1578.84 1784.89 1586.38 1782.09C1593.9 1779.29 1600.82 1775.01 1606.65 1769.49C1612.54 1763.96 1617.18 1757.33 1620.43 1749.96L1806.51 1330.52C1809.68 1323.45 1811.45 1315.86 1811.67 1308.13C1811.96 1300.46 1810.71 1292.73 1808.06 1285.51C1805.4 1278.29 1801.42 1271.58 1796.27 1265.84C1791.11 1260.09 1784.92 1255.45 1777.92 1251.98C1696.19 1213.53 1533.54 1137.86 1387.77 1066.54C857.526 810.809 410.117 827.681 67.7258 1383.28Z"
      fill="url(#paint0_linear_66_114)" />
    <path
      d="M1820 429.828C1839.67 398.148 1861.71 361.088 1878.88 331.691C1882.79 324.987 1885.37 317.545 1886.47 309.809C1887.58 302.147 1887.13 294.264 1885.22 286.749C1883.26 279.215 1879.86 272.134 1875.2 265.898C1870.54 259.644 1864.71 254.362 1858.02 250.352L1467.8 9.50396C1461.02 5.3044 1453.51 2.50469 1445.62 1.25219C1437.74 -0.000310766 1429.7 0.368072 1421.96 2.20998C1414.23 4.12557 1406.93 7.51469 1400.52 12.23C1394.11 16.9453 1388.73 22.9131 1384.6 29.765C1369.2 55.9938 1348.86 89.9587 1327.41 126.208C1171.91 381.349 1016.42 350.258 735.707 216.977L348.435 33.1541C341.212 29.6913 333.401 27.6284 325.441 27.1863C317.482 26.6706 309.449 27.8494 301.932 30.5018C294.415 33.1541 287.488 37.28 281.592 42.6584C275.623 48.0368 270.906 54.5203 267.516 61.7406L81.4339 482.36C75.0387 496.627 74.431 512.818 79.7389 527.523C82.392 534.817 86.4453 541.522 91.604 547.269C96.7627 553.016 103.027 557.731 110.028 561.12C192.052 599.653 354.699 675.245 500.175 746.637C1029.02 1002.29 1477.83 985.497 1820 429.828Z"
      fill="url(#paint1_linear_66_114)" />
  </g>
  <defs>
    <linearGradient id="paint0_linear_66_114" x1="1793.98" y1="1927.21" x2="613.519" y2="1248.61"
      gradientUnits="userSpaceOnUse">
      <stop stop-color="#0052CC" />
      <stop offset="0.92" stop-color="#2380FB" />
      <stop offset="1" stop-color="#2684FF" />
    </linearGradient>
    <linearGradient id="paint1_linear_66_114" x1="93.6896" y1="-114.346" x2="1274.44" y2="564.256"
      gradientUnits="userSpaceOnUse">
      <stop stop-color="#0052CC" />
      <stop offset="0.92" stop-color="#2380FB" />
      <stop offset="1" stop-color="#2684FF" />
    </linearGradient>
    <clipPath id="clip0_66_114">
      <rect width="1888" height="1812" fill="white" />
    </clipPath>
  </defs>
</svg>