<svg width="2500" height="352" viewBox="0 0 512 72" xmlns="http://www.w3.org/2000/svg" preserveAspectRatio="xMidYMid"><g fill="#717172"><path d="M257.329 23.234c.312-6 2.463-10.904 5.825-14.73V3.408h-4.468c-9.032 0-16.677 3.462-21.122 11.282h-.26V4.268h-23.165v63.555h23.17V42.166c0-10.89 3.186-19.192 16.043-19.192 1.4.01 2.71.09 3.977.26zM432.749 23.002c1.924-5.617 5.045-10.62 9.102-14.634V3.403h-4.46c-9.035 0-16.672 3.46-21.14 11.277h-.25V4.268h-23.18v63.555h23.18V42.166c0-10.89 3.196-19.192 16.053-19.192l.695.028zM304.381 20.619c-3.574-1.858-8.549-3.097-12.506-3.097-2.658 0-7.25 1.106-7.25 4.336 0 4.34 7.25 4.955 10.455 5.589 10.8 2.1 18.97 7.06 18.97 18.814 0 16.72-15.664 23.68-30.828 23.68-9.301 0-18.45-2.605-26.357-7.315l8.403-15.745c4.705 3.234 12.601 6.444 18.332 6.444 2.931 0 7.258-1.357 7.258-4.827 0-4.956-7.258-5.216-14.526-7.07-7.248-1.858-14.497-5.319-14.497-16.719 0-15.613 14.497-22.54 28.787-22.54 7.385 0 14.776 1.11 21.51 4.085l-7.75 14.365zM511.335 67.823h-23.17v-7.07h-.255c-4.075 6.318-12.114 9.164-19.74 9.164-19.368 0-32.982-15.736-32.982-33.95 0-18.195 13.372-33.813 32.721-33.813 7.509 0 15.415 2.724 20.252 8.294v-6.18h23.165l.01 63.555zM459.13 36.104c0 8.048 5.484 14.243 14.894 14.243 9.42 0 14.88-6.185 14.88-14.243 0-7.806-5.46-14.37-14.88-14.37-9.41.006-14.894 6.564-14.894 14.37zM389.167 39.83h-48.783c0 9.16 4.979 14.11 14.525 14.11 4.965 0 8.526-1.603 11.079-5.82h22.29c-3.693 14.993-18.342 21.807-33.236 21.807-21.633 0-37.804-11.902-37.804-33.818 0-21.183 14.88-33.94 36.144-33.94 22.663 0 35.794 13.632 35.794 35.302l-.01 2.36zm-21.524-13.017c-1.15-6.071-6.88-10.034-13.112-10.034-6.757 0-12.337 3.457-13.76 10.034h26.872zM140.442 34.998a46.18 46.18 0 0 0-.104-1.627v-.019c-.52-5.896-2.468-11.414-5.773-16.398a35.853 35.853 0 0 0-5.05-6.052c-2.757-2.653-5.949-4.847-9.547-6.582-5.414-2.586-11.396-3.891-17.779-3.891-.624 0-1.277.009-1.934.033-4.482.203-8.818 1.054-12.894 2.553-4.11 1.485-7.689 3.447-10.616 5.802-.595.473-1.243 1.054-1.938 1.693l-.502.491-.685.728H73.629l-.321.317-.156.17-.818.861a57.116 57.116 0 0 0-1.721 2.029l-.005-.01-.02-.019c-1.12 1.362-2.155 2.771-2.917 4.038a69.432 69.432 0 0 0-1.503 2.487l-6.681 13.51.009.009-.35.686-.738 1.494c-1.465 2.965-3.035 5.92-4.79 8.36-3.91 4.288-8.33 6.388-14.014 6.388-.398 0-.804-.02-1.22-.043-3.424-.137-6.36-.945-8.965-2.487a16.85 16.85 0 0 1-.81-.51c-2.127-1.414-3.758-3.23-4.978-5.495-1.376-2.568-1.986-5.192-1.9-7.972.004-.076.009-.142.009-.204.184-4.425 1.872-7.868 5.272-10.842a18.27 18.27 0 0 1 2.596-1.858c.127-.076.255-.147.383-.213 2.525-1.376 5.4-2.061 8.695-2.061l1.026.028c5.235.199 9.273 1.835 12.493 5.026l10.1-18.133c-2.417-1.617-5.145-3.008-8.152-4.138-.114-.042-.232-.09-.35-.127-.36-.128-.714-.26-1.083-.379-3.196-1.068-6.549-1.725-10-2.023-.086-.015-.18-.024-.265-.033-.53-.034-1.069-.1-1.598-.123A53.118 53.118 0 0 0 39.13.424h-.327c-6.35.023-12.25 1.324-17.646 3.9-6.043 2.913-10.942 7.155-14.573 12.62C2.963 22.412.986 28.479.703 34.99a39.186 39.186 0 0 0-.038 1.655C.66 45.75 3.98 53.76 10.58 60.484c6.89 7.055 15.85 10.857 26.607 11.306.69.028 1.372.047 2.052.047 6.086 0 11.717-1.083 16.767-3.248 1.263-.54 2.488-1.173 3.74-1.877.682-.393 1.325-.809 1.963-1.253l.473-.317.794-.544a30.554 30.554 0 0 0 2.719-2.218l.303-.288a44.58 44.58 0 0 0 1.503-1.485l1.811-2.047.69-.866.322-.472.322-.464c2.69-4.52 11.447-20.97 11.447-20.97v-.033l.52-1.003.435-.785c1.291-2.35 2.223-4.019 3.457-5.773l.033-.052c2.88-4.175 7.83-7.15 13.665-7.65 9.788-.842 18.365 5.588 19.155 14.364.785 8.776-6.516 16.573-16.304 17.42-2.038.175-4.019.038-5.887-.374l-.047.02c-7.182-1.495-11.755-6.734-14.01-9.075l-9.42 17.32s2.928 2.951 4.933 4.426c2.01 1.47 4.605 2.918 6.676 3.816 5.026 2.147 10.492 3.433 16.53 3.433.7 0 .559 0 1.287-.028 10.747-.45 20.327-4.568 27.236-11.623 6.544-6.7 10.095-14.35 10.128-23.406v-.27a55.104 55.104 0 0 0-.038-1.517zM176.473 69.97c-4.885 0-9.315-.568-13.292-1.703-3.977-1.135-7.372-2.927-10.185-5.385-2.823-2.46-4.998-5.59-6.53-9.386-1.532-3.797-2.298-8.374-2.298-13.708V4.254h22.351v35.25c0 3.996.955 6.89 2.86 8.696 1.911 1.81 4.337 2.714 7.278 2.714 3.007 0 5.447-.842 7.33-2.53 1.872-1.688 2.817-4.487 2.817-8.421V4.253h22.351V39.32c0 5.523-.784 10.218-2.35 14.081-1.565 3.868-3.773 7.027-6.615 9.485-2.856 2.46-6.293 4.246-10.336 5.386-4.043 1.13-8.502 1.697-13.381 1.697z"/></g></svg>