<svg width="55" height="56" viewBox="0 0 55 56" fill="none" xmlns="http://www.w3.org/2000/svg">
  <g clip-path="url(#clip0_45_629)">
    <path
      d="M26.065 55.4916C16.4789 55.0103 7.71791 49.4737 3.24228 40.9464C-1.56334 32.1051 -1.04543 20.633 4.91978 12.406C10.8804 3.61054 21.7635 -1.05529 32.7269 1.07138C43.2296 3.03533 51.8646 11.3701 54.1723 21.4924C56.7435 31.4474 53.2029 42.5139 45.1775 49.0841C39.9319 53.5597 33.0431 55.8583 26.065 55.4939V55.4916ZM43.7223 37.0437C41.3045 35.5946 38.8822 34.1532 36.4554 32.7193C34.386 36.1178 29.8439 37.871 25.9825 36.5349C21.3442 35.0705 18.2046 29.6897 20.2808 24.7695C22.1164 20.1655 26.6746 18.566 30.2656 19.1228C32.6856 19.5797 34.8376 20.949 36.2767 22.9476C38.7448 21.5016 41.1533 20.1564 43.5481 18.6966C38.896 11.5512 29.4521 8.85617 21.4198 12.3853C14.2469 15.6464 10.2135 23.1103 11.3639 30.533C12.6014 38.7785 19.9119 45.3968 29.0464 45.2089C31.98 45.1818 34.86 44.4204 37.4236 42.9941C39.9871 41.5678 42.1526 39.5221 43.7223 37.0437Z"
      fill="white" />
  </g>
  <defs>
    <clipPath id="clip0_45_629">
      <rect width="55" height="55" fill="white" transform="translate(0 0.544189)" />
    </clipPath>
  </defs>
</svg>