<svg viewBox="0 0 670 670" fill="none" xmlns="http://www.w3.org/2000/svg">
  <path
    d="M334.572 368.615C408.654 368.615 468.605 308.664 468.605 234.582C468.605 160.5 408.654 100.549 334.572 100.549C260.49 100.549 200.539 160.5 200.539 234.582C200.967 308.664 260.918 368.615 334.572 368.615Z"
    fill="#FFCD00" />
  <path
    d="M335.428 435.417H335C243.361 435.417 163.284 373.325 140.588 284.255C133.736 257.706 111.897 235.01 84.4909 235.01H0.55957C0.55957 419.573 150.437 569.45 335 569.45H335.428V435.417Z"
    fill="#00ECBB" />
  <path
    d="M334.572 435.417C426.64 435.417 506.717 373.325 529.413 284.255C536.264 257.706 558.104 235.01 585.51 235.01H669.441C669.441 419.573 519.564 569.45 335 569.45H334.572V435.417Z"
    fill="#AF64FF" />
  <path
    d="M571.806 471.389C441.199 601.996 229.229 601.996 98.6221 471.389L193.259 376.752C271.623 455.116 398.805 455.116 477.169 376.752L571.806 471.389Z"
    fill="#7131FF" />
</svg>