<svg xmlns="http://www.w3.org/2000/svg" width="2500" height="500" viewBox="-0.001 0 141.732 28.346"><path fill="none" d="M-.001 0h141.732v28.346H-.001z"/><path d="M37.515 7.947v13.021h1.66V7.947h-1.66m-.593-3.938c0 .355.144.664.428.948.309.262.641.403.996.403.38 0 .712-.142 1.021-.403.261-.261.403-.593.403-.948 0-.403-.144-.735-.403-.996a1.41 1.41 0 0 0-1.021-.403c-.404 0-.735.142-.996.403a1.288 1.288 0 0 0-.428.996zm5.455-1.067v18.026h1.661V2.942h-1.661zm-12.382 5.36a6.305 6.305 0 0 0-2.917-.688c-1.874 0-3.438.664-4.744 2.016-1.305 1.305-1.969 2.918-1.969 4.815s.641 3.511 1.945 4.863c1.305 1.327 2.894 1.991 4.744 1.991 1.02 0 1.969-.213 2.846-.641a6.949 6.949 0 0 0 2.372-1.921v2.229h1.66V7.947h-1.66v2.396c-.64-.902-1.399-1.59-2.277-2.041zm-5.337 1.614c.783-.451 1.637-.664 2.562-.664 1.471 0 2.68.498 3.651 1.518.974 1.021 1.472 2.277 1.472 3.771 0 .996-.215 1.897-.664 2.68a4.849 4.849 0 0 1-1.874 1.852c-.83.475-1.685.712-2.609.712a4.826 4.826 0 0 1-2.538-.712 5.33 5.33 0 0 1-1.896-1.945c-.45-.854-.688-1.729-.688-2.656 0-.901.237-1.778.688-2.607.498-.882 1.137-1.523 1.896-1.949zM5.991 5.124c2.49 0 4.316.166 5.432.475 1.472.451 2.609 1.281 3.439 2.491.807 1.209 1.21 2.656 1.21 4.34 0 1.637-.38 3.012-1.139 4.104-.735 1.115-1.779 1.896-3.107 2.324-.949.309-2.633.451-5.053.451h-2.04V5.124h1.258zM3.026 3.369v17.6h5.598c2.206 0 3.938-.309 5.147-.948 1.209-.641 2.182-1.637 2.965-2.965.759-1.353 1.139-2.918 1.139-4.673 0-2.04-.475-3.796-1.446-5.266-.974-1.471-2.302-2.515-4.01-3.107-1.162-.427-3.083-.641-5.739-.641H3.026zm134.611 5.313c-.735-.712-1.661-1.067-2.775-1.067-1.328 0-2.609.545-3.819 1.637l.166-1.305h-3.153l-1.755 13.021h3.153l.617-4.602c.236-1.779.497-3.012.806-3.7.31-.664.712-1.186 1.233-1.565.569-.355 1.115-.545 1.613-.545.546 0 .973.142 1.279.427.31.284.451.688.451 1.209l-.143 1.661-.948 7.115h3.178l.975-7.305.188-2.277c.001-1.092-.355-1.993-1.066-2.704zm-17.245 3.083c.594.593.878 1.329.878 2.254 0 1.162-.332 2.158-1.021 3.035-.688.879-1.685 1.307-2.988 1.307-.926 0-1.66-.285-2.206-.854-.545-.593-.808-1.352-.808-2.276 0-1.067.333-2.04.997-2.965.711-.925 1.685-1.375 2.917-1.375.926-.003 1.686.281 2.231.874zm-13.995-3.818l-1.779 13.021h3.202l1.756-13.021h-3.179zm6.286 2.751c-1.043 1.305-1.565 2.847-1.565 4.625 0 1.779.522 3.227 1.59 4.316 1.091 1.067 2.538 1.613 4.341 1.613 2.11 0 3.844-.688 5.242-2.062 1.399-1.399 2.11-3.084 2.11-5.054a6.959 6.959 0 0 0-.759-3.226c-.545-.973-1.257-1.708-2.158-2.206-.926-.521-1.945-.782-3.084-.782l-7.732.023-.427 2.751 2.442.002zm-2.704-7.472a2.007 2.007 0 0 0-1.423-.569c-.545 0-.996.19-1.376.569-.402.403-.594.854-.594 1.399 0 .546.19.996.594 1.376a1.8 1.8 0 0 0 1.376.593c.546 0 1.021-.188 1.423-.593.38-.38.569-.83.569-1.376.001-.544-.19-.996-.569-1.399zm-7.353 4.721l.642-4.839h-3.18l-.664 4.839H97.86l-.38 2.775h1.59l-1.4 10.246h3.18l1.376-10.246h2.017l.379-2.775h-1.996zm-10.793 3.818c.569.569.854 1.329.854 2.254 0 1.138-.332 2.158-.995 3.035-.664.879-1.661 1.307-2.966 1.307-.925 0-1.66-.285-2.206-.854-.545-.569-.83-1.328-.83-2.276 0-1.067.332-2.04.996-2.965.688-.925 1.661-1.375 2.918-1.375.901-.003 1.636.281 2.229.874zm-1.991-3.842c-1.922 0-3.63.711-5.123 2.11-1.447 1.399-2.184 3.179-2.184 5.289 0 1.778.545 3.227 1.637 4.317 1.067 1.066 2.49 1.612 4.317 1.612 2.087 0 3.842-.688 5.241-2.063 1.399-1.398 2.111-3.084 2.111-5.053 0-1.186-.262-2.253-.783-3.226l-.118-.189h1.564l.332-2.774h-6.569l-.425-.023zm-21.254 4.483l-.117 1.471-.974 7.092h3.202l.664-4.934c.166-1.542.403-2.633.711-3.32.31-.664.735-1.186 1.281-1.565.568-.403 1.115-.593 1.66-.593.546 0 .973.166 1.28.474.309.309.475.807.475 1.447l-.189 1.803-.9 6.688h3.179l1.044-7.779.118-1.637c0-1.163-.355-2.111-1.067-2.847-.712-.736-1.611-1.091-2.728-1.091-.83 0-1.66.188-2.49.593-.831.403-1.519.996-2.111 1.755-.213-.545-.475-.973-.807-1.28-.284-.309-.688-.569-1.21-.759a4.432 4.432 0 0 0-1.636-.309c-1.425 0-2.704.593-3.867 1.755l.166-1.423h-3.154L59.36 20.968h3.155l.734-5.621c.166-1.257.403-2.183.712-2.823.309-.593.711-1.091 1.258-1.446.593-.355 1.114-.521 1.589-.521.521 0 .948.166 1.305.498.309.331.475.781.475 1.351zM56.752 7.947l-4.389 10.01-4.459-10.01h-1.756l5.337 12.002-2.514 5.788h1.755l7.779-17.79h-1.753z" fill="#354d76"/></svg>