<svg viewBox="0 0 1624 1743" fill="none"
  xmlns="http://www.w3.org/2000/svg">
  <g clip-path="url(#clip0_66_117)">
    <path
      d="M1359.97 1233.67L1215.44 1138.33L1094.88 1339.73L954.65 1298.73L831.182 1487.19L837.511 1546.51L1508.82 1422.81L1469.82 1003.35L1359.97 1233.67ZM733.925 1052.82L841.63 1038.01C859.056 1045.84 871.188 1048.82 892.084 1054.13C924.625 1062.61 962.298 1070.75 1018.09 1042.63C1031.07 1036.2 1058.11 1011.47 1069.05 997.368L1510.34 917.31L1555.36 1462.17L799.351 1598.43L733.925 1052.82ZM1553.65 856.486L1510.09 864.784L1426.41 0.138672L0.5 165.488L176.167 1591.1L343.07 1566.88C329.742 1547.85 308.988 1524.82 273.546 1495.34C224.39 1454.5 241.776 1385.14 270.767 1341.34C309.13 1267.32 506.789 1173.27 495.59 1054.97C491.573 1011.96 484.736 955.96 444.811 917.594C443.31 933.521 446.008 948.859 446.008 948.859C446.008 948.859 429.616 927.941 421.44 899.416C413.325 888.481 406.955 884.991 398.333 870.384C392.186 887.284 392.997 906.882 392.997 906.882C392.997 906.882 379.587 875.192 377.417 848.452C369.464 860.422 367.456 883.165 367.456 883.165C367.456 883.165 350.029 833.216 354.005 806.313C346.053 782.901 322.479 736.441 329.153 630.84C372.67 661.333 468.466 654.09 505.794 599.069C518.19 580.85 526.67 531.103 499.607 433.09C482.221 370.237 439.171 276.647 422.394 241.143L420.385 242.583C429.23 271.19 447.469 331.162 454.468 360.235C475.648 448.428 481.328 479.124 471.387 519.782C462.928 555.124 442.64 578.253 391.212 604.1C339.784 630.029 271.538 566.932 267.216 563.442C217.249 523.637 178.602 458.694 174.281 427.146C169.797 392.615 194.182 371.881 206.476 343.639C188.887 348.671 169.27 357.598 169.27 357.598C169.27 357.598 192.681 333.373 221.55 312.416C233.499 304.503 240.518 299.472 253.117 289.003C234.879 288.699 220.069 289.226 220.069 289.226C220.069 289.226 250.479 272.793 282.006 260.823C258.939 259.808 236.867 260.66 236.867 260.66C236.867 260.66 304.728 230.309 358.326 208.033C395.188 192.918 431.198 197.381 451.425 226.637C477.981 264.961 505.876 285.777 564.993 298.681C601.287 282.592 612.323 274.314 657.929 261.898C698.077 217.751 729.603 212.029 729.603 212.029C729.603 212.029 713.962 226.373 709.783 248.913C732.545 230.979 757.498 216.006 757.498 216.006C757.498 216.006 747.842 227.935 738.834 246.885L740.924 249.989C767.48 234.062 798.702 221.504 798.702 221.504C798.702 221.504 789.775 232.784 779.307 247.392C799.331 247.229 839.946 248.244 855.709 250.029C948.767 252.078 968.08 150.637 1003.79 137.916C1048.5 121.949 1068.48 112.292 1144.68 187.136C1210.07 251.389 1261.15 366.403 1235.79 392.169C1214.53 413.553 1172.58 383.83 1126.08 325.867C1101.51 295.171 1082.93 258.895 1074.22 212.78C1066.88 173.867 1038.29 151.286 1038.29 151.286C1038.29 151.286 1054.89 188.17 1054.89 220.753C1054.89 238.546 1057.12 305.071 1085.64 342.402C1082.82 347.859 1081.51 369.405 1078.38 373.524C1045.19 333.414 973.923 304.706 962.298 296.246C1001.64 328.484 1092.06 402.536 1126.79 473.505C1159.63 540.618 1140.28 602.132 1156.89 618.058C1161.62 622.623 1227.53 704.75 1240.21 746.017C1262.33 817.938 1241.53 893.512 1212.58 940.398L1131.74 952.997C1119.91 949.711 1111.94 948.067 1101.33 941.92C1107.17 931.573 1118.79 905.766 1118.92 900.451L1114.35 892.437C1089.19 928.083 1047.04 962.695 1012.02 982.578C966.193 1008.55 913.365 1004.55 878.978 993.899C781.376 963.791 689.09 897.834 666.835 880.507C666.835 880.507 666.145 894.344 670.344 897.448C694.953 925.202 751.331 975.416 805.823 1010.41L689.658 1023.19L744.575 1450.83C720.231 1454.32 716.437 1456.02 689.78 1459.82C666.287 1376.82 621.351 1322.63 572.235 1291.06C528.922 1263.23 469.176 1256.96 411.986 1268.28L408.314 1272.54C448.077 1268.4 495.022 1274.16 543.245 1304.69C590.575 1334.62 628.715 1411.92 642.754 1458.46C660.728 1517.94 673.164 1581.57 624.779 1649.01C590.352 1696.95 489.849 1723.44 408.659 1666.13C430.346 1701.01 459.661 1729.53 499.12 1734.91C557.71 1742.86 613.317 1732.7 651.599 1693.4C684.282 1659.8 701.607 1589.54 697.042 1515.55L748.755 1508.04L767.419 1640.85L1623.5 1537.77L1553.65 856.486ZM1032.82 495.822C1030.42 501.279 1026.67 504.85 1032.31 522.602L1032.65 523.617L1033.55 525.909L1035.9 531.225C1046.06 552 1057.22 571.598 1075.87 581.6C1080.69 580.789 1085.69 580.241 1090.86 579.977C1108.37 579.206 1119.42 581.986 1126.44 585.76C1127.07 582.27 1127.21 577.157 1126.83 569.63C1125.47 543.316 1132.04 498.561 1081.47 475.006C1062.37 466.14 1035.6 468.879 1026.67 479.936C1028.29 480.139 1029.75 480.484 1030.89 480.869C1044.38 485.596 1035.23 490.242 1032.82 495.822ZM1174.56 741.35C1167.93 737.698 1136.93 739.139 1115.14 741.736C1073.63 746.625 1028.82 761.03 1019 768.699C1001.15 782.495 1009.26 806.557 1022.45 816.437C1059.43 844.07 1091.85 862.593 1126.08 858.089C1147.09 855.33 1165.62 822.057 1178.74 791.868C1187.73 771.073 1187.73 748.634 1174.56 741.35ZM807.08 528.405C818.786 517.287 748.775 502.679 694.446 539.725C654.378 567.054 653.1 625.646 691.463 658.858C695.298 662.145 698.462 664.478 701.424 666.385C712.623 661.11 725.384 655.774 740.072 651.007C764.883 642.952 785.515 638.793 802.475 636.582C810.59 627.513 820.024 611.546 817.67 582.635C814.465 543.418 784.744 549.646 807.08 528.405Z"
      fill="#632CA6" />
  </g>
  <defs>
    <clipPath id="clip0_66_117">
      <rect width="1623" height="1743" fill="white" transform="translate(0.5)" />
    </clipPath>
  </defs>
</svg>