<svg xmlns="http://www.w3.org/2000/svg" width="2500" height="2500" viewBox="10.246 10.255 235.508 235.489"><g transform="translate(-373.642 -318.344)"><path d="M583.658 328.849H419.626c-19.6 0-35.488 15.888-35.488 35.487v164.015c0 19.599 15.888 35.486 35.488 35.486h164.032c19.6 0 35.488-15.888 35.488-35.486V364.337c0-19.599-15.889-35.488-35.488-35.488z" fill="#8da88d" stroke="#000" stroke-width=".5" stroke-linecap="square" stroke-dasharray=".5,1"/><linearGradient id="a" gradientUnits="userSpaceOnUse" x1="-1854.896" y1="1320.426" x2="-1906.593" y2="1169.736" gradientTransform="rotate(180 -326.61 537.647) scale(.5915)"><stop offset="0" stop-color="#fff"/><stop offset="1" stop-color="#fff" stop-opacity="0"/></linearGradient><path d="M557.056 338.895H446.227c-29.337 0-52.955 23.81-52.955 53.385v108.127c.95 23.086 4.603 8.491 11.555-17.075 8.081-29.713 34.396-55.682 66.445-75.145 24.461-14.855 51.84-24.341 101.68-25.244 28.264-.511 25.77-36.683-15.896-44.048z" opacity=".554" fill="url(#a)"/><path d="M506.031 429.221l-.357 47.165 96.428-.021c.928-47.183-41.023-68.547-106.964-67.5v9.464c29.237-.756 65.843.328 75.894 42.679l-43.215-.356v-29.644c-7.739-2.26-14.406-2.299-21.786-1.787z" fill="#fff" stroke="#000"/><path d="M472.045 391.65h23.233v84.853l-97.271.062c.85-23.652 13.661-56.823 74.037-64.712l.296 9.092c-27.447 4.044-36.979 20.272-41.712 40.405h42.427l-1.01-69.7z" fill="#fff" stroke="#000"/></g></svg>