<svg viewBox="0 0 256 164" xmlns="http://www.w3.org/2000/svg" width="2500" height="1602"><defs><radialGradient cx="17.997%" cy="25.996%" r="65.368%" id="a"><stop stop-color="#5fb0e2" offset="0%"/><stop stop-color="#45a1d7" offset="9.123%"/><stop stop-color="#2c93cd" offset="20.8%"/><stop stop-color="#1888c4" offset="33.83%"/><stop stop-color="#0b80be" offset="48.76%"/><stop stop-color="#027bbb" offset="67.24%"/><stop stop-color="#007aba" offset="100%"/></radialGradient></defs><path d="M42.8 100.2c34-21.9 72.6-6.1 91.9 4.4C108 94 69 91.6 42.8 100.2" fill="#5fb0e2"/><path d="M71.6 0C88 0 102 9.6 108.3 23.5H95.5c-5.6-7-14.3-11.4-24.1-11.4-9.6 0-18.1 4.3-23.8 11.1.3-.2.6-.5.9-.7 13.4-9.5 31.2 1 31.2 1s-16.9-4.9-28.4 3.1-9.6 24.1-9.6 24.1-.1-.2-.2-.6c0 .2.1.4.1.6-2.7-2-6.1-3.3-9.7-3.7-.4-2.3-.7-4.7-.7-7.2C31.3 17.8 49.3 0 71.6 0M20.1 90.9v-3.4c10.6-7.9 30.2-18.1 53.8-10.7 35.8 11.2 58.5 26.5 86.2 19.6 27.6-6.9 30.1-22 30.1-22s-4.9 21.3-32.1 26c-27.2 4.7-52.3-.6-84.3-12.5-21.6-8-42.4-1.8-53.7 3m0-6.9c2-1.3 4-2.6 5.8-3.6-.9-.6-1.7-1.2-2.5-2-1.4-1.4-2.5-3-3.3-4.6v7.4l.2.2c.4.3.7.6 1.1.9-.5-.2-.9-.4-1.3-.7V84m0-34.5V36.9c2.6-.9 5.4-1.4 8.2-1.6-.1 1.4-.2 2.9-.2 4.4 0 2.5.2 4.9.6 7.3-3.1.2-6 1.1-8.6 2.5m0-12.6v12.6c-5.6 3.2-9.4 9.2-9.4 16.1 0 6.9 3.8 12.9 9.4 16.1V84c-2.3 1.5-4.5 3.2-6.3 4.6C5.7 83.4.4 74.5.4 64.3c0-12.7 8.2-23.5 19.7-27.4m0 37c-3.6-6.9-2.4-14.8-2.4-14.8s-6 13.9 2.4 22.2v-7.4m0 13.5c-5.5 4.1-8.6 7.5-8.6 7.5 0 .1 3.2-1.8 8.6-4.1v-3.4" fill="url(#a)" transform="translate(31)"/><g fill="#5fb0e2"><path d="M141.1 82s17.1 8.7 33.1 7.3c16.1-1.4 20.9-7.1 20.9-7.1s-5.9 10.9-21.3 11.5c-15.4.6-32.7-11.3-32.7-11.7M128 26.8h14.4v14.4H128z"/></g><path fill="#0088cf" d="M185 66.5h11.1v11.1H185z"/><path fill="#5fb0e2" d="M145.3 13.6h19.1v19.1h-19.1z"/><path fill="#0088cf" d="M200.9 46.7H220v19.1h-19.1z"/><g fill="#5fb0e2"><path d="M166.3 34.2H177v10.7h-10.7zM173.4 55.2h10.7v10.7h-10.7z"/></g><g fill="#0088cf"><path d="M150.9 56.3h10.7V67h-10.7zM188.4 34.6h10.7v10.7h-10.7z"/></g><g fill="#0a8ccc"><path d="M31.5 137.3c0 2.6-.4 5-1.3 7.2s-2.1 4.1-3.7 5.6c-1.6 1.6-3.5 2.8-5.7 3.7-2.2.9-4.7 1.3-7.3 1.3H0v-35.5h13.6c2.7 0 5.1.4 7.3 1.3s4.1 2.1 5.7 3.7c1.6 1.6 2.8 3.4 3.7 5.6.8 2.2 1.2 4.5 1.2 7.1m-6.7 0c0-1.9-.3-3.7-.8-5.2s-1.3-2.9-2.2-3.9c-1-1.1-2.1-1.9-3.5-2.5-1.4-.6-2.9-.9-4.7-.9H6.7v25h6.9c1.7 0 3.3-.3 4.7-.9 1.4-.6 2.6-1.4 3.5-2.5 1-1.1 1.7-2.4 2.2-3.9.5-1.5.8-3.2.8-5.2M41.3 122.6c0 .5-.1 1-.3 1.5-.2.5-.5.9-.8 1.2-.4.3-.8.6-1.2.8-.5.2-1 .3-1.5.3s-1-.1-1.5-.3c-.5-.2-.9-.5-1.2-.8-.3-.3-.6-.7-.8-1.2-.2-.5-.3-.9-.3-1.5 0-.5.1-1 .3-1.5.2-.5.5-.9.8-1.2.3-.3.7-.6 1.2-.8.5-.2 1-.3 1.5-.3s1 .1 1.5.3c.5.2.9.5 1.2.8.4.3.6.8.8 1.2.2.4.3.9.3 1.5m-.9 7.3v25.2h-6.1v-25.2h6.1M53.5 129.5c1.1 0 2.1.1 3 .3.9.2 1.8.5 2.6 1h7.2v2.3c0 .4-.1.7-.3.9-.2.2-.5.4-1 .4l-2.3.4c.2.4.3.9.4 1.3.1.5.1 1 .1 1.5 0 1.2-.2 2.4-.7 3.4-.5 1-1.2 1.9-2.1 2.6-.9.7-1.9 1.2-3.1 1.6-1.2.4-2.5.6-3.9.6-.9 0-1.9-.1-2.8-.3-.8.5-1.2 1-1.2 1.6 0 .5.2.9.7 1.1.5.2 1.1.4 1.8.5.8.1 1.6.1 2.6.1s2 0 3 .1 2 .2 3 .4 1.8.5 2.6 1c.8.4 1.4 1 1.8 1.8.5.8.7 1.7.7 2.9 0 1.1-.3 2.2-.8 3.3-.5 1.1-1.3 2-2.4 2.8-1 .8-2.3 1.5-3.8 2s-3.2.8-5.2.8c-1.9 0-3.6-.2-5-.6-1.4-.4-2.6-.9-3.5-1.5-.9-.6-1.6-1.3-2.1-2.1s-.7-1.6-.7-2.5c0-1.2.4-2.2 1.1-3 .7-.8 1.7-1.4 3-1.9-.6-.3-1.1-.8-1.5-1.4-.4-.6-.6-1.3-.6-2.2 0-.4.1-.8.2-1.2.1-.4.3-.8.6-1.2.3-.4.6-.8 1-1.1.4-.4.9-.7 1.4-.9-1.3-.7-2.3-1.6-3-2.8-.7-1.1-1.1-2.5-1.1-4 0-1.2.2-2.4.7-3.4.5-1 1.2-1.9 2.1-2.6.9-.7 1.9-1.3 3.2-1.6 1.5-.2 2.8-.4 4.3-.4m6.6 26.7c0-.5-.1-.9-.4-1.2-.3-.3-.7-.6-1.2-.7-.5-.2-1.1-.3-1.8-.4-.7-.1-1.4-.1-2.2-.1h-2.4c-.8 0-1.6-.1-2.3-.3-.7.4-1.2.8-1.7 1.3-.4.5-.6 1.1-.6 1.8 0 .4.1.9.3 1.2.2.4.6.7 1.1 1 .5.3 1.1.5 1.9.7.8.2 1.7.2 2.8.2 1.1 0 2.1-.1 2.9-.3.8-.2 1.5-.4 2-.7.5-.3.9-.7 1.2-1.1.3-.5.4-.9.4-1.4m-6.6-14.3c.8 0 1.4-.1 2-.3.6-.2 1-.5 1.4-.8.4-.4.6-.8.8-1.3.2-.5.3-1.1.3-1.7 0-1.2-.4-2.2-1.1-3-.7-.7-1.9-1.1-3.4-1.1s-2.6.4-3.4 1.1c-.7.7-1.1 1.7-1.1 3 0 .6.1 1.1.3 1.6.2.5.5.9.8 1.3.4.4.8.7 1.4.9.6.2 1.2.3 2 .3M75.1 122.6c0 .5-.1 1-.3 1.5-.2.5-.5.9-.8 1.2-.4.3-.8.6-1.2.8-.5.2-1 .3-1.5.3s-1-.1-1.5-.3c-.5-.2-.9-.5-1.2-.8-.3-.3-.6-.7-.8-1.2-.2-.5-.3-.9-.3-1.5 0-.5.1-1 .3-1.5.2-.5.5-.9.8-1.2.3-.3.7-.6 1.2-.8.5-.2 1-.3 1.5-.3s1 .1 1.5.3c.5.2.9.5 1.2.8.4.3.6.8.8 1.2.2.4.3.9.3 1.5m-.9 7.3v25.2h-6.1v-25.2h6.1M86.8 155.5c-2.2 0-3.9-.6-5-1.9-1.2-1.2-1.8-2.9-1.8-5.1v-14.1h-2.6c-.3 0-.6-.1-.8-.3-.2-.2-.4-.5-.4-1v-2.4l4.1-.7 1.3-6.9c.1-.3.2-.6.5-.8.2-.2.5-.3.9-.3h3.1v7.9h6.6v4.3h-6.6v13.7c0 .8.2 1.4.6 1.8.4.4.9.7 1.6.7.4 0 .7 0 .9-.1.3-.1.5-.2.7-.3.2-.1.4-.2.5-.3.1-.1.3-.1.4-.1.2 0 .3 0 .4.1l.4.4 1.8 2.9c-.9.7-1.9 1.3-3 1.7-1.1.6-2.3.8-3.6.8M114.9 155.1h-2.7c-.6 0-1-.1-1.4-.3-.3-.2-.6-.5-.7-1l-.5-1.8c-.6.6-1.3 1.1-1.9 1.5-.6.4-1.2.8-1.9 1.1-.7.3-1.4.5-2.1.7-.7.1-1.6.2-2.5.2-1.1 0-2-.1-2.9-.4-.9-.3-1.7-.7-2.3-1.3-.6-.6-1.2-1.3-1.5-2.1-.4-.9-.5-1.8-.5-3 0-1 .2-1.9.7-2.8.5-.9 1.3-1.8 2.5-2.5s2.7-1.4 4.6-1.9c1.9-.5 4.3-.7 7.2-.7v-1.5c0-1.7-.4-3-1.1-3.8-.7-.8-1.7-1.2-3.1-1.2-1 0-1.8.1-2.5.3-.7.2-1.2.5-1.7.8-.5.3-.9.5-1.3.8-.4.2-.9.3-1.4.3-.4 0-.8-.1-1.1-.3-.3-.2-.5-.5-.7-.8l-1.1-1.9c2.9-2.7 6.4-4 10.5-4 1.5 0 2.8.2 3.9.7 1.2.5 2.1 1.2 2.9 2 .8.9 1.4 1.9 1.8 3.1.4 1.2.6 2.5.6 3.9v15.9h.2m-11.8-3.8c.6 0 1.2-.1 1.7-.2s1-.3 1.5-.5.9-.5 1.4-.8c.4-.3.9-.7 1.3-1.2v-4.2c-1.8 0-3.2.1-4.4.3-1.2.2-2.1.5-2.9.9-.7.3-1.2.8-1.5 1.2-.3.5-.5 1-.5 1.5 0 1.1.3 1.8.9 2.3.6.5 1.5.7 2.5.7M124.8 118.6v36.5h-6.1v-36.5h6.1M163.6 137.3c0 2.6-.4 5-1.3 7.2s-2.1 4.1-3.7 5.8c-1.6 1.6-3.5 2.9-5.7 3.8-2.2.9-4.7 1.4-7.3 1.4-2.6 0-5.1-.5-7.4-1.4-2.2-.9-4.1-2.2-5.7-3.8-1.6-1.6-2.8-3.5-3.7-5.8-.9-2.2-1.3-4.6-1.3-7.2 0-2.6.4-5 1.3-7.2s2.1-4.1 3.7-5.8c1.6-1.6 3.5-2.9 5.7-3.8 2.2-.9 4.7-1.4 7.4-1.4s5.1.5 7.3 1.4c2.2.9 4.1 2.2 5.7 3.8 1.6 1.6 2.8 3.5 3.7 5.7.9 2.3 1.3 4.7 1.3 7.3m-6.7 0c0-1.9-.3-3.7-.8-5.2s-1.3-2.9-2.2-3.9c-1-1.1-2.1-1.9-3.5-2.5-1.4-.6-2.9-.9-4.7-.9-1.8 0-3.3.3-4.7.9-1.4.6-2.6 1.4-3.5 2.5-1 1.1-1.7 2.4-2.2 3.9-.5 1.5-.8 3.3-.8 5.2 0 1.9.3 3.7.8 5.2s1.3 2.9 2.2 3.9c1 1.1 2.2 1.9 3.5 2.5 1.4.6 3 .9 4.7.9 1.7 0 3.3-.3 4.7-.9 1.4-.6 2.6-1.4 3.5-2.5 1-1.1 1.7-2.4 2.2-3.9.5-1.5.8-3.2.8-5.2M183.7 135.2l-.5.5c-.2.1-.4.2-.7.2-.3 0-.6-.1-.9-.3-.3-.2-.6-.4-1.1-.6-.4-.2-.9-.5-1.5-.6-.6-.2-1.3-.3-2.1-.3-1.1 0-2 .2-2.8.6-.8.4-1.5.9-2 1.7-.5.7-.9 1.6-1.2 2.6-.3 1-.4 2.2-.4 3.5 0 1.3.1 2.5.4 3.6.3 1 .7 1.9 1.2 2.6.5.7 1.2 1.3 2 1.6.8.4 1.6.6 2.6.6s1.7-.1 2.3-.4c.6-.2 1.1-.5 1.5-.8.4-.3.8-.5 1.1-.8.3-.2.6-.4 1-.4.5 0 .9.2 1.1.6l1.7 2.2c-.7.8-1.4 1.4-2.2 2-.8.5-1.6 1-2.4 1.3-.8.3-1.7.5-2.6.7-.9.1-1.8.2-2.7.2-1.6 0-3-.3-4.4-.9-1.4-.6-2.6-1.4-3.6-2.5s-1.8-2.5-2.4-4.1c-.6-1.6-.9-3.4-.9-5.5 0-1.8.3-3.6.8-5.1.5-1.6 1.3-2.9 2.3-4.1 1-1.2 2.3-2.1 3.8-2.7 1.5-.7 3.3-1 5.3-1 1.9 0 3.5.3 4.9.9 1.4.6 2.7 1.5 3.8 2.6l-1.4 2.1M197.4 129.5c1.6 0 3 .3 4.4.8 1.3.5 2.5 1.2 3.5 2.2 1 1 1.7 2.2 2.3 3.6.5 1.4.8 3 .8 4.8 0 .5 0 .8-.1 1.1 0 .3-.1.5-.2.7-.1.2-.2.3-.4.4-.2.1-.4.1-.7.1h-15.6c.2 2.6.9 4.5 2.1 5.7 1.2 1.2 2.8 1.8 4.8 1.8 1 0 1.8-.1 2.5-.3.7-.2 1.3-.5 1.9-.8.5-.3 1-.5 1.4-.8.4-.2.8-.3 1.2-.3.2 0 .5 0 .6.1.2.1.3.2.5.4l1.8 2.2c-.7.8-1.4 1.4-2.3 2-.8.5-1.7 1-2.6 1.3-.9.3-1.8.5-2.8.7-.9.1-1.9.2-2.7.2-1.8 0-3.4-.3-4.9-.9-1.5-.6-2.8-1.4-3.9-2.6-1.1-1.1-2-2.5-2.6-4.2-.6-1.7-1-3.6-1-5.8 0-1.7.3-3.3.8-4.8.6-1.5 1.4-2.8 2.4-4 1-1.1 2.3-2 3.8-2.7 1.4-.6 3.1-.9 5-.9m.1 4.4c-1.8 0-3.2.5-4.1 1.5-1 1-1.6 2.4-1.9 4.2h11.4c0-.8-.1-1.5-.3-2.2-.2-.7-.5-1.3-1-1.8-.4-.5-1-.9-1.7-1.2-.7-.4-1.5-.5-2.4-.5M230.5 155.1h-2.7c-.6 0-1-.1-1.4-.3-.3-.2-.6-.5-.7-1l-.5-1.8c-.6.6-1.3 1.1-1.9 1.5-.6.4-1.2.8-1.9 1.1-.7.3-1.4.5-2.1.7-.7.1-1.6.2-2.5.2-1.1 0-2-.1-2.9-.4-.9-.3-1.7-.7-2.3-1.3-.6-.6-1.2-1.3-1.5-2.1-.4-.9-.5-1.8-.5-3 0-1 .2-1.9.7-2.8.5-.9 1.3-1.8 2.5-2.5s2.7-1.4 4.6-1.9c1.9-.5 4.3-.7 7.2-.7v-1.5c0-1.7-.4-3-1.1-3.8-.7-.8-1.7-1.2-3.1-1.2-1 0-1.8.1-2.5.3-.7.2-1.2.5-1.7.8-.5.3-.9.5-1.3.8-.4.2-.9.3-1.3.3s-.8-.1-1.1-.3c-.3-.2-.5-.5-.7-.8l-1.1-1.9c2.9-2.7 6.4-4 10.5-4 1.5 0 2.8.2 3.9.7 1.2.5 2.1 1.2 2.9 2 .8.9 1.4 1.9 1.8 3.1.4 1.2.6 2.5.6 3.9v15.9h.1m-11.7-3.8c.6 0 1.2-.1 1.7-.2s1-.3 1.5-.5.9-.5 1.4-.8c.4-.3.9-.7 1.3-1.2v-4.2c-1.8 0-3.2.1-4.4.3-1.2.2-2.1.5-2.9.9-.7.3-1.2.8-1.5 1.2-.3.5-.5 1-.5 1.5 0 1.1.3 1.8.9 2.3.6.5 1.4.7 2.5.7M234 155.1v-25.2h3.7c.8 0 1.3.4 1.5 1.1l.4 2c.5-.5 1-1 1.6-1.4.6-.4 1.2-.8 1.8-1.1.6-.3 1.3-.5 2-.7.7-.2 1.5-.2 2.4-.2 1.4 0 2.6.2 3.7.7 1.1.5 2 1.1 2.7 2 .7.8 1.3 1.8 1.6 3 .4 1.2.6 2.5.6 3.9v16h-6.1v-16c0-1.5-.4-2.7-1.1-3.6-.7-.8-1.8-1.3-3.2-1.3-1 0-2 .2-2.9.7-.9.5-1.8 1.1-2.6 1.9v18.2H234"/></g></svg>