<svg id="Layer_1" xmlns="http://www.w3.org/2000/svg" viewBox="0 0 134.4 134.4" width="2500" height="2500"><style>.st0{fill:#fff}.st1{fill:#ff8300}</style><path class="st0" d="M110.3 9.6L24.1 3C12.5 3 3 12.5 3 24.1v86.2c0 11.7 9.5 21.1 21.1 21.1l86.2-6.6c11.8-.6 21.1-9.5 21.1-21.1V30.8c0-11.7-9-20.5-21.1-21.2z"/><path class="st1" d="M112.3 7L22.1 0C9.9 0 0 9.9 0 22.1v90.2c0 12.2 9.9 22.1 22.1 22.1l90.2-7c12.4-.6 22.1-9.9 22.1-22.1V29.1c0-12.3-9.4-21.4-22.1-22.1zm-8.2 31.6c-.6 1.6-1.4 3.2-2.8 4.1-1.4.9-3.7 1-6 1-11.4 0-22.9-.4-34.4-.4-1.1 5.3-2.3 10.6-3.4 15.9h21c5.4 0 10.9-.5 11.8 3.9.3 1.4 0 3.2-.4 4.6-.8 2.8-1.9 5-4.7 5.9-1.4.4-3 .4-4.8.4-8.6 0-17.5.1-26.1.2-1.3 5.8-2.4 11.6-3.7 17.4 11.7 0 22.9-.3 34.6-.4 4.7-.1 8.1 1.4 7.5 6.4-.2 2-.7 3.7-1.6 5.4-.8 1.6-1.9 2.8-3.6 3.4-1.8.6-4 .5-6.4.6-2.3.1-4.6.1-6.9.1-2.3.1-4.6.2-6.9.2-9.4 0-18.1.6-27.5.5-4.5 0-7.6-1.9-8.4-5.7-.4-2-.1-4.3.3-6.3 4-19.4 8.1-38.7 12.2-58 .4-2 .8-3.8 1.7-5.3 1.3-2.3 3.2-3.9 5.9-4.6 2.8-.7 6.6-.4 10-.4 2.3 0 4.6.1 6.8.1 6.9.2 13.6.2 20.5.4 2.3.1 4.6.1 6.8.1 4.6 0 8.7.5 9.3 4.6.4 2.2-.2 4.3-.8 5.9z"/></svg>