<svg width="620" height="620" viewBox="0 0 620 620" fill="none" xmlns="http://www.w3.org/2000/svg">
  <path
    d="M102.455 120.088H160.68C164.014 120.088 166.695 117.372 166.702 114.063C166.702 114.042 165.995 64.1726 165.995 50.3045V50.1399C165.995 38.75 168.386 28.82 172.549 20.4982L174.539 16.7611C174.283 16.8092 174.049 16.9385 173.872 17.1298L60.8156 129.242C60.6085 129.412 60.4604 129.643 60.3924 129.902C62.7307 128.745 65.9281 127.163 66.3802 126.964C76.2258 122.522 88.164 120.088 102.455 120.088ZM555.217 107.88C550.595 83.1383 535.884 70.9448 522.585 66.1507C508.236 60.9645 479.141 55.5923 442.584 51.2834C413.173 47.8198 378.605 48.0956 357.724 48.741C355.217 31.5761 343.179 15.8944 329.707 10.4655C293.812 -3.98181 238.357 -0.491536 224.117 3.49888C212.803 6.66107 200.279 13.1415 193.309 23.1282C188.635 29.7989 185.611 38.345 185.587 50.2842C185.587 57.0414 185.775 72.9592 185.947 87.102C186.118 101.289 186.304 113.977 186.304 114.063C186.298 126.694 176.061 136.974 163.375 136.99H105.179C92.7656 136.99 83.2812 139.076 76.0356 142.367C68.7793 145.662 63.6401 150.103 59.7352 155.358C51.9627 165.792 50.613 178.669 50.6451 191.809C50.6451 191.809 50.7594 202.547 53.3467 223.331C55.4979 239.412 72.9375 351.753 89.5019 385.92C95.9246 399.212 100.203 404.749 112.82 410.61C140.934 422.646 205.149 436.037 235.246 439.871C265.289 443.715 284.144 451.795 295.381 428.234C295.419 428.175 297.631 422.373 300.677 413.86C310.432 384.297 311.789 358.067 311.789 339.085C311.789 337.154 314.621 337.066 314.621 339.085C314.621 352.485 312.06 399.908 347.884 412.63C362.025 417.645 391.363 422.116 421.171 425.61C448.124 428.706 467.683 439.313 467.683 508.463C467.683 550.532 458.846 556.302 412.652 556.302C375.206 556.302 360.933 557.271 360.933 527.521C360.933 503.477 384.714 505.996 402.338 505.996C410.21 505.996 404.497 500.141 404.497 485.308C404.497 470.55 413.726 462.021 404.997 461.806C344.054 460.129 308.194 461.736 308.194 537.955C308.194 607.148 334.673 619.997 421.17 619.997C488.988 619.997 512.894 617.777 540.895 530.89C546.44 513.738 559.84 461.394 567.949 373.506C573.079 317.936 563.118 150.212 555.217 107.88ZM436.997 293.268C428.619 292.975 420.56 293.504 413.045 294.712C415.16 277.631 422.21 256.672 447.185 257.55C474.831 258.501 478.705 284.631 478.804 302.33C467.146 297.132 452.715 293.82 436.997 293.268Z"
    fill="#807F83" />
</svg>