<svg xmlns="http://www.w3.org/2000/svg" width="2500" height="620" viewBox="123.101 69.986 2339.356 580.152"><path fill="#807F83" d="M171.582 182.353H226.065c3.12 0 5.629-2.541 5.635-5.637 0-.02-.661-46.685-.661-59.662v-.154c0-10.658 2.237-19.95 6.133-27.737l1.862-3.497a1.136 1.136 0 0 0-.624.345L132.618 190.919a1.19 1.19 0 0 0-.396.618c2.188-1.083 5.18-2.563 5.603-2.749 9.213-4.157 20.384-6.435 33.757-6.435zM595.25 170.93c-4.325-23.152-18.09-34.562-30.535-39.048-13.427-4.853-40.652-9.88-74.86-13.912-27.521-3.241-59.868-2.983-79.407-2.379-2.346-16.062-13.611-30.736-26.217-35.816-33.588-13.519-85.48-10.253-98.805-6.519-10.587 2.959-22.306 9.023-28.828 18.368-4.374 6.242-7.204 14.239-7.226 25.411 0 6.323.176 21.218.337 34.452.16 13.275.334 25.148.334 25.229-.006 11.819-9.585 21.438-21.456 21.453h-54.456c-11.616 0-20.491 1.952-27.271 5.032-6.79 3.083-11.599 7.239-15.253 12.156-7.273 9.764-8.536 21.813-8.506 34.109 0 0 .107 10.048 2.528 29.496 2.013 15.048 18.332 120.17 33.832 152.142 6.01 12.438 10.013 17.619 21.82 23.103C207.588 465.47 267.677 478 295.84 481.588c28.112 3.597 45.756 11.158 56.271-10.889.035-.056 2.105-5.485 4.955-13.451 9.129-27.663 10.398-52.208 10.398-69.97 0-1.807 2.65-1.889 2.65 0 0 12.539-2.396 56.915 31.126 68.819 13.232 4.693 40.685 8.877 68.578 12.146 25.221 2.897 43.523 12.823 43.523 77.529 0 39.366-8.269 44.765-51.495 44.765-35.04 0-48.395.907-48.395-26.931 0-22.499 22.252-20.142 38.744-20.142 7.366 0 2.02-5.479 2.02-19.359 0-13.809 8.636-21.79.468-21.992-57.027-1.569-90.583-.065-90.583 71.256 0 64.747 24.778 76.77 105.717 76.77 63.46 0 85.83-2.077 112.032-83.381 5.188-16.05 17.727-65.03 25.315-147.271 4.801-51.999-4.52-208.945-11.914-248.557zM484.627 344.405c-7.84-.274-15.381.221-22.413 1.351 1.979-15.983 8.576-35.595 31.946-34.774 25.87.89 29.495 25.341 29.587 41.903-10.908-4.864-24.412-7.963-39.12-8.48z"/><path fill="#7AC143" d="M2444.329 247.055c10.038 0 18.128 8.134 18.128 18.125 0 10.025-8.09 18.18-18.128 18.18-10.055 0-18.144-8.155-18.144-18.18.001-9.991 8.088-18.125 18.144-18.125zm0 33.103c8.101 0 14.733-6.613 14.733-14.978 0-8.357-6.634-14.957-14.733-14.957-8.114 0-14.744 6.6-14.744 14.957 0 8.365 6.63 14.978 14.744 14.978zm-7.737-25.346h7.976c5.124 0 7.782 1.79 7.782 5.973 0 3.784-2.405 5.36-5.358 5.906l5.584 8.866h-3.901l-5.452-8.699h-3.21v8.699h-3.418v-20.745h-.003zm3.418 8.876h4.557c3.307 0 4.338-1.13 4.338-3.075 0-1.926-1.637-2.616-4.338-2.616h-4.557v5.691z"/><g fill="#7AC143"><path d="M682.602 432.812h24.38l1.176-155.764h-25.556v-29.885H844.24l1.97 60.571h-31.858l-2.748-30.686h-60.97l-.395 60.96h61.755v29.902H749.85l-.387 64.9h61.354l3.938-34.63h34.607l-3.933 64.513H682.602v-29.881zM1103.431 277.048h-20.446l-76.711 185.646h-44.039l-77.096-185.646h-21.633v-29.885h92.049v29.885h-21.636l53.092 146.322h.78l52.708-146.322h-25.948v-29.885h88.88v29.885zM1124.665 432.812h24.38l1.184-155.764h-25.563v-29.885h161.637l1.97 60.571h-31.853l-2.758-30.686h-60.966l-.392 60.96h61.755v29.902h-62.139l-.402 64.9h61.352l3.947-34.63h34.609l-3.938 64.513h-162.821l-.002-29.881zM1331.936 432.812h24.38l1.178-155.764h-25.558v-29.885h99.505c49.964 0 66.072 28.714 66.072 56.633 0 24.781-12.182 47.202-50.737 57.033v.783c20.057 5.502 25.188 10.621 45.241 45.236 13.357 22.424 18.079 25.963 25.564 25.963 3.14 0 6.282-.794 9.04-1.18v31.062h-22.033c-29.109 0-32.626-3.527-55.435-48.773-20.472-40.113-25.192-42.861-40.925-42.861h-8.637l-.401 61.754h25.552v29.882h-92.809v-29.884h.003zm68.054-91.655h16.901c23.196 0 38.921-12.58 38.921-32.632 0-19.669-9.813-31.476-29.491-31.476h-25.968l-.363 64.108zM1724.46 277.048h-25.575v-29.885h84.556v29.885h-24.388l-1.178 185.646h-32.25l-115.242-153.39h-.78l-1.19 123.508h25.577v29.882h-84.562v-29.882h24.387l1.178-155.765h-25.562v-29.885h63.718l109.339 145.921h.786l1.186-116.035zM1905.757 242.822c74.345 0 106.985 49.167 106.985 108.964 0 68.04-40.522 115.227-106.985 115.227-74.339 0-106.983-49.157-106.983-109.32-.001-67.649 40.497-114.871 106.983-114.871zm0 189.59c40.105 0 62.914-34.229 62.914-77.884 0-49.148-26.723-77.076-62.914-77.076-40.123 0-62.93 34.213-62.93 78.66 0 48.379 26.746 76.3 62.93 76.3zM2080.381 432.812h24.368l1.176-155.764h-43.237l-1.607 30.686h-32.614l2.336-60.571h193.141l2.357 60.571h-32.659l-1.57-30.686h-43.264l-1.182 155.764h25.553v29.883h-92.795v-29.883h-.003zM2250.264 432.812h24.389l1.19-155.764h-25.579v-29.885h161.672l1.951 60.571h-31.848l-2.752-30.686h-60.963l-.394 60.96h61.728v29.902h-62.125l-.401 64.9h61.352l3.957-34.63h34.587l-3.917 64.513h-162.847v-29.881z"/></g></svg>