<svg viewBox="0 0 40 40" fill="none" xmlns="http://www.w3.org/2000/svg">
  <style type="text/css">
    path {
    fill: black;
    }
    @media (prefers-color-scheme: dark) {
    path { fill: white; }
    }
  </style>

  <path fill-rule="evenodd" clip-rule="evenodd"
    d="M35.376 10.7079L34.8902 10.9498C33.5623 9.30434 32.2992 7.90086 31.1009 6.73933C29.9025 5.57781 28.7366 4.72281 27.603 4.17431C27.0524 3.9162 26.0565 3.69841 24.6153 3.52096C23.174 3.3435 21.498 3.25478 19.5871 3.25478C19.2632 3.25478 18.8908 3.26284 18.4697 3.27898C18.0487 3.29511 17.6438 3.31124 17.2552 3.32737C16.8665 3.3435 16.5022 3.35964 16.1621 3.37577C15.822 3.3919 15.571 3.39997 15.4091 3.39997C15.3767 3.59355 15.3362 3.78714 15.2876 3.98073C15.2391 4.17431 15.1986 4.40016 15.1662 4.65828C15.1338 4.9164 15.1014 5.2471 15.069 5.65041C15.0366 6.05372 15.0042 6.54574 14.9719 7.12651C14.9395 8.25576 14.9152 9.48987 14.899 10.8288C14.8828 12.1678 14.8747 13.4342 14.8747 14.628V19.2257H15.7492C16.2674 19.2257 16.8422 19.2095 17.4738 19.1773C18.1054 19.145 18.7612 19.1047 19.4413 19.0563C20.1215 19.0079 20.6883 18.9353 21.1417 18.8385C22.3076 18.5804 23.2307 18.2416 23.9108 17.8222C24.591 17.4027 25.1254 16.9026 25.514 16.3219C25.9027 15.7411 26.178 15.1039 26.3399 14.4102C26.5018 13.7165 26.6476 12.9664 26.7771 12.1598H27.3601V27.7435H26.7771C26.518 26.711 26.1456 25.6221 25.6598 24.4767C25.1739 23.3313 24.591 22.4521 23.9108 21.8391C23.2955 21.2906 22.6396 20.8792 21.9433 20.605C21.2469 20.3307 20.4292 20.1613 19.4899 20.0968C19.0041 20.0645 18.5831 20.0403 18.2268 20.0242C17.8705 20.0081 17.5305 20 17.2066 20H14.8747V26.0012C14.8747 26.9046 14.8828 27.7354 14.899 28.4936C14.9152 29.2518 14.9233 29.9052 14.9233 30.4537C14.9557 31.4861 15.0123 32.4621 15.0933 33.3817C15.1743 34.3012 15.3605 34.9868 15.652 35.4385C15.9435 35.8902 16.4374 36.2371 17.1337 36.479C17.8301 36.721 18.8422 36.8743 20.1701 36.9388V37.4228H4.62402V36.9388C5.43372 36.8098 6.18672 36.6 6.88306 36.3097C7.57939 36.0193 8.15427 35.616 8.6077 35.0997C8.76963 34.9062 8.89918 34.6238 8.99635 34.2528C9.09351 33.8818 9.18258 33.4543 9.26354 32.9703C9.34451 32.4863 9.40119 31.9782 9.43358 31.4458C9.46597 30.9134 9.48216 30.3891 9.48216 29.8729C9.48216 29.4212 9.49026 28.8082 9.50645 28.0338C9.52265 27.2595 9.53884 26.4126 9.55503 25.493C9.57123 24.5735 9.57932 23.6298 9.57932 22.6618V10.4175C9.57932 9.83671 9.57123 9.23983 9.55503 8.6268C9.53884 8.01377 9.50645 7.43302 9.45787 6.88452C9.40929 6.33602 9.32832 5.844 9.21496 5.40843C9.10161 4.97285 8.94777 4.65828 8.75344 4.46469C8.26762 3.94846 7.74943 3.61775 7.19884 3.47256C6.64824 3.32737 5.93572 3.19025 5.06126 3.06119V2.57722H32.0725L35.376 10.7079Z"
    fill="black" />
</svg>