<svg xmlns="http://www.w3.org/2000/svg" width="2500" height="2213" viewBox="51.622 205.389 487.385 431.346"><path fill="#FFF" d="M111.615 420.945L297.64 234.92l186.025 186.025L297.64 606.97 111.615 420.945z"/><path fill="#6CC655" d="M201.837 622.782L64.179 484.193c-16.742-16.742-16.742-53.017 0-68.829l197.187-198.117c15.812-15.812 51.156-15.812 66.969 0L526.45 415.364c16.742 16.742 16.742 53.018 0 68.829L388.792 622.782c-8.371 8.371-21.393 13.952-34.415 13.952H234.392c-12.092 0-24.184-5.581-32.555-13.952zm125.567-53.947c2.791-2.79 2.791-8.371 0-11.161L300.43 530.7c-2.79-2.791-8.37-2.791-11.161 0l-26.974 26.974c-2.79 2.79-2.79 8.371 0 11.161l21.393 20.463h22.323l21.393-20.463zm0-114.405c1.86-1.86 1.86-6.511 0-8.371l-28.834-28.834c-1.859-1.86-6.51-1.86-8.37 0l-83.712 83.711c-2.79 2.791-2.79 9.302 0 12.092l19.533 19.533h22.323l79.06-78.131zm0-113.476c1.86-1.86 2.791-7.441 0-9.301L299.5 303.749c-1.86-1.86-7.44-1.86-10.231 0L148.82 444.198c-1.859 1.86-2.79 7.441-.93 9.301l22.323 21.394h21.393l135.798-133.939z"/></svg>