<svg width="654" height="651" viewBox="0 0 654 651" fill="none" xmlns="http://www.w3.org/2000/svg">
  <path
    d="M361.871 48.5803C361.871 75.0587 339.806 97.124 313.327 97.124C286.849 97.124 264.784 75.0587 264.784 48.5803C264.784 22.1019 286.849 0.0366211 313.327 0.0366211C339.806 0.0366211 361.871 22.1019 361.871 48.5803ZM313.327 136.842C284.643 136.842 262.577 158.907 262.577 187.592C262.577 216.277 284.643 238.342 313.327 238.342C342.012 238.342 364.078 216.277 364.078 187.592C364.078 158.907 342.012 136.842 313.327 136.842ZM313.327 273.646C284.643 273.646 260.371 297.918 260.371 326.603C260.371 355.288 284.643 379.56 313.327 379.56C342.012 379.56 366.284 355.288 366.284 326.603C366.284 297.918 342.012 273.646 313.327 273.646ZM313.327 412.658C284.643 412.658 262.577 434.723 262.577 463.408C262.577 492.093 284.643 514.158 313.327 514.158C342.012 514.158 364.078 492.093 364.078 463.408C364.078 436.93 342.012 412.658 313.327 412.658ZM313.327 553.876C286.849 553.876 264.784 575.941 264.784 602.42C264.784 628.898 286.849 650.963 313.327 650.963C339.806 650.963 361.871 628.898 361.871 602.42C361.871 575.941 339.806 553.876 313.327 553.876ZM447.926 130.222C417.034 130.222 390.556 156.7 390.556 187.592C390.556 218.483 417.034 244.962 447.926 244.962C478.817 244.962 505.296 218.483 505.296 187.592C505.296 156.7 478.817 130.222 447.926 130.222ZM447.926 267.027C414.828 267.027 388.35 293.505 388.35 326.603C388.35 359.701 414.828 386.18 447.926 386.18C481.024 386.18 507.502 359.701 507.502 326.603C507.502 293.505 481.024 267.027 447.926 267.027ZM447.926 406.038C417.034 406.038 390.556 432.517 390.556 463.408C390.556 494.3 417.034 520.778 447.926 520.778C478.817 520.778 505.296 494.3 505.296 463.408C505.296 432.517 478.817 406.038 447.926 406.038ZM586.937 260.407C551.633 260.407 520.741 289.092 520.741 326.603C520.741 361.908 549.426 392.799 586.937 392.799C624.448 392.799 653.133 364.114 653.133 326.603C650.927 289.092 622.242 260.407 586.937 260.407ZM176.523 143.461C152.251 143.461 132.392 163.32 132.392 187.592C132.392 211.864 152.251 231.722 176.523 231.722C200.794 231.722 220.653 211.864 220.653 187.592C220.653 163.32 200.794 143.461 176.523 143.461ZM176.523 280.266C150.044 280.266 130.185 300.125 130.185 326.603C130.185 353.082 150.044 372.94 176.523 372.94C203.001 372.94 222.86 353.082 222.86 326.603C222.86 300.125 203.001 280.266 176.523 280.266ZM176.523 419.278C152.251 419.278 132.392 439.136 132.392 463.408C132.392 487.68 152.251 507.539 176.523 507.539C200.794 507.539 220.653 487.68 220.653 463.408C220.653 439.136 200.794 419.278 176.523 419.278ZM39.7176 286.886C17.6522 286.886 0 304.538 0 326.603C0 348.669 17.6522 366.321 39.7176 366.321C61.7829 366.321 79.4351 348.669 79.4351 326.603C79.4351 304.538 61.7829 286.886 39.7176 286.886Z"
    fill="#00B0B9" />
</svg>