<svg xmlns="http://www.w3.org/2000/svg" width="2500" height="2500" viewBox="0 0 192.756 192.756"><g fill-rule="evenodd" clip-rule="evenodd"><path fill="#fff" d="M0 0h192.756v192.756H0V0z"/><path d="M56.058 89.538l-.655 6.415h2.618l-.654 6.481c-1.244 0-2.356-.525-3.6-1.311a8.66 8.66 0 0 1-2.487-2.814c-.065-.195-.262-.457-.327-.719-.655-1.506-.917-3.208-.72-5.106.196-1.833.72-3.142 1.571-3.928.917-.981 2.356-1.375 4.189-1.375h10.146l.393-6.415H54.945c-1.833 0-3.534.327-4.974.785a10.987 10.987 0 0 0-3.731 2.16 12.97 12.97 0 0 0-2.487 3.469c-.589 1.375-1.047 2.88-1.178 4.517-.262 2.225-.065 4.386.523 6.546v.064c.589 2.096 1.571 3.732 2.946 5.367 1.309 1.506 3.076 2.75 5.105 3.666 2.16.916 4.451 1.309 7.135 1.309h5.891l2.029-19.112H56.058v.001zM138.334 80.767l-6.676 8.247-4.908-8.247h-7.07l-2.946 27.883h7.461l1.768-16.755 3.928 6.414.72 1.177.916-1.177 5.237-6.414-1.702 16.755h7.461l2.881-27.883h-7.07zM149.658 80.767l-2.881 27.883h7.463l2.881-27.883h-7.463zM175.252 80.767l-.982 9.622-7.069-9.622h-7.07l-2.879 27.883h7.461l1.767-17.476 5.106 7.135 1.637 2.291-.852 8.05h7.461l2.881-27.883h-7.461zM17.505 85.611h.72l-.327-.458-.393.458zM32.56 87.771l-2.16.654.065-2.16-5.367.327h-.524l-.392.328-1.571-.393v-.131l-1.833-.131h-.982l-.589.72-.523-.72h-1.833l-1.048 1.179v.916l.982-.196v-.982l.786-.524 2.159 1.833 5.433-.458 7.135.523h.262l.589-1.047 1.898.066.327-1.31h-3.207l.393 1.506zM20.32 97.197l.262.326 4.516-.587 5.367.587h5.302v-.13l-.72-.393.065-.458-3.01-.263-1.572-.915-5.367.392-6.349-.523h-6.022l.328.915 7.2 1.049zM35.833 89.407l-.524.786-.197-.851-2.552 1.571-1.375-1.637-6.022.459-5.629-.459-3.272 2.291h2.356l6.545-.458 6.545.392 1.506-.785 1.898-.065 2.422.72.59-.851-1.637-.262-.654-.851zM20.516 85.415l-.066.065 1.899-.196-.393-1.768-.523-.262h-4.255l3.338 2.161zM24.247 101.189l-.262.719-2.16.656-.589.981h14.793l.065-2.356H24.247zM28.894 83.974l-2.553.982-.131.065 4.647.524.523-.458.458.523h5.368c-.851-.916-1.767-1.702-2.814-2.356h-5.105l-.393.72zM29.745 94.382l.916-1.178.131-.786-5.629.393-7.592-.589h-2.226l.327 1.178-.262.72-1.571-1.244-1.439 1.179.196.523h6.742l5.825-.523 4.582.327zM25.098 98.637l-3.731-.328.261.328 3.077 1.375-.196.523h11.127l.458-.721-.196-1.636h-4.255l-6.545.459zM38.582 103.545h1.178c.393-.785.72-1.57.981-2.355h-.393l-1.766 2.355zM37.861 104.592l-1.833.459v-.852h-15.12l-1.178 2.029.066.262h18c.588-.719 1.112-1.504 1.636-2.291h-1.309l-.262.393zM40.873 100.535h.065v-.131l-.065.131zM34.393 109.502c1.047-.654 1.963-1.439 2.814-2.355H19.992l.393 1.635-1.571.393-1.963-2.027h-2.553c.851.916 1.767 1.701 2.814 2.355h17.281v-.001zM18.16 110.156c2.226 1.244 4.844 1.963 7.593 1.963s5.367-.719 7.592-1.963H18.16zM16.327 104.199h-4.255c.523.787 1.047 1.572 1.636 2.291h2.814l-.195-2.291zM14.232 97.459l-2.356-1.048-.851-1.178h-.981v2.291h4.189v-.065h-.001zM14.102 98.178h-3.993a25.1 25.1 0 0 0 .458 2.357h3.011l.524-2.357zM16.196 102.172l-1.767-.982h-3.666c.262.785.589 1.57.982 2.355h4.582l-.131-1.373zM21.105 81.618l.523.131.655.393 1.505-.524.655.394 3.272-.917 2.356.654-.457.851h3.73c-2.225-1.244-4.843-1.964-7.592-1.964s-5.367.72-7.593 1.964h2.291l.655-.982zM87.411 80.767c-2.749 0-5.171.327-6.938.72-1.898.524-3.731 1.31-5.433 2.553-1.767 1.244-3.272 2.618-4.385 4.386-1.178 1.636-2.094 3.338-2.684 5.236a21.683 21.683 0 0 0-1.113 4.647v.459c-.327 2.748-.065 5.367.523 7.723.196.787.458 1.441.72 2.16h8.248c-.655-1.111-1.179-2.553-1.571-4.059a14.283 14.283 0 0 1-.327-4.646h7.658l-.851 8.705h7.396L91.6 80.767h-4.189zM75.826 93.531a12.158 12.158 0 0 1 2.814-3.993 8.812 8.812 0 0 1 3.665-1.833c.393-.13.786-.196 1.178-.261l-.065.589h-.065l-.523 5.498h-7.004zM114.182 92.615c1.178-1.44 1.701-2.946 1.898-4.582.131-1.44-.066-2.684-.523-3.666-.523-1.178-1.375-1.963-2.619-2.553-1.178-.72-2.684-1.047-4.516-1.047H94.545l-2.88 27.883h7.462l2.227-21.469h2.945c1.111 0 1.963.131 2.553.328.457.065.719.589.654 1.439-.131.786-.523 1.637-1.375 2.422-.852.851-1.701 1.637-2.619 2.291-.98.72-1.963 1.31-2.814 1.898.264.917.59 1.833.982 2.749.131.328.197.654.328.916.523 1.244 1.047 2.816 1.832 4.451a57.587 57.587 0 0 0 2.553 4.779c0 .064.066.131.131.195h9.426c-1.701-2.355-3.012-4.254-3.992-5.891a70.793 70.793 0 0 1-2.16-4.451c-.262-.457-.393-.98-.654-1.506 2.29-1.306 3.924-2.746 5.038-4.186z" fill="#4aa8d4"/></g></svg>