<svg xmlns="http://www.w3.org/2000/svg" width="2500" height="2500" viewBox="0 0 192.744 192.744"><g fill-rule="evenodd" clip-rule="evenodd"><path fill="#fff" d="M0 0h192.744v192.744H0V0z"/><path d="M170.34 93.498a15.137 15.137 0 0 1 2.939-.288h.664c8.875 0 15.158 4.524 15.936 10.114h-7.232c-2.307-2.392-5.332-3.371-8.328-3.371h-.434c-1.557 0-2.709.173-3.545.461v-6.916zm0 11.355l12.797 6.195c2.91 1.384 6.08 4.294 6.08 7.521v.49c0 5.619-7.867 10.028-13.486 10.028h-.549c-1.672 0-3.314-.145-4.842-.432v-7.436c1.096.519 2.393.778 4.352.778h.318c2.189-.029 5.188-1.269 5.389-2.767l.057-.49c.115-.864-1.008-1.671-1.844-2.074l-8.271-4.006v-7.807h-.001zm-10.115 24.149h-13.141c-8.443 0-17.262-7.291-17.262-14.899V94.939h8.732l.26 17.636c.086 6.484 6.857 8.069 13.111 8.386V94.939l8.299-.116v4.669c1.643-3.113 6.082-5.245 10.115-5.994v6.916c-1.67.576-2.074 1.527-2.074 2.161v.058c0 .836 1.211 1.787 1.959 2.161l.115.059v7.81l-4.467-2.19c-2.104-1.009-4.523-2.681-5.648-4.727v13.516l7.436.058c.922.807 1.701 1.441 2.68 1.902v7.436c-4.523-.778-8.27-2.768-10.115-6.023v6.367zm-93.341 9.135v-2.968c.23 0 .461 0 .72-.029l1.124-.086c7.147-.548 5.188-.116 16.974-6.514v-7.492c-2.824 5.879-8.934 9.971-15.994 9.971-.98 0-1.902-.058-2.824-.23v-6.34a10.58 10.58 0 0 0 2.564.317c5.476 0 10-4.093 10.548-9.309l5.706-2.939v-1.902l-5.706 2.883v-.029c-4.381 2.248-8.732 4.495-13.112 6.743v-7.78L76.97 107.1a10.78 10.78 0 0 0-7.521-3.055c-.894 0-1.758.115-2.564.317v-7.608c.922-.144 1.844-.23 2.824-.23 7.06 0 13.169 4.092 15.994 9.971V94.823h13.142c8.385 0 17.232 7.291 17.232 14.899v19.164h-8.76l-.232-17.637c-.086-6.484-6.828-8.069-13.111-8.387v26.023l-7.752.115c-4.755 4.149-10.663 9.135-18.012 9.135h-.519c-.288.002-.547.002-.807.002zm55.762-54.092c2.133 0 3.861 1.729 3.861 3.833a3.862 3.862 0 0 1-3.861 3.862c-2.104 0-3.832-1.729-3.832-3.862a3.85 3.85 0 0 1 3.832-3.833zm-3.255 10.663h7.348v34.293h-7.348V94.708zm-52.507 2.046v7.608c-4.611 1.124-8.012 5.216-8.012 10.028 0 .749.058 1.47.23 2.162l7.781-4.121v7.78c-1.412.691-2.796 1.412-4.208 2.133 1.211.979 2.623 1.7 4.208 2.104v6.34c-6.744-1.066-12.219-5.879-14.121-12.161a25.201 25.201 0 0 1-4.726 6.57c3.343 1.527 6.484 3.285 9.106 5.908l.605.605c2.306 2.305 5.85 3.516 9.136 3.458v2.968c-6.715-.058-6.744-.749-11.758-3.256l-.519-.26c-4.957-2.479-9.02-5.158-14.697-3.861-2.507 1.123-5.245 1.844-8.127 2.132v-8.271c8.242-1.066 14.64-8.068 14.64-16.484 0-.23-.029-.432-.029-.633l-14.611 5.878v-8.847l9.567-3.603 11.182-4.236c1.21 2.334 2.075 4.87 2.478 7.551a17.702 17.702 0 0 1 11.875-7.492zm-35.1-5.101V55.199c3.4 1.182 6.657 4.236 6.657 7.435v.288c0 1.499-1.066 4.035-2.392 5.851l11.757 5.302c-.374-2.162-1.008-4.294-1.124-6.484-.029-.23.663-.403.691-.144l1.528 6.744c.778-2.162 1.383-4.409 2.392-6.484.086-.202.605.115.547.316l-2.161 6.686 4.092 2.046-3.833 1.585c.576 2.479 1.354 4.928 1.671 7.464.029.259-.692.375-.749.144l-1.758-6.974c-.691 2.564-1.152 5.216-2.075 7.694-.086.23-.75.145-.72-.086l1.643-7.407-11.21 4.668a26.619 26.619 0 0 1 12.766 8.329l-8.242 4.005a16.754 16.754 0 0 0-9.48-4.524zm0-36.454v36.455c-.691-.115-1.441-.144-2.161-.144-9.28 0-16.83 7.463-16.83 16.627 0 1.182.145 2.335.375 3.459l18.616-7.061v8.847l-14.611 5.908c3.083 3.343 7.521 5.476 12.45 5.476.72 0 1.47-.058 2.161-.145v8.271c-.894.087-1.815.145-2.737.145-14.467 0-26.254-11.297-26.254-25.158 0-10.807 7.205-20.086 17.233-23.602l-8.934-3.026c-4.38-1.47-8.3-5.908-8.3-10.72v-.519c0-4.726 5.303-10 10-10h.346c2.854 0 3.689.346 6.859 3.573.432-5.015 3.977-8.905 8.559-8.905h.461c.894 0 1.845.173 2.767.519z" fill="#cc2229"/></g></svg>