<svg viewBox="0 0 637 695" fill="none" xmlns="http://www.w3.org/2000/svg">
  <g clip-path="url(#clip0_69_305)">
    <path
      d="M622.053 297.673H434.632C424.284 297.673 416.235 309.24 419.684 318.493L464.527 435.316C466.827 439.943 462.228 445.726 456.479 445.726L398.988 442.256C396.688 442.256 394.388 443.413 392.089 445.726L348.396 509.343C346.096 512.813 341.497 513.97 336.897 511.656L270.208 466.546C267.908 464.233 264.459 464.233 261.009 466.546L169.024 529.006C163.275 533.633 155.226 527.85 157.526 520.91L183.971 428.376C185.121 424.906 182.822 420.28 179.372 419.123L131.08 399.46C126.48 397.146 124.181 391.363 127.63 387.893L170.174 334.686C172.473 332.373 172.473 327.746 170.174 325.433L134.529 273.383C131.08 268.756 134.529 261.816 140.278 261.816L196.619 257.19C201.219 257.19 203.518 253.72 203.518 249.093L198.919 170.44C198.919 164.656 204.668 161.186 209.267 162.343L278.257 191.26C281.706 192.416 285.156 191.26 287.455 188.946L335.748 135.74C339.197 131.113 346.096 132.27 348.396 138.053L377.141 212.08C380.59 221.333 392.089 224.803 400.137 219.02L512.82 134.583C525.468 125.33 517.419 104.51 501.322 106.823L428.883 116.076C425.433 116.076 421.984 114.92 420.834 111.45L381.74 10.8197C377.141 0.409663 364.493 -1.90367 356.444 6.193L271.358 98.7263C269.058 101.04 265.609 102.196 262.159 101.04L150.627 53.6163C140.278 48.9897 129.93 55.9297 128.78 67.4963L124.181 183.163C124.181 187.79 120.731 190.103 117.282 190.103L14.9479 197.043C3.44975 198.2 -3.44917 210.923 3.44975 221.333L71.2891 321.963C73.5887 324.276 73.5887 328.903 71.2891 331.216L2.29993 411.026C-3.44917 416.81 0.000288615 429.533 9.19884 433.003L88.5364 467.703C91.9858 468.86 94.2855 473.486 93.1357 476.956L42.5436 674.746C39.0941 688.626 55.1916 699.036 66.6898 690.94L256.41 554.453C258.71 552.14 262.159 552.14 265.609 554.453L351.845 615.756C358.744 620.383 369.092 619.226 373.692 611.13L427.733 527.85C428.883 525.536 432.332 524.38 434.632 524.38L563.412 540.573C573.76 541.73 584.109 533.633 580.659 523.223L526.618 383.266C525.468 379.796 526.618 375.17 531.217 372.856L628.952 326.59C642.749 319.65 638.15 297.673 622.053 297.673Z"
      fill="#8039E9" />
  </g>
  <defs>
    <clipPath id="clip0_69_305">
      <rect width="637" height="694" fill="white" transform="translate(0 0.410156)" />
    </clipPath>
  </defs>
</svg>