<svg viewBox="0 0 800 800" fill="none" xmlns="http://www.w3.org/2000/svg">
  <path
    d="M18.4001 560.641L284 105.938C317.738 125.8 487.862 219.951 515.338 237.855L249.738 692.586C220.69 730.958 -18.3999 618.875 18.4001 560.613V560.641Z"
    fill="#FBBC04" />
  <path
    d="M781.513 560.631L515.913 105.955C478.782 44.1616 398.81 21.7065 333.127 58.203C267.444 94.6996 247.444 173.32 284.575 237.872L550.175 692.603C587.306 754.369 667.279 776.824 732.962 740.327C795.775 703.831 818.644 622.424 781.513 560.686V560.631Z"
    fill="#4285F4" />
  <path
    d="M133.324 757.903C206.957 757.903 266.648 699.693 266.648 627.889C266.648 556.084 206.957 497.875 133.324 497.875C59.6912 497.875 0 556.084 0 627.889C0 699.693 59.6912 757.903 133.324 757.903Z"
    fill="#34A853" />
</svg>