<svg viewBox="0 0 800 800" fill="none" xmlns="http://www.w3.org/2000/svg">
  <g clip-path="url(#clip0_76_90)">
    <path
      d="M735.306 0.263672H589.612C554.372 0.263672 525.444 29.192 525.444 64.432V252.729H314.53C280.342 252.729 252.465 280.606 252.465 315.32V526.233H62.5904C27.8764 526.233 0 554.11 0 588.824V736.095C0 770.809 27.8764 798.686 62.5904 799.738H735.832C771.072 799.738 800 770.809 800 735.569V64.432C799.474 29.192 770.546 0.263672 735.306 0.263672Z"
      fill="url(#paint0_linear_76_90)" />
    <path
      d="M735.306 0.263672H589.612C554.372 0.263672 525.444 29.192 525.444 64.432V252.729H314.53C280.342 252.729 252.465 280.606 252.465 315.32V526.233H62.5904C27.8764 526.233 0 554.11 0 588.824V736.095C0 770.809 27.8764 798.686 62.5904 799.738H735.832C771.072 799.738 800 770.809 800 735.569V64.432C799.474 29.192 770.546 0.263672 735.306 0.263672Z"
      fill="url(#paint1_linear_76_90)" />
    <mask id="mask0_76_90" style="mask-type:luminance" maskUnits="userSpaceOnUse" x="0" y="0"
      width="800" height="800">
      <path
        d="M735.306 0.263672H590.664C555.424 0.263672 526.496 29.192 526.496 64.432V252.729H316.108C281.394 252.729 252.991 281.132 252.991 315.846V526.233H63.1164C28.4024 526.233 0 554.636 0 589.35V736.621C0 771.335 28.4024 799.738 63.1164 799.738H735.306C770.546 799.738 799.474 770.809 799.474 735.569V64.432C799.474 29.192 770.546 0.263672 735.306 0.263672Z"
        fill="white" />
    </mask>
    <g mask="url(#mask0_76_90)">
      <path
        d="M735.306 0.263672H590.664C555.424 0.263672 526.496 29.192 526.496 64.432V799.738H735.306C770.546 799.738 799.474 770.809 799.474 735.569V64.432C799.474 29.192 770.546 0.263672 735.306 0.263672Z"
        fill="#F57C00" />
      <path
        d="M252.465 315.845V526.233H63.1164C28.4024 526.233 0 554.635 0 589.349V736.621C0 771.335 28.4024 799.737 63.1164 799.737H525.97V252.729H315.582C280.868 252.729 252.465 281.131 252.465 315.845Z"
        fill="#FFC107" />
    </g>
    <mask id="mask1_76_90" style="mask-type:luminance" maskUnits="userSpaceOnUse" x="0" y="0"
      width="800" height="800">
      <path
        d="M735.306 0.263672H590.664C555.424 0.263672 526.496 29.192 526.496 64.432V252.729H316.108C281.394 252.729 252.991 281.132 252.991 315.846V526.233H63.1164C28.4024 526.233 0 554.636 0 589.35V736.621C0 771.335 28.4024 799.738 63.1164 799.738H735.306C770.546 799.738 799.474 770.809 799.474 735.569V64.432C799.474 29.192 770.546 0.263672 735.306 0.263672Z"
        fill="white" />
    </mask>
    <g mask="url(#mask1_76_90)">
      <path
        d="M525.97 252.729V799.737H734.78C770.02 799.737 798.948 770.809 798.948 735.569V526.233L525.97 252.729Z"
        fill="url(#paint2_linear_76_90)" />
    </g>
    <mask id="mask2_76_90" style="mask-type:luminance" maskUnits="userSpaceOnUse" x="0" y="0"
      width="800" height="800">
      <path
        d="M735.306 0.263672H590.664C555.424 0.263672 526.496 29.192 526.496 64.432V252.729H316.108C281.394 252.729 252.991 281.132 252.991 315.846V526.233H63.1164C28.4024 526.233 0 554.636 0 589.35V736.621C0 771.335 28.4024 799.738 63.1164 799.738H735.306C770.546 799.738 799.474 770.809 799.474 735.569V64.432C799.474 29.192 770.546 0.263672 735.306 0.263672Z"
        fill="white" />
    </mask>
    <g mask="url(#mask2_76_90)">
      <path opacity="0.2"
        d="M315.582 257.988H525.97V252.729H315.582C280.868 252.729 252.465 281.131 252.465 315.845V321.105C252.465 286.391 280.868 257.988 315.582 257.988Z"
        fill="white" />
    </g>
    <mask id="mask3_76_90" style="mask-type:luminance" maskUnits="userSpaceOnUse" x="0" y="0"
      width="800" height="800">
      <path
        d="M735.306 0.263672H590.664C555.424 0.263672 526.496 29.192 526.496 64.432V252.729H316.108C281.394 252.729 252.991 281.132 252.991 315.846V526.233H63.1164C28.4024 526.233 0 554.636 0 589.35V736.621C0 771.335 28.4024 799.738 63.1164 799.738H735.306C770.546 799.738 799.474 770.809 799.474 735.569V64.432C799.474 29.192 770.546 0.263672 735.306 0.263672Z"
        fill="white" />
    </mask>
    <g mask="url(#mask3_76_90)">
      <path opacity="0.2"
        d="M63.1164 531.494H252.465V526.234H63.1164C28.4024 526.234 0 554.637 0 589.351V594.61C0 559.896 28.4024 531.494 63.1164 531.494Z"
        fill="white" />
    </g>
    <mask id="mask4_76_90" style="mask-type:luminance" maskUnits="userSpaceOnUse" x="0" y="0"
      width="800" height="800">
      <path
        d="M735.306 0.263672H590.664C555.424 0.263672 526.496 29.192 526.496 64.432V252.729H316.108C281.394 252.729 252.991 281.132 252.991 315.846V526.233H63.1164C28.4024 526.233 0 554.636 0 589.35V736.621C0 771.335 28.4024 799.738 63.1164 799.738H735.306C770.546 799.738 799.474 770.809 799.474 735.569V64.432C799.474 29.192 770.546 0.263672 735.306 0.263672Z"
        fill="white" />
    </mask>
    <g mask="url(#mask4_76_90)">
      <path opacity="0.2"
        d="M735.306 0.263672H590.664C555.424 0.263672 526.496 29.192 526.496 64.432V69.6917C526.496 34.4517 555.424 5.52337 590.664 5.52337H735.306C770.546 5.52337 799.474 34.4517 799.474 69.6917V64.432C799.474 29.192 770.546 0.263672 735.306 0.263672Z"
        fill="white" />
    </g>
    <mask id="mask5_76_90" style="mask-type:luminance" maskUnits="userSpaceOnUse" x="0" y="0"
      width="800" height="800">
      <path
        d="M735.306 0.263672H590.664C555.424 0.263672 526.496 29.192 526.496 64.432V252.729H316.108C281.394 252.729 252.991 281.132 252.991 315.846V526.233H63.1164C28.4024 526.233 0 554.636 0 589.35V736.621C0 771.335 28.4024 799.738 63.1164 799.738H735.306C770.546 799.738 799.474 770.809 799.474 735.569V64.432C799.474 29.192 770.546 0.263672 735.306 0.263672Z"
        fill="white" />
    </mask>
    <g mask="url(#mask5_76_90)">
      <path opacity="0.2"
        d="M735.306 794.479H63.1164C28.4024 794.479 0 766.076 0 731.362V736.622C0 771.336 28.4024 799.739 63.1164 799.739H734.78C770.02 799.739 798.948 770.81 798.948 735.57V730.311C799.474 765.551 770.546 794.479 735.306 794.479Z"
        fill="#BF360C" />
    </g>
    <path
      d="M735.306 0.263672H590.664C555.424 0.263672 526.496 29.192 526.496 64.432V252.729H316.108C281.394 252.729 252.991 281.132 252.991 315.846V526.233H63.1164C28.4024 526.233 0 554.636 0 589.35V736.621C0 771.335 28.4024 799.738 63.1164 799.738H735.306C770.546 799.738 799.474 770.809 799.474 735.569V64.432C799.474 29.192 770.546 0.263672 735.306 0.263672Z"
      fill="url(#paint3_linear_76_90)" />
  </g>
  <defs>
    <linearGradient id="paint0_linear_76_90" x1="0" y1="400.001" x2="800" y2="400.001"
      gradientUnits="userSpaceOnUse">
      <stop stop-color="white" stop-opacity="0.1" />
      <stop offset="1" stop-color="white" stop-opacity="0" />
    </linearGradient>
    <linearGradient id="paint1_linear_76_90" x1="0" y1="400.001" x2="800" y2="400.001"
      gradientUnits="userSpaceOnUse">
      <stop stop-color="white" stop-opacity="0.1" />
      <stop offset="1" stop-color="white" stop-opacity="0" />
    </linearGradient>
    <linearGradient id="paint2_linear_76_90" x1="390.533" y1="390.796" x2="780.329" y2="780.592"
      gradientUnits="userSpaceOnUse">
      <stop stop-color="#BF360C" stop-opacity="0.2" />
      <stop offset="1" stop-color="#BF360C" stop-opacity="0.02" />
    </linearGradient>
    <linearGradient id="paint3_linear_76_90" x1="268.082" y1="268.671" x2="785.247" y2="785.836"
      gradientUnits="userSpaceOnUse">
      <stop stop-color="white" stop-opacity="0.1" />
      <stop offset="1" stop-color="white" stop-opacity="0" />
    </linearGradient>
    <clipPath id="clip0_76_90">
      <rect width="800" height="800" fill="white" />
    </clipPath>
  </defs>
</svg>