<svg viewBox="0 0 648 681" fill="none" xmlns="http://www.w3.org/2000/svg">
  <style>
    path {
    fill: #161616;
    }
    @media (prefers-color-scheme: dark) {
    path { fill: #FFF9F4; }
    }
  </style>
  <path fill-rule="evenodd" clip-rule="evenodd"
    d="M588.669 681H630.386C639.657 681 648 672.661 648 663.396V216.808C648 173.261 612.772 137.127 568.275 137.127H515.433C506.163 137.127 497.82 128.788 497.82 119.522V79.6816C498.747 35.2082 463.519 0 419.021 0H79.7253C35.2275 0 0 35.2082 0 79.6816V528.122C0 571.669 35.2275 606.878 79.7253 607.804H472.79C476.498 607.804 480.206 608.731 482.987 610.584L579.399 678.22C582.18 680.073 585.888 681 588.669 681ZM493.185 543.873H80.6524C70.4549 543.873 63.0386 536.461 63.0386 526.269V80.6082C63.0386 71.3429 71.382 63.0041 80.6524 63.0041H418.094C427.365 63.0041 435.708 71.3429 435.708 80.6082V120.449C435.708 129.714 427.365 138.053 418.094 138.053H166.867C157.597 138.053 149.253 146.392 149.253 155.657V453.074C149.253 462.339 157.597 470.678 166.867 470.678H481.133C490.403 470.678 498.747 462.339 498.747 453.074V217.735C498.747 208.469 507.09 200.131 516.36 200.131H568.275C577.545 200.131 585.888 208.469 585.888 217.735V582.788C585.888 592.053 575.691 596.686 569.202 592.053L503.382 546.653C500.601 544.8 496.893 543.873 493.185 543.873ZM426.438 406.747H220.635C216 406.747 212.292 403.041 212.292 398.408V208.469C212.292 203.837 216 200.131 220.635 200.131H426.438C431.073 200.131 434.781 203.837 434.781 208.469V397.482C434.781 402.114 432 406.747 426.438 406.747Z" />
</svg>