<svg xmlns="http://www.w3.org/2000/svg" width="2500" height="2500" viewBox="0 0 192.756 192.756"><g fill-rule="evenodd" clip-rule="evenodd"><path fill="#fff" d="M0 0h192.756v192.756H0V0z"/><path d="M31.525 112.025h-6.57l.259-3.068c-2.105 1.988-5.299 3.805-10.184 3.805-7.953 0-13.999-5.145-11.707-15.994 2.1-9.942 9.768-16.772 19.839-16.772 7.478 0 12.665 3.89 12.302 11.542h-9.683c-.196-2.55-1.763-3.934-4.399-3.934-4.02 0-6.689 3.631-7.849 9.122-.932 4.408-.397 8.428 4.746 8.428 2.075 0 5.013-1.426 5.988-3.588h-4.496l1.425-6.742h13.962l-3.633 17.201zM48.164 101.09l-2.292 10.85H35.67l6.575-31.123h14.696c10.375 0 13.196 2.81 11.917 8.861-.758 3.588-2.997 6.613-6.837 7.607 3.029 1.211 4.853 1.988 3.529 8.258-.858 4.062-1.28 5.445-.07 5.445l-.201.951h-10.33c-.114-.691.047-2.68.632-5.447.858-4.062.45-5.402-4.305-5.402h-3.112zm1.442-6.83h4.02c3.155 0 5.006-.902 5.462-3.063.466-2.205-1.044-3.242-3.421-3.242h-4.755l-1.306 6.305zM118.623 79.995c-6.809 0-12.758 3.144-16.41 8.403-1.346-4.825-5.387-8.403-12.815-8.403-9.683 0-17.639 6.354-19.703 16.124-2.237 10.59 3.011 16.643 12.78 16.643 6.483 0 12.559-2.963 16.371-8.41 1.381 5.43 6.004 8.41 12.854 8.41 9.209 0 17.6-5.967 19.838-16.557 1.733-8.213-1.808-16.21-12.915-16.21zm-26.512 16.21c-1.087 5.145-3.619 8.947-8.028 8.947-4.885 0-5.045-4.971-4.204-8.947.831-3.934 3.2-8.602 7.825-8.602 4.523-.13 5.302 4.366 4.407 8.602zm29.225 0c-1.086 5.145-3.619 8.947-8.029 8.947-4.883 0-5.045-4.971-4.203-8.947.83-3.934 3.199-8.602 7.826-8.602 4.521-.13 5.3 4.366 4.406 8.602zM132.037 80.817h10.287l1.072 20.704 10.038-20.704h10.287l-17.381 31.122h-10.244l-4.059-31.122zM157.973 111.939l6.574-31.122h25.375l-1.535 7.262h-15.172l-.942 4.452h12.84l-1.535 7.262H170.74l-1.031 4.885h15.777l-1.535 7.261h-25.978z"/></g></svg>