<svg id="Layer_1" xmlns="http://www.w3.org/2000/svg" xmlns:xlink="http://www.w3.org/1999/xlink" viewBox="0 0 48.5 43.3" width="2500" height="2232"><style>.st0{clip-path:url(#SVGID_2_);fill:#2a6bb3}.st1{clip-path:url(#SVGID_4_);fill:#fff}.st2,.st3{clip-path:url(#SVGID_6_);fill:#fff}.st3{clip-path:url(#SVGID_8_)}.st4{clip-path:url(#SVGID_10_);fill:#116db3}.st5{clip-path:url(#SVGID_12_);fill:#fff}</style><defs><path id="SVGID_1_" d="M0 0h48.5v43.3H0z"/></defs><clipPath id="SVGID_2_"><use xlink:href="#SVGID_1_" overflow="visible"/></clipPath><path class="st0" d="M48.3 40.1c0 1-.8 1.7-1.8 1.7s-1.8-.8-1.8-1.7c0-1 .8-1.7 1.8-1.7s1.8.8 1.8 1.7m-3.1 0c0 .8.6 1.4 1.3 1.4.8 0 1.3-.6 1.3-1.4 0-.8-.5-1.4-1.3-1.4s-1.3.7-1.3 1.4m1.1.9h-.4v-1.7h.7c.3 0 .5 0 .6.1.1.1.2.2.2.4s-.1.3-.3.4c.2.1.3.2.3.4 0 .3.1.4.1.4h-.4c0-.1-.1-.2-.1-.4s-.1-.3-.4-.3h-.2c-.1 0-.1.7-.1.7zm0-1h.2c.2 0 .4-.1.4-.2 0-.2-.1-.3-.4-.3h-.2v.5z"/><defs><path id="SVGID_3_" d="M0 0h48.5v43.3H0z"/></defs><clipPath id="SVGID_4_"><use xlink:href="#SVGID_3_" overflow="visible"/></clipPath><path class="st1" d="M16 3.2L6.4 14.5v16.8l9.1-1.3s1.7-.3 1.9 1.3c.1 1.8-1.5 1.8-1.5 1.8l-9.5 1.6v3.5l20.2 3.7V15C26.7 15 16 3.2 16 3.2zm4.8 22.9c-1 1.3-2.5 2.2-4.1 2.3h-.3c-1.7 0-3.2-.8-4.3-2.1-1.1-1.3-1.8-3.1-1.9-5v-.5c0-1.9.6-3.7 1.6-5 1-1.3 2.5-2.2 4.1-2.3h.3c1.7 0 3.2.8 4.3 2.1 1.1 1.3 1.8 3.1 1.9 5v.5c0 1.9-.6 3.6-1.6 5"/><g><defs><path id="SVGID_5_" d="M0 0h48.5v43.3H0z"/></defs><clipPath id="SVGID_6_"><use xlink:href="#SVGID_5_" overflow="visible"/></clipPath><path class="st2" d="M30.7 26.7v6.5l4.8-.8v-6.3l-4.8.6zM19.5 16.3c-.9-1.1-2.1-1.7-3.4-1.7h-.2c-1.3.1-2.4.7-3.2 1.8s-1.4 2.6-1.4 4.3v.4c.1 1.7.7 3.2 1.6 4.3.9 1.1 2.1 1.7 3.4 1.7h.2c1.3-.1 2.4-.7 3.2-1.8s1.4-2.6 1.4-4.3v-.4c0-1.7-.6-3.2-1.6-4.3m-6.7 4.8c-.1-2.5 1.2-4.7 3-4.8-1.1.7-1.8 2.6-1.6 4.7.1 2.2 1 4 2.2 4.5-1.9.2-3.5-1.8-3.6-4.4"/></g><g><defs><path id="SVGID_7_" d="M0 0h48.5v43.3H0z"/></defs><clipPath id="SVGID_8_"><use xlink:href="#SVGID_7_" overflow="visible"/></clipPath><path class="st3" d="M37.5 17.6v6.2l4-.5v-6.1l-4 .4zm0 14.4l4-.7v-6.1l-4 .6V32z"/></g><g><defs><path id="SVGID_9_" d="M0 0h48.5v43.3H0z"/></defs><clipPath id="SVGID_10_"><use xlink:href="#SVGID_9_" overflow="visible"/></clipPath><path class="st4" d="M35.2 0h-22L.2 15.3l4.6-.3v16.6l-3.5.4s-1.7.3-1.3 2.1c.4 1.3 1.7 1.3 1.7 1.3l3.1-.5v4.4l21.9 4 17.2-3.9v-24l4.7-.4c-.1-.1-13.4-15-13.4-15zm-4.5 18.2l4.8-.5V24l-4.8.6v-6.4zm-24.3 20v-3.5l9.5-1.6s1.6 0 1.5-1.8c-.1-1.6-1.9-1.3-1.9-1.3l-9.1 1.4V14.5L16 3.2 26.7 15v26.8L6.4 38.2zm24.3-5v-6.5l4.8-.6v6.3l-4.8.8zm10.7-1.9l-4 .7v-6.2l4-.6v6.1zm-3.9-7.5v-6.2l4-.4v6.1c-.1 0-4 .5-4 .5zm-17-8.3c-1.1-1.3-2.6-2.1-4.3-2.1h-.3c-1.7.1-3.1 1-4.1 2.3-1 1.3-1.6 3.1-1.6 5v.5c.1 2 .8 3.8 1.9 5 1.1 1.3 2.6 2.1 4.3 2.1h.3c1.7-.1 3.1-1 4.1-2.3 1-1.3 1.6-3.1 1.6-5v-.5c-.1-1.9-.8-3.7-1.9-5m-.7 9.8c-.8 1.1-2 1.8-3.2 1.8h-.2c-1.3 0-2.5-.6-3.4-1.7-.9-1.1-1.6-2.6-1.6-4.3v-.4c0-1.7.5-3.2 1.4-4.3.8-1.1 2-1.8 3.2-1.8h.2c1.3 0 2.5.6 3.4 1.7.9 1.1 1.6 2.6 1.6 4.3v.4c0 1.7-.5 3.2-1.4 4.3M14.2 21c-.1-2.1.6-4 1.6-4.7-1.8.1-3.2 2.3-3 4.8.1 2.6 1.7 4.6 3.5 4.5-1.1-.6-2-2.4-2.1-4.6"/></g><g><defs><path id="SVGID_11_" d="M0 0h48.5v43.3H0z"/></defs><clipPath id="SVGID_12_"><use xlink:href="#SVGID_11_" overflow="visible"/></clipPath><path class="st5" d="M30.7 18.2l4.8-.4v6.3l-4.8.6v-6.5z"/></g></svg>