<svg xmlns="http://www.w3.org/2000/svg" width="2500" height="2481" viewBox="113.045 97.165 294.029 291.752"><path d="M221.992 154.31l.02-.019c16.101-11.728 35.924-18.647 57.367-18.647 11.984 0 23.38 1.864 33.965 5.848.687.248 1.596.404 2.009.404 2.531 0 4.389-1.737 4.404-4.197.006-1.672-.823-3.066-1.895-4.055-28.04-25.818-57.826-36.479-57.826-36.479-66.474 26.581-115.355 90.862-116.756 164.325-.601 20.898 4.39 42.211 15.611 61.646 6.656 11.534 14.99 21.505 24.5 29.776-18.201-8.102-34.096-21.809-44.822-40.374-5.994-10.384-10.085-21.181-11.929-32.331-.122-.717-.435-1.587-.646-1.939-1.259-2.19-3.697-2.939-5.833-1.707-1.459.818-2.243 2.242-2.557 3.656-8.348 37.191-2.682 68.322-2.682 68.322 57.074 44.918 138.729 54.745 203.52 17.354 30.476-17.605 50.03-46.867 56.252-78.897l.021.041c2.102 19.817-1.829 40.423-12.546 59.009-5.99 10.374-13.298 19.312-22.033 26.503-.567.466-1.158 1.173-1.364 1.524-1.263 2.184-.688 4.669 1.434 5.91 1.45.85 3.065.816 4.45.373 36.389-11.361 60.508-31.826 60.508-31.826 10.192-70.646-20.837-144.911-83.388-182.956-29.372-18.243-66.078-22.925-99.784-11.264zm133.068 88.746c.938 4.687 1.46 9.505 1.46 14.404 0 46.099-43.19 83.452-96.479 83.452-53.292 0-96.482-37.354-96.482-83.452 0-4.899.516-9.717 1.459-14.404 20.025-20.535 55.08-34.181 95.022-34.181 39.935 0 74.994 13.646 95.02 34.181z"/><path d="M242.219 222.642c7.418 2.605 12.742 9.667 12.742 17.979 0 10.525-8.516 19.041-19.04 19.041-8.312 0-15.378-5.313-17.975-12.748a45.495 45.495 0 0 0-3.605 17.828c0 25.253 20.464 45.695 45.701 45.695 25.242 0 45.699-20.442 45.699-45.695 0-25.242-20.463-45.706-45.699-45.706a45.707 45.707 0 0 0-17.823 3.606z"/></svg>