<svg xmlns="http://www.w3.org/2000/svg" width="2500" height="2500" viewBox="0 0 192.756 192.756"><g fill-rule="evenodd" clip-rule="evenodd"><path fill="#fff" d="M0 0h192.756v192.756H0V0z"/><path d="M22.516 116.652h12.968l-7.98 31.723h19.751l-2.593 10.174H12.141l10.375-41.897zM67.007 116.652h12.968L69.6 158.549H56.433l10.574-41.897zM141.623 116.652h35.912l-2.394 10.174h-23.143l-1.596 6.385h21.348l-2.195 8.779h-21.348l-1.396 6.385h22.943l-2.393 10.174H131.25l10.373-41.897zM89.551 116.652h12.371l1.994 25.338 11.772-25.338h13.566l-22.147 41.897H92.744l-3.193-41.897zM49.649 105.08l-1.596 2.594h97.162l-1.496-2.594h-94.07zM53.141 99.096l-1.496 2.593h89.978l-1.596-2.593H53.141zM56.732 93.11l-1.397 2.594h82.698l-1.597-2.594H56.732zM60.423 87.125l-1.496 2.593h75.514l-1.595-2.593H60.423zM64.114 81.14l-1.596 2.593h68.332l-1.696-2.593h-65.04zM67.706 75.154l-1.597 2.594H98.33l1.397-2.594H67.706zM71.296 69.168L69.8 71.762h32.02l1.698-2.594H71.296zM74.888 63.184l-1.497 2.593h32.121l1.595-2.593H74.888zM78.578 57.198l-1.496 2.594h32.022l1.496-2.594H78.578zM82.169 51.213l-1.496 2.593h32.122l-1.697-2.593H82.169zM85.761 45.228l-1.497 2.593h24.84l-1.497-2.593H85.761zM89.452 39.242l-1.496 2.594h17.456l-1.596-2.594H89.452zM93.042 33.257l-1.595 2.594h10.373l-1.595-2.594h-7.183zM96.634 27.272l-1.496 2.593h3.092l-1.596-2.593zM177.232 154.607h.873c.381 0 .803.145.803.631 0 .553-.521.604-1.002.604h-.674v.236h.824l.953 1.461h.301l-.945-1.455c.451-.07.816-.322.816-.838 0-.574-.316-.875-1.033-.875h-1.189v3.168h.273v-2.932z"/><path d="M177.934 153.275a2.677 2.677 0 0 1 2.682 2.68 2.678 2.678 0 0 1-2.682 2.682 2.677 2.677 0 0 1-2.68-2.682 2.677 2.677 0 0 1 2.68-2.68l.008.236c-1.383 0-2.414 1.061-2.414 2.443 0 1.355 1.045 2.443 2.414 2.443s2.4-1.096 2.4-2.449c0-1.369-1.023-2.438-2.4-2.438l-.008-.235z"/></g></svg>