<svg width="266" height="339" viewBox="0 0 266 339" fill="none" xmlns="http://www.w3.org/2000/svg">
  <path fill-rule="evenodd" clip-rule="evenodd" d="M63.6768 59.651H210.887V248.456H63.6768V59.651Z"
    fill="white" />
  <path fill-rule="evenodd" clip-rule="evenodd"
    d="M97.398 217.816L109.808 146.95C103.603 142.141 99.0593 135.509 96.8162 127.986C94.5731 120.463 94.743 112.426 97.3019 105.004C99.8609 97.5819 104.68 91.148 111.083 86.6057C117.487 82.0634 125.152 79.6409 133.002 79.6784V1.02386H37.1446C27.2932 1.02386 17.8453 4.93733 10.8793 11.9033C3.91327 18.8693 -0.000191839 28.3173 -0.000191839 38.1687V220.298C-0.0289373 223.734 0.732415 227.131 2.22507 230.226C10.2703 246.488 42.0231 298.696 132.917 338.836V220.726C121.016 220.774 109.132 219.801 97.398 217.816Z"
    fill="#E21D3E" />
  <path fill-rule="evenodd" clip-rule="evenodd"
    d="M228.603 0.767098H132.917V79.4217C140.733 79.3812 148.368 81.7795 154.757 86.2824C161.146 90.7853 165.971 97.1687 168.561 104.543C171.151 111.918 171.377 119.917 169.207 127.426C167.037 134.935 162.578 141.58 156.453 146.436L168.864 217.645C156.993 219.712 144.966 220.743 132.917 220.726V338.665C223.725 298.696 255.563 246.317 263.609 230.055C265.101 226.96 265.863 223.563 265.834 220.127V38.0831C265.856 33.1836 264.909 28.328 263.048 23.796C261.186 19.264 258.445 15.1451 254.985 11.6766C251.524 8.20814 247.412 5.45854 242.884 3.58619C238.356 1.71385 233.503 0.755756 228.603 0.767098Z"
    fill="#B51E23" />
</svg>