<svg height="350" viewBox=".95 .21898605 292.1 39.92101395" width="2500" xmlns="http://www.w3.org/2000/svg"><g fill="none" fill-rule="evenodd"><path d="m8.39 7.52h17.2v22.06h-17.2z" fill="#fff"/><path d="m54.4 5.92h-6.16v27.31h17.87v-5.39h-11.71zm30.76-.2c-8.35 0-14.67 5.89-14.67 13.85s6.32 13.93 14.67 13.93 14.67-6 14.67-13.93-6.32-13.85-14.67-13.85zm.08 22.39a8.49 8.49 0 0 1 -8.43-8.54 8.4 8.4 0 0 1 8.43-8.47 8.51 8.51 0 0 1 0 17.02zm35.35-17.04a11.43 11.43 0 0 1 7.49 3l3.47-4.41a17.21 17.21 0 0 0 -11-4c-8.51 0-14.9 6-14.9 13.85s6.35 13.99 14.59 13.99a20.21 20.21 0 0 0 11.08-3.5v-11.79h-10.11v4.79h4.79v3.6a12.42 12.42 0 0 1 -5.34 1.48 8.52 8.52 0 1 1 -.07-17.01zm19.62-5.15h6.17v27.31h-6.17zm34.53 17.55-13.27-17.55h-5.62v27.31h5.9v-17.52l13.22 17.52h5.62v-27.31h-5.85zm17.47 2.86a3.39 3.39 0 0 0 -3.47 3.56 3.47 3.47 0 1 0 6.94 0 3.36 3.36 0 0 0 -3.47-3.56zm23.15-15.26a11.43 11.43 0 0 1 7.49 3l3.47-4.41a17.21 17.21 0 0 0 -11-4c-8.51 0-14.9 6-14.9 13.85s6.32 13.99 14.58 13.99a20.21 20.21 0 0 0 11.09-3.5v-11.79h-10.09v4.79h4.77v3.6a12.42 12.42 0 0 1 -5.34 1.48 8.52 8.52 0 1 1 -.07-17.01zm32.23-5.35c-8.35 0-14.67 5.89-14.67 13.85s6.32 13.93 14.67 13.93 14.67-6 14.67-13.93-6.32-13.85-14.67-13.85zm.08 22.39a8.49 8.49 0 0 1 -8.43-8.54 8.4 8.4 0 0 1 8.43-8.47 8.51 8.51 0 0 1 0 17.02zm39.02-22.19-7.49 20.6-7.45-20.6h-6.63l10.73 27.31h6.36l10.84-27.31z" fill="#112e51"/><path d="m12.33 26 1.45-8.28a4.39 4.39 0 0 1 2.71-7.86v-9.19h-11.2a4.34 4.34 0 0 0 -4.34 4.34v21.28a2.62 2.62 0 0 0 .26 1.16c.94 1.9 4.65 8 15.27 12.69v-13.8a24.3 24.3 0 0 1 -4.15-.34z" fill="#e21d3e"/><path d="m27.66.64h-11.18v9.19a4.39 4.39 0 0 1 2.75 7.83l1.45 8.32a24.29 24.29 0 0 1 -4.2.36v13.78c10.61-4.67 14.33-10.79 15.27-12.69a2.62 2.62 0 0 0 .26-1.16v-21.27a4.34 4.34 0 0 0 -4.35-4.36z" fill="#b51e23"/></g></svg>