<svg viewBox="0 0 212 212" fill="none" xmlns="http://www.w3.org/2000/svg">
  <style>
    path {
    fill: black;
    }
    @media (prefers-color-scheme: dark) {
    path { fill: white; }
    }
  </style>

  <path
    d="M61.6342 1.12201L51.7617 10.9945L83.3497 42.3078V68.8223L80.1071 71.7806L35.3944 27.357L25.8062 36.9452L70.2346 81.6531L67.5557 84.6163H41.3207L9.73273 53.0186L0 62.7514L35.6786 98.4348H97.1827V36.3863L61.6342 1.11719V1.12201ZM147.774 1.12201L157.651 10.9945L126.063 42.3078V68.8223L129.306 71.7806L174.013 27.357L183.602 36.9452L139.178 81.6531L141.857 84.6163H168.087L199.675 53.0186L209.408 62.7514L173.729 98.4348H112.235V36.3863L147.774 1.11719V1.12201ZM61.6342 210.877L51.7617 201.004L83.3497 169.691V143.176L80.1071 140.218L35.3944 184.642L25.8062 175.054L70.2346 130.346L67.5557 127.382H41.3207L9.73273 158.98L0 149.247L35.6786 113.564H97.1827V175.612L61.639 210.882L61.6342 210.877ZM147.774 210.877L157.651 201.004L126.063 169.691V143.176L129.306 140.218L174.013 184.642L183.602 175.054L139.178 130.346L141.857 127.382H168.087L199.675 158.98L209.408 149.247L173.729 113.564H112.235V175.612L147.778 210.882L147.774 210.877Z"
    fill="black" />
</svg>