<svg xmlns="http://www.w3.org/2000/svg" width="2500" height="1667" viewBox="0 0 483 322"><path fill="#FFF" d="M2.229 81.182h476.178V287.89H2.229z"/><path fill="#F00101" d="M19.741 319.875c-6.447-2.479-13.92-9.561-17.278-16.375L0 298.5v-275l2.463-5C5.921 11.483 13.281 4.6 20.026 2.076L25.575 0h431.85l5.729 2.143c6.885 2.577 14.468 9.714 17.659 16.623L483 23.5v275l-2.188 4.734c-3.191 6.908-10.774 14.046-17.659 16.622L457.425 322l-216.213-.053c-214.491-.051-216.254-.067-221.471-2.072zM477.5 182.5V86H5.5v193h472v-96.5zM379.639 265c-1.921-1.426-5.278-19.799-6.666-36.477-.676-8.116-1.022-9.234-3.61-11.651-4.11-3.84-3.415-8.872 1.226-8.872 1.748 0 2.784-3.383 3.522-11.5.985-10.846 5.531-27.831 9.619-35.944 4.933-9.79 17.604-20.556 24.193-20.556 2.16 0 7.962 1.887 15.077 4.903a351.1 351.1 0 0 0 4.807 1.977c3.625 1.458 7.369 9.482 8.23 17.636.764 7.235-.837 16.864-3.965 23.854-4.83 10.792-25.338 29.104-35.515 31.712l-5.057 1.296.03 9.562c.038 11.861 1.454 23.145 3.613 28.799.904 2.368 1.317 4.634.917 5.034-.812.811-15.363 1.012-16.421.227zm22.281-68.055c4.085-3.881 8.57-9.241 9.968-11.913 3.078-5.888 4.79-15.661 3.968-22.657-.938-7.979-1.816-8.553-5.951-3.883-6.833 7.716-10.938 16.749-14.07 30.957-2.793 12.671-3.077 14.552-2.203 14.552.474-.001 4.204-3.176 8.288-7.056zm-126.214 14.45c-.645-10.191-1.392-18.886-1.661-19.321s-3.977-1.108-8.239-1.495c-8.765-.794-10.306-1.638-10.306-5.645 0-4.483 3.211-6.07 10.729-5.3l6.271.643-.044-3.888c-.024-2.139-.474-7.264-.999-11.389-3.847-30.209-4.564-51.643-1.959-58.496.8-2.104 1.6-2.504 5.01-2.504 3.92 0 13.14 3.812 14.484 5.988.349.564.858 13.286 1.133 28.269.643 35.086.652 32.731-.154 36.493-.62 2.888-.454 3.25 1.487 3.25 1.795 0 2.128-.49 1.863-2.75-.272-2.334.082-2.797 2.349-3.059 2.116-.245 4.031.988 9.249 5.957 3.619 3.447 6.581 6.797 6.581 7.445 0 1.433-3.546 2.232-17.706 3.992l-4.207.523.498 18.822c.564 21.348 1.146 19.879-8.146 20.6l-5.062.393-1.171-18.528zm-146.599 16.023c-.334-.869-.617-2.332-.631-3.25-.013-.917-1.176-4.368-2.583-7.668-2.855-6.691-7.801-22.344-9.479-30-1.882-8.582-4.074-15.672-4.664-15.082-.312.311-.932 9.457-1.379 20.324-.446 10.867-1.404 21.783-2.128 24.258l-1.316 4.5-9.877.914-9.877.913-2.215-2.778c-1.219-1.528-5.038-7.459-8.488-13.179s-6.399-10.272-6.555-10.118c-.154.155.335 4.699 1.089 10.097.755 5.398 1.148 10.396.875 11.108-.878 2.287-10.77 5.893-15.775 5.751-4.617-.132-5.602-2.049-7.082-13.796-2.478-19.661-2.751-25.385-2.024-42.324l.718-16.73 4.407-1.179c7.09-1.896 14.971-1.533 17.135.79 1.008 1.083 5.843 9.745 10.743 19.25l8.91 17.281 1.262-9.5c1.901-14.317 8.396-35.876 12.861-42.689 1.669-2.548 1.828-2.578 10.275-1.929 10.078.775 11.586 1.774 13.61 9.021 4.516 16.164 6.054 22.652 10.603 44.729 1.092 5.298 2.658 11.542 3.481 13.876.824 2.334 1.498 5.073 1.498 6.087s1.125 5.29 2.5 9.502c2.527 7.743 3.042 10.278 1.842 9.079-.362-.362-1.263-.156-2.003.457-1.068.888-11.603 3.675-14.482 3.832-.355.019-.917-.677-1.251-1.547zm40.084-.516c-4.748-1.117-6.812-2.21-13.545-7.173-7.743-5.708-8.973-9.112-9.108-25.229-.138-16.32.478-22.222 3.225-30.914 2.519-7.969 8.004-14.689 17.101-20.949 6.177-4.251 6.735-4.279 18.938-.935 4.634 1.271 6.11 2.19 7.345 4.579 3.175 6.139 4.218 40.087 1.373 44.69-.988 1.6-16.113 1.691-23.015.142-2.147-.483-4.151-.63-4.454-.328-.302.302-.539 3.737-.527 7.632.026 8.401 2.167 13.882 7.016 17.962 2.956 2.487 3.825 2.72 7.893 2.113 2.514-.375 5.726-1.363 7.139-2.195 3.473-2.046 12.703-.232 15.845 3.112l2.181 2.321-5.297 2.011c-9.723 3.691-23.922 5.089-32.11 3.161zM175.5 170c0-5.5-.398-10-.884-10-1.032 0-4.932 9.246-6.118 14.506-.718 3.182-.553 3.732 1.342 4.496 5.414 2.184 5.66 1.793 5.66-9.002zm57.5 55.318c-14.812-1.885-20.139-4.662-26.251-13.684-4.526-6.68-4.776-7.411-5.325-15.572-.473-7.041-.159-10.161 1.765-17.562 5.748-22.104 7.703-26.021 18.718-37.488 5.017-5.222 6.256-6.009 9.435-5.99 2.013.012 5.62.912 8.019 2 2.397 1.088 4.899 1.978 5.561 1.978.662 0 2.247.973 3.523 2.162 2.249 2.096 2.299 2.501 1.62 13.229-.385 6.087-1.109 11.562-1.609 12.164-.501.603-1.032 6.978-1.182 14.165l-.272 13.07-5.635 1.576c-4.975 1.393-6.495 1.413-12.984.176-8.537-1.626-9.185-1.234-8.552 5.172.51 5.154 5.839 13.804 9.752 15.827 5.547 2.868 16.857 1.007 19.634-3.23 1.854-2.828 3.798-2.906 8.035-.322 4.188 2.554 4.413 6.149.5 7.968-9.562 4.441-15.67 5.518-24.752 4.361zm-2.131-42.568c.332-1.237.592-7.2.577-13.25-.025-10.541-.092-10.88-1.588-8.118-1.922 3.548-7.358 19.087-7.358 21.033 0 1.666 1.496 2.397 5.133 2.506 1.922.058 2.797-.528 3.236-2.171zm93.978 40.78c-5.155-3.61-9.451-18.747-11.231-39.579-.978-11.448-.835-16.979.495-19.131.942-1.523 6.308-.834 11.112 1.43 8.882 4.184 8.614 3.506 9.48 24.026.879 20.789 1.413 25.019 3.092 24.458 2.215-.738 10.354-13.84 11.587-18.652.706-2.756 1.14-9.742 1.018-16.4-.295-16.059.783-17.078 12.387-11.707 9.253 4.283 9.321 4.416 7.917 15.536-1.261 9.983-2.582 14.009-5.454 16.628-.989.9-2.835 3.601-4.104 6-1.269 2.398-2.907 4.361-3.643 4.361-.734 0-1.52.675-1.745 1.5-.364 1.334-.292 1.334.651 0 .583-.825 1.061-1.05 1.061-.5 0 2.203-9.779 11.585-13.055 12.524-5.285 1.516-17.126 1.217-19.568-.494z"/><path fill="#030303" d="M379.639 265c-1.873-1.391-5.273-20.122-6.714-36.988-.647-7.576-1.032-8.775-3.575-11.152-4.113-3.842-3.394-8.859 1.271-8.859 1.8 0 2.702-2.6 3.348-9.652 1.154-12.598 5.453-29.24 9.762-37.792 4.933-9.79 17.604-20.556 24.193-20.556 2.16 0 7.962 1.887 15.077 4.903a351.1 351.1 0 0 0 4.807 1.977c1.945.782 3.539 2.74 5.189 6.375 4.351 9.583 4.21 21.509-.396 33.771-4.072 10.839-25.272 30.295-36.008 33.046l-5.093 1.305.03 9.562c.038 11.861 1.454 23.145 3.613 28.799.904 2.368 1.317 4.634.917 5.034-.812.811-15.363 1.012-16.421.227zm22.281-68.055c4.139-3.931 8.612-9.322 10.104-12.174 3.11-5.947 4.668-15.086 3.82-22.415-.936-8.095-1.791-8.556-6.326-3.405-6.943 7.886-10.567 16.4-14.491 34.049-.917 4.125-1.892 8.287-2.165 9.25-.925 3.257 1.605 1.775 9.058-5.305zm-126.214 14.45c-.645-10.191-1.392-18.886-1.661-19.321s-3.977-1.108-8.239-1.495c-8.765-.794-10.306-1.638-10.306-5.645 0-4.483 3.211-6.07 10.729-5.3l6.271.643-.044-3.888c-.024-2.139-.474-7.264-.999-11.389-3.847-30.209-4.564-51.643-1.959-58.496.8-2.104 1.6-2.504 5.01-2.504 3.925 0 13.14 3.812 14.488 5.994.497.804 1.334 30.703 1.639 58.506.019 1.65-.28 4.463-.664 6.25-.62 2.888-.454 3.25 1.487 3.25 1.795 0 2.128-.49 1.863-2.75-.273-2.339.08-2.797 2.367-3.061 2.154-.248 4.037.986 9.464 6.203 3.726 3.582 6.445 6.843 6.042 7.246-1.521 1.521-8.364 3.332-12.694 3.359-9.575.062-8.978-1.355-8.413 19.984.562 21.289 1.143 19.828-8.148 20.549l-5.062.393-1.171-18.528zM128.551 224.25c-.652-2.612-2.276-7.225-3.609-10.25-2.604-5.909-5.962-17.07-9.479-31.5-1.206-4.95-2.55-9.657-2.985-10.46-1.124-2.073-1.793 4.485-2.392 23.46-.278 8.8-1.103 18.025-1.832 20.5l-1.327 4.5-9.877.914-9.877.913-2.215-2.778c-1.219-1.528-5.038-7.459-8.488-13.179s-6.396-10.276-6.548-10.124c-.152.151.306 4.505 1.017 9.674.71 5.169 1.089 10.176.84 11.127-.684 2.613-10.112 6.318-15.675 6.161-4.62-.132-5.603-2.047-7.073-13.796-2.51-20.038-2.733-24.686-2.015-41.923l.714-17.136 4.399-1.177c7.084-1.895 14.965-1.53 17.128.792 1.008 1.083 5.843 9.745 10.743 19.25l8.91 17.281 1.262-9.5c1.859-14.001 7.398-32.745 12.171-41.184l1.875-3.316 8.83.216c7.265.178 9.179.565 10.798 2.184 2.509 2.509 7.247 20.448 14.217 53.822.829 3.974 2.167 9.093 2.974 11.377.806 2.283 1.465 4.981 1.465 5.995s1.125 5.29 2.5 9.502c2.527 7.743 3.042 10.278 1.842 9.079-.362-.362-1.263-.156-2.003.457-1.066.885-11.589 3.672-14.471 3.832-.348.021-1.167-2.101-1.819-4.713zm40.64 2.652c-4.748-1.117-6.812-2.21-13.545-7.173-7.69-5.669-8.985-9.176-9.134-24.729-.151-15.912.558-22.838 3.197-31.234 2.46-7.82 8.363-15.125 16.905-20.916 5.157-3.496 5.618-3.617 10.886-2.853 9.398 1.364 14.049 3.231 15.632 6.274 3.112 5.983 4.191 40.16 1.41 44.66-.992 1.605-17.475 1.665-22.994.082-1.833-.525-3.719-.717-4.19-.426s-.848 3.766-.836 7.721c.026 8.516 2.145 13.971 7.016 18.069 2.956 2.487 3.825 2.72 7.893 2.113 2.514-.375 5.726-1.363 7.139-2.195 3.473-2.045 12.703-.232 15.845 3.112l2.181 2.321-5.297 2.011c-9.721 3.693-23.92 5.091-32.108 3.163zm6.499-50.652c.479-5.789-.267-16.25-1.159-16.25-.962 0-4.891 9.448-6.032 14.506-.717 3.182-.553 3.732 1.342 4.496 4.365 1.761 5.521 1.217 5.849-2.752zM233 225.318c-14.814-1.886-20.139-4.661-26.251-13.686-4.586-6.771-4.77-7.324-5.349-16.072-.412-6.244-.2-10.148.683-12.561.705-1.925 1.99-6.756 2.857-10.734 3.084-14.155 6.412-20.266 17.096-31.388 4.89-5.09 6.135-5.875 9.305-5.855 2.013.012 5.62.912 8.019 2 2.397 1.088 4.899 1.978 5.562 1.978.661 0 2.246.973 3.522 2.162 2.249 2.096 2.299 2.501 1.62 13.229-.385 6.087-1.109 11.562-1.609 12.164-.501.603-1.032 6.978-1.182 14.165l-.272 13.07-5.635 1.576c-4.975 1.393-6.495 1.413-12.984.176-8.131-1.549-8.839-1.238-8.866 3.892-.021 3.991 3.55 11.063 7.66 15.174 2.873 2.872 4.096 3.392 7.992 3.392 6.405 0 12.256-1.953 14.048-4.688 1.854-2.828 3.798-2.906 8.035-.322 5.039 3.072 4.47 6.239-1.591 8.847-8.502 3.656-14.295 4.546-22.66 3.481zm-2.131-42.568c.332-1.237.592-7.2.577-13.25-.025-10.541-.092-10.88-1.588-8.118-1.922 3.548-7.358 19.087-7.358 21.033 0 1.666 1.496 2.397 5.133 2.506 1.922.058 2.797-.528 3.236-2.171zm93.989 40.788c-5.2-3.643-9.455-18.87-11.326-40.538-.911-10.551-.735-16.052.579-18.18.942-1.523 6.308-.834 11.112 1.43 8.882 4.184 8.614 3.506 9.48 24.026.879 20.789 1.413 25.019 3.092 24.458 2.214-.737 10.354-13.838 11.586-18.647.676-2.638 1.157-9.022 1.071-14.19-.087-5.168-.159-10.419-.16-11.668-.002-2.873 1.918-5.229 4.26-5.229 2.517 0 14.373 5.602 15.996 7.558 1.093 1.317 1.121 3.308.155 10.953-1.261 9.983-2.582 14.009-5.454 16.628-.989.9-2.836 3.601-4.104 6-1.269 2.398-2.907 4.361-3.643 4.361-.734 0-1.52.675-1.745 1.5-.364 1.334-.292 1.334.651 0 .583-.825 1.061-1.05 1.061-.5 0 2.203-9.779 11.585-13.055 12.524-5.27 1.512-17.125 1.217-19.556-.486z"/></svg>