<svg viewBox="0 0 250 250" fill="none" xmlns="http://www.w3.org/2000/svg">
  <g clip-path="url(#clip0_69_317)">
    <path
      d="M27.0019 151.481C27.0019 161.027 29.0963 168.355 31.8358 172.789C35.4266 178.597 40.782 181.062 46.242 181.062C53.2834 181.062 59.7257 179.314 72.1402 162.143C82.0885 148.381 93.8056 129.063 101.691 116.952L115.045 96.4348C124.321 82.1856 135.058 66.3458 147.368 55.6089C157.421 46.845 168.26 41.9766 179.171 41.9766C197.489 41.9766 214.938 52.592 228.291 72.5012C242.906 94.3048 250 121.77 250 150.111C250 166.96 246.679 179.34 241.027 189.121C235.568 198.579 224.927 208.03 207.026 208.03V181.057C222.354 181.057 226.178 166.973 226.178 150.854C226.178 127.885 220.823 102.395 209.025 84.1816C200.654 71.2624 189.804 63.3686 177.867 63.3686C164.956 63.3686 154.567 73.1075 142.891 90.4668C136.683 99.6916 130.311 110.932 123.155 123.617L115.278 137.571C99.4573 165.63 95.4486 172.018 87.537 182.561C73.6712 201.025 61.8295 208.026 46.242 208.026C27.7496 208.026 16.0567 200.018 8.8143 187.951C2.90289 178.119 -0.000976562 165.217 -0.000976562 150.516L27.0019 151.481Z"
      fill="#0081FB" />
    <path
      d="M21.29 74.3991C33.67 55.3161 51.5361 41.9707 72.0276 41.9707C83.8944 41.9707 95.6942 45.483 108.011 55.5423C121.487 66.5379 135.849 84.6543 153.767 114.499L160.192 125.207C175.702 151.045 184.525 164.338 189.69 170.607C196.332 178.657 200.983 181.057 207.025 181.057C222.353 181.057 226.178 166.972 226.178 150.854L249.999 150.106C249.999 166.955 246.679 179.335 241.027 189.116C235.568 198.574 224.926 208.025 207.025 208.025C195.897 208.025 186.039 205.608 175.136 195.323C166.759 187.429 156.957 173.406 149.419 160.8L126.998 123.347C115.749 104.551 105.426 90.5364 99.4567 84.1893C93.0312 77.3637 84.7719 69.1223 71.592 69.1223C60.9253 69.1223 51.866 76.6077 44.2854 88.0577L21.29 74.3991Z"
      fill="url(#paint0_linear_69_317)" />
    <path
      d="M71.5925 69.1223C60.9258 69.1223 51.8665 76.6077 44.2859 88.0577C33.5658 104.237 27.0072 128.336 27.0072 151.479C27.0072 161.025 29.1016 168.353 31.841 172.787L8.8143 187.949C2.90289 178.117 -0.000976562 165.215 -0.000976562 150.514C-0.000976562 123.781 7.33671 95.9169 21.2906 74.3991C33.6705 55.3161 51.5366 41.9707 72.0281 41.9707L71.5925 69.1223Z"
      fill="url(#paint1_linear_69_317)" />
  </g>
  <defs>
    <linearGradient id="paint0_linear_69_317" x1="54.1929" y1="120.694" x2="226.331" y2="129.388"
      gradientUnits="userSpaceOnUse">
      <stop stop-color="#0064E1" />
      <stop offset="0.4" stop-color="#0064E1" />
      <stop offset="0.83" stop-color="#0073EE" />
      <stop offset="1" stop-color="#0082FB" />
    </linearGradient>
    <linearGradient id="paint1_linear_69_317" x1="36.013" y1="162.816" x2="36.013" y2="99.3506"
      gradientUnits="userSpaceOnUse">
      <stop stop-color="#0082FB" />
      <stop offset="1" stop-color="#0064E0" />
    </linearGradient>
    <clipPath id="clip0_69_317">
      <rect width="250" height="250" fill="white" />
    </clipPath>
  </defs>
</svg>