<svg xmlns="http://www.w3.org/2000/svg" width="2500" height="2500" viewBox="0 0 192.756 192.756"><g fill-rule="evenodd" clip-rule="evenodd"><path fill="#fff" d="M0 0h192.756v192.756H0V0z"/><path d="M12.144 73.736l-3.64 36.985h11.212L21.9 87.86l3.64 22.861h13.687l5.242-24.025.582 16.744s.583 7.281 6.698 7.281h9.027l-2.475-36.985H39.373l-4.368 20.24-1.019-20.24H12.144zM61.651 75.483l12.376 21.841v13.396h14.852V97.324l14.416-23.588H91.063L84.22 87.278l-5.097-9.756c.001 0-4.513-6.989-17.472-2.039zM115.088 91.354c0 5.534 2.912 9.901 6.408 9.901 3.639 0 6.551-4.367 6.551-9.901 0-5.387-2.912-9.901-6.551-9.901-3.496.001-6.408 4.514-6.408 9.901zm-14.852 0c0-10.629 9.609-19.22 21.404-19.22s21.404 8.591 21.404 19.22c0 10.63-9.609 19.366-21.404 19.366s-21.404-8.736-21.404-19.366zM160.664 94.704v6.843h3.35s3.785-1.02 3.785-3.348c0-2.477-3.641-3.205-3.641-3.205l-3.494-.29zm0-12.523v5.824h3.35s2.619-.291 2.619-2.767c0-2.475-2.475-3.058-2.475-3.058h-3.494v.001zm-14.125-8.445c3.787-1.602 25.191 0 25.191 0 8.154 2.767 9.756 7.863 8.881 11.358-1.018 3.786-5.242 5.97-5.242 5.97 3.35.291 6.117 3.64 5.826 7.571-.146 1.893 0 5.68-7.137 9.027-7.57 3.641-27.52 3.059-27.52 3.059V73.736h.001z" fill="#f4e542"/><path d="M117.855 123.098h-1.602l-.438-1.166h-2.33l-.436 1.166h-1.457l2.912-6.844h.438l2.913 6.844zm-2.33-1.893l-1.02-2.186-.873 2.186h1.893zM125.426 120.912c0 .729-.145 1.166-.582 1.604-.436.436-1.02.582-1.893.582s-1.455-.146-1.746-.582c-.438-.293-.584-.875-.584-1.604v-4.658h1.457v4.658c0 .438.145.584.291.875.145.145.438.145.729.145s.582 0 .727-.291c.146-.145.293-.436.293-.873v-4.514h1.309v4.658h-.001zM133.145 121.205c0 .582-.146 1.018-.584 1.455-.436.291-1.018.582-1.746.582-.582 0-1.02-.145-1.311-.145a6.925 6.925 0 0 1-1.02-.438v-1.311c.291.146.582.291 1.02.438.291.145.729.145 1.02.145.436 0 .729 0 1.02-.145.145-.146.291-.438.291-.582 0-.293-.146-.438-.438-.584-.145-.145-.438-.291-1.02-.436-.582-.146-1.02-.438-1.311-.729s-.436-.729-.436-1.166c0-.582.291-1.164.727-1.455.438-.438.875-.582 1.457-.582s1.02 0 1.311.145c.291.146.582.291.729.438l-.293 1.602h-.291v-.729c-.145 0-.291-.145-.436-.145-.146-.146-.438-.146-.729-.146s-.582.146-.729.291c-.291.146-.291.291-.291.438 0 .145 0 .438.146.438.145.145.436.291.873.436.582.291 1.164.438 1.455.875.439.291.586.726.586 1.31zM140.57 117.418h-1.601v5.68h-1.602v-5.68h-1.601v-1.164h4.804v1.164zM149.016 123.098h-1.602l-1.748-2.912h-.582v2.912h-1.602v-6.844h2.33c.727 0 1.311.291 1.602.582.436.291.727.729.727 1.455 0 .438-.145.729-.291 1.02-.291.291-.436.438-.873.584l2.039 3.203zm-2.477-4.66c0-.291 0-.582-.145-.729a1.12 1.12 0 0 0-.729-.291h-.582v2.039h.582c.291 0 .582 0 .729-.291.145-.146.145-.437.145-.728zM157.461 123.098h-1.602l-.582-1.166h-2.33l-.291 1.166h-1.604l2.914-6.844h.582l2.913 6.844zm-2.33-1.893l-1.02-2.186-.873 2.186h1.893zM164.449 123.098h-4.222v-6.844h1.457v5.678h2.765v1.166zM167.799 116.254h1.455v6.844h-1.455v-6.844zM178.574 123.098h-1.604l-.436-1.166h-2.477l-.291 1.166h-1.602l3.059-6.844h.438l2.913 6.844zm-2.33-1.893l-1.02-2.186-.873 2.186h1.893zM179.01 70.824c-.582.583-.873 1.165-.873 2.038 0 .729.291 1.311.873 1.893.584.583 1.166.874 1.893.874.875 0 1.457-.291 2.039-.874s.729-1.165.729-1.893c0-.874-.146-1.456-.729-2.038s-1.164-.874-2.039-.874c-.727.001-1.309.292-1.893.874zm4.222 4.222c-.582.729-1.311 1.02-2.33 1.02-.873 0-1.602-.291-2.184-1.02-.729-.582-1.02-1.311-1.02-2.184 0-1.019.438-1.747 1.02-2.33.582-.582 1.311-1.019 2.184-1.019 1.02 0 1.748.437 2.33 1.019.582.583 1.02 1.311 1.02 2.33 0 .874-.438 1.602-1.02 2.184zm-1.601-3.494c-.145 0-.436-.146-.873-.146h-.438v1.311h1.166c.145-.146.291-.292.291-.583s0-.436-.146-.582zm-.729-.582c.438 0 .729.146 1.02.146.291.146.438.437.438.874s0 .583-.291.729c-.146.145-.291.145-.582.145.291.146.582.146.727.437.146.146.146.292.146.437v.876h-.582v-.584c0-.292-.146-.583-.291-.728-.146-.146-.438-.146-.729-.146h-.438v1.456h-.727v-3.64h1.309v-.002z" fill="#0c0e0f"/></g></svg>