<svg xmlns="http://www.w3.org/2000/svg" width="2500" height="1141" viewBox="25.001 25 850 387.924"><path d="M660.178 285.798c16.389 7.078 26.177 20.393 26.177 35.564 0 20.095-15.315 32.073-40.978 32.073-27.232 0-39.885-24.213-43.125-31.607l-3.987-9.162h-50.998l-.084-.047h-47.25c-12.908 21.73-38.906 41.753-69.134 41.753-54.55 0-81.77-43.013-85.25-85.482h222.94v-9.31c0-17.606-1.814-34.18-5.203-49.566 6.38 19.743 20.93 40.214 51.427 54.704 11.137 5.366 27.955 13.369 45.465 21.08m-232.56-134.946c45.626 0 67.977 31.763 74.452 64.122H350.217c7.92-32.425 36.071-64.122 77.4-64.122m447.385.937V93.677h-47.393V24.996h-58.19v68.681H652.223c-54.125.03-93.408 36.764-93.408 87.38a99.1 99.1 0 0 0 1.564 17.38c-18.442-64.487-67.052-104.76-132.332-104.76-79.853 0-140.902 62.75-146.016 147.76v-18.072c0-71.516-57.659-129.688-128.518-129.688-70.86 0-128.518 58.172-128.518 129.688v185.932h58.9V223.365c0-38.715 31.219-70.245 69.618-70.245 38.38 0 69.618 31.524 69.618 70.245v185.932h58.9V264.64c5.15 85.314 66.98 148.284 147.866 148.284 49.38 0 92.936-28.945 117.609-62.468 18.406 39.7 54.376 62.468 98.802 62.468 51.494 0 103.613-33.195 103.613-96.666 0-37.987-21.86-69.027-61.561-87.433a892.917 892.917 0 0 1-13.094-6.171l-.531-.269a1172.812 1172.812 0 0 0-14.05-6.606c-25.949-11.752-38.297-20.358-38.297-37.522 0-15.1 13.387-26.469 29.912-26.469h117.12v165.568c0 52.717 42.48 95.562 94.69 95.562v-58.726c-20.125 0-36.501-16.526-36.501-36.836V151.79c23.281.018 41.21 0 47.393 0" fill="#98a4ac"/></svg>