<svg viewBox="0 0 256 256" fill="none" xmlns="http://www.w3.org/2000/svg">
  <style>
    path {
    fill: black;
    }
    @media (prefers-color-scheme: dark) {
    path { fill: white; }
    }
  </style>
  <path
    d="M140.844 1.77778L135.578 66.6311C133.088 66.3467 130.597 66.2044 128.036 66.2044C124.833 66.2044 121.702 66.4178 118.643 66.9156L115.654 35.4844C115.583 34.4889 116.365 33.6356 117.362 33.6356H122.699L120.137 1.84889C120.066 0.853333 120.848 0 121.774 0H139.208C140.204 0 140.987 0.853333 140.844 1.84889V1.77778ZM96.8677 4.97778C96.5831 4.05333 95.5869 3.48444 94.6618 3.84L78.2951 9.81333C77.3701 10.1689 76.9431 11.2356 77.3701 12.0889L90.6769 41.1022L85.6245 42.9511C84.6995 43.3067 84.2725 44.3733 84.6995 45.2267L98.2909 73.7422C103.201 71.04 108.538 68.9778 114.159 67.6978L96.9389 4.97778H96.8677ZM56.7338 23.04L94.3772 76.0889C89.6095 79.2178 85.2688 82.9156 81.5685 87.1822L59.0109 64.9956C58.2993 64.2844 58.3705 63.1467 59.0821 62.5067L63.2093 59.0933L40.7941 36.4089C40.0825 35.6978 40.1537 34.56 40.9364 33.92L54.2432 22.7556C55.026 22.1156 56.0934 22.2578 56.6627 23.04H56.7338ZM25.139 53.76C24.3563 53.1911 23.2177 53.4756 22.7196 54.3289L14.0382 69.4044C13.54 70.2578 13.8958 71.3244 14.7497 71.7511L43.6405 85.4044L40.9364 90.0267C40.4383 90.88 40.7941 92.0178 41.7192 92.3733L70.4676 105.529C72.5312 100.196 75.3064 95.2178 78.7221 90.7378L25.139 53.76ZM3.86235 94.72C4.00467 93.7244 5.0009 93.1556 5.92597 93.3689L68.9021 109.796C67.2654 115.129 66.3403 120.747 66.198 126.578L34.6744 124.018C33.6782 123.947 32.9666 123.022 33.18 122.027L34.1051 116.764L2.29684 113.778C1.30061 113.707 0.660175 112.782 0.802494 111.787L3.79119 94.6489L3.86235 94.72ZM1.51409 137.244C0.517857 137.316 -0.122578 138.24 0.0197405 139.236L3.0796 156.373C3.22192 157.369 4.21815 157.938 5.14322 157.724L36.0264 149.689L36.9515 154.951C37.0938 155.947 38.09 156.516 39.0151 156.302L69.4714 147.911C67.6924 142.649 66.5538 137.031 66.2692 131.271L1.44293 137.244H1.51409ZM11.6187 182.329C11.1206 181.476 11.4764 180.409 12.3303 179.982L71.108 152.107C73.314 157.369 76.3027 162.276 79.8606 166.684L54.1009 185.031C53.3182 185.6 52.1796 185.387 51.6815 184.533L48.9774 179.84L22.7196 197.973C21.9368 198.542 20.7983 198.258 20.3002 197.404L11.5476 182.329H11.6187ZM82.8493 170.098L37.0938 216.391C36.3822 217.102 36.4534 218.24 37.2361 218.88L50.6141 230.044C51.3969 230.684 52.4643 230.542 53.0335 229.76L71.535 203.733L75.6622 207.218C76.445 207.858 77.5835 207.716 78.1528 206.862L96.085 180.836C91.2461 177.849 86.7631 174.222 82.9205 170.098H82.8493ZM73.8121 244.409C72.887 244.053 72.4601 242.987 72.887 242.133L99.9988 182.969C104.98 185.529 110.388 187.449 116.01 188.516L108.04 219.093C107.826 220.018 106.759 220.587 105.834 220.231L100.782 218.382L92.3135 249.173C92.0289 250.098 91.0327 250.667 90.1076 250.311L73.7409 244.338L73.8121 244.409ZM120.493 189.298L115.227 254.151C115.156 255.147 115.938 256 116.864 256H134.298C135.294 256 136.077 255.147 135.934 254.151L133.373 222.364H138.71C139.706 222.364 140.488 221.511 140.417 220.516L137.429 189.084C134.369 189.582 131.238 189.796 128.036 189.796C125.474 189.796 122.983 189.653 120.493 189.298ZM183.255 13.7244C183.682 12.8 183.255 11.8044 182.33 11.4489L165.964 5.47556C165.038 5.12 164.042 5.68889 163.758 6.61333L155.29 37.4044L150.237 35.5556C149.312 35.2 148.316 35.7689 148.031 36.6933L140.062 67.2711C145.754 68.4089 151.091 70.3289 156.072 72.8178L183.255 13.7244ZM218.977 39.5378L173.222 85.8311C169.379 81.7067 164.967 78.08 160.057 75.0933L177.99 49.0667C178.559 48.2844 179.697 48.0711 180.48 48.7111L184.607 52.1956L203.109 26.1689C203.678 25.3867 204.817 25.2444 205.528 25.8844L218.906 37.0489C219.689 37.6889 219.689 38.8267 219.049 39.5378H218.977ZM243.741 75.9467C244.666 75.52 244.951 74.4533 244.452 73.6L235.7 58.5244C235.202 57.6711 234.063 57.4578 233.28 57.9556L207.023 76.0889L204.318 71.4667C203.82 70.6133 202.682 70.3289 201.899 70.9689L176.139 89.3156C179.697 93.7244 182.615 98.6311 184.892 103.893L243.67 76.0178L243.741 75.9467ZM252.992 99.5556L255.98 116.693C256.123 117.689 255.482 118.542 254.486 118.684L189.66 124.729C189.375 118.898 188.236 113.351 186.457 108.089L216.914 99.6978C217.839 99.4133 218.835 100.053 218.977 101.049L219.902 106.311L250.786 98.2756C251.711 98.0622 252.707 98.6311 252.849 99.6267L252.992 99.5556ZM250.074 162.489C250.999 162.702 251.995 162.133 252.138 161.138L255.126 144C255.269 143.004 254.628 142.151 253.632 142.009L221.824 139.022L222.749 133.76C222.891 132.764 222.251 131.911 221.254 131.769L189.731 129.209C189.589 135.04 188.663 140.658 187.027 145.991L250.003 162.418L250.074 162.489ZM233.28 201.6C232.782 202.453 231.644 202.667 230.861 202.169L177.278 165.191C180.694 160.711 183.469 155.733 185.532 150.4L214.281 163.556C215.206 163.982 215.562 165.049 215.064 165.902L212.36 170.524L241.25 184.178C242.104 184.604 242.46 185.671 241.962 186.524L233.28 201.6ZM161.623 179.769L199.266 232.818C199.835 233.6 200.974 233.742 201.686 233.102L214.992 221.938C215.775 221.298 215.775 220.16 215.135 219.449L192.72 196.764L196.847 193.351C197.63 192.711 197.63 191.573 196.918 190.862L174.36 168.676C170.589 172.942 166.319 176.711 161.552 179.769H161.623ZM161.267 252.018C160.342 252.373 159.346 251.804 159.061 250.88L141.841 188.16C147.462 186.88 152.799 184.818 157.709 182.116L171.301 210.631C171.727 211.556 171.301 212.622 170.375 212.907L165.323 214.756L178.63 243.769C179.057 244.693 178.63 245.689 177.705 246.044L161.338 252.018H161.267Z"
    fill="black" />

</svg>