<svg viewBox="0 0 300 300" fill="none" xmlns="http://www.w3.org/2000/svg">
  <path
    d="M149.997 149.728C189.439 149.728 221.413 117.754 221.413 78.3112C221.413 38.8689 189.439 6.89453 149.997 6.89453C110.554 6.89453 78.5801 38.8689 78.5801 78.3112C78.5801 117.754 110.554 149.728 149.997 149.728Z"
    fill="url(#paint0_linear_69_158)" />
  <path
    d="M143.911 291.36C97.2698 261.607 58.4796 221.059 30.8214 173.146C29.7523 171.226 29.5198 168.95 30.1785 166.853C30.8371 164.756 32.329 163.022 34.3042 162.057L88.3871 135.516C92.1703 133.672 96.7359 135.071 98.8354 138.719C126.179 184.547 166.61 221.145 214.928 243.802C197.108 261.757 177.375 277.705 156.081 291.36C152.357 293.685 147.635 293.685 143.911 291.36Z"
    fill="url(#paint1_linear_69_158)" />
  <path
    d="M156.081 291.36C202.728 261.615 241.52 221.065 269.171 173.146C270.242 171.231 270.481 168.959 269.83 166.863C269.179 164.766 267.696 163.029 265.728 162.057L211.605 135.516C207.822 133.672 203.256 135.071 201.157 138.719C173.819 184.552 133.386 221.151 85.0645 243.802C102.873 261.769 122.608 277.718 143.911 291.36C147.635 293.685 152.357 293.685 156.081 291.36Z"
    fill="#2684FF" />
  <defs>
    <linearGradient id="paint0_linear_69_158" x1="7220.25" y1="2380.78" x2="7220.25" y2="17044.4"
      gradientUnits="userSpaceOnUse">
      <stop stop-color="#2684FF" />
      <stop offset="0.82" stop-color="#0052CC" />
    </linearGradient>
    <linearGradient id="paint1_linear_69_158" x1="7652.87" y1="5070.46" x2="11493.7" y2="13109"
      gradientUnits="userSpaceOnUse">
      <stop stop-color="#2684FF" />
      <stop offset="0.62" stop-color="#0052CC" />
    </linearGradient>
  </defs>
</svg>