<svg width="2500" height="537" viewBox="0 0 512 110" xmlns="http://www.w3.org/2000/svg" preserveAspectRatio="xMinYMin meet"><path d="M89.285 49.987l1.064-10.64c-.202-4.888-1.364-9.299-3.453-13.352l-5.59 7.73c.773 2.575 1.084 5.354.852 8.257-1.064 13.294-13.142 24.071-26.98 24.071-3.248 0-6.306-.594-9.066-1.675l33.408-34.9 14.108-14.31-10.052 5.314C76.912 12.094 66.204 7.114 53.924 7.605 32.8 8.45 14.853 25.635 13.838 45.99c-1.015 20.354 15.283 36.17 36.406 35.326 18.63-.744 34.789-14.203 39.041-31.33zM127.23 58.4c.573-5.706.098-9.85-1.419-12.424-1.48-2.572-4.086-3.86-7.809-3.863-1.637 0-3.298.262-4.983.783-1.653.521-3.314 1.304-4.987 2.349l-2.948 29.494c.93.417 1.961.715 3.096.89 1.164.174 2.547.258 4.151.258 4.455 0 7.905-1.442 10.352-4.331 2.444-2.924 3.96-7.31 4.547-13.156zm41.22 30.902c-7.449 0-12.724-1.527-15.828-4.593-3.072-3.063-4.258-8.074-3.56-15.035l2.741-27.405h-6.674c1.159 4.416 1.434 9.672.826 15.766-.935 9.361-4.075 16.914-9.416 22.656-5.308 5.742-11.442 8.611-18.4 8.611-2.925 0-5.434-.33-7.523-.99-2.093-.663-4.286-1.688-6.582-3.08l-2.444 24.43H83.32l3.308-33.098c-9.756 13.063-25.192 21.655-41.927 21.655-26.769 0-46.708-21.985-44.54-49.11C2.333 21.986 25.791 0 52.56 0c13.57 0 25.386 5.649 33.455 14.757l15.397-5.898-9.096 15.166a45.004 45.004 0 0 1 2.345 5.507h14.94l-.611 6.108c2.908-2.297 5.826-4.16 8.753-5.587 2.927-1.426 6.214-2.138 9.871-2.14 3.036 0 5.71.54 8.022 1.617h17.438l1.675-16.76h18.273l-1.678 16.76h17.594l-1.274 12.738h-17.593l-2.079 20.777a242.575 242.575 0 0 0-.485 5.376c-.12 1.533.021 2.908.422 4.124.366 1.22 1.121 2.193 2.267 2.924 1.184.698 2.957 1.045 5.324 1.045.974 0 2.264-.21 3.874-.628 1.642-.417 2.793-.799 3.456-1.148h1.565l-1.287 12.894a51.328 51.328 0 0 1-6.437 1.2c-2.259.314-5.006.47-8.24.47zM32.045 41.981C33.11 28.688 45.19 17.908 59.027 17.908c6.937 0 13 2.711 17.187 7.087l-41.032 30.34c-2.351-3.82-3.53-8.413-3.137-13.352zm173.289 46.172h-18.27l5.862-58.623h18.27l-5.862 58.623zm7.22-66.975h-19.315l1.424-14.25h19.315l-1.424 14.25zm67.024 66.975l2.93-29.284c.289-2.89.48-5.322.573-7.308.092-1.983-.058-3.603-.456-4.855-.396-1.255-1.124-2.158-2.182-2.714-1.02-.59-2.52-.887-4.504-.887-1.393 0-2.798.314-4.22.939-1.415.592-2.98 1.445-4.69 2.558l-4.158 41.553h-18.373l2.93-29.284c.283-2.853.455-5.27.515-7.255.098-2.019-.052-3.653-.45-4.907-.396-1.255-1.127-2.158-2.183-2.714-1.02-.59-2.504-.887-4.451-.887-1.498 0-2.995.35-4.49 1.045a35.992 35.992 0 0 0-4.421 2.455l-4.155 41.553h-18.27l5.862-58.623h18.273l-.65 6.473c3.247-2.54 6.263-4.526 9.051-5.952 2.788-1.427 5.835-2.139 9.14-2.141 3.585 0 6.648.853 9.193 2.558 2.545 1.708 4.359 4.247 5.45 7.621 3.84-3.27 7.397-5.777 10.67-7.517 3.309-1.776 6.563-2.662 9.768-2.662 2.714 0 5.106.436 7.177 1.304 2.07.87 3.766 2.176 5.09 3.914 1.445 1.88 2.44 4.124 2.98 6.734.579 2.575.658 5.952.24 10.128l-3.815 38.16h-18.374v-.005zm47.584-66.975h-19.314l1.426-14.25h19.315l-1.427 14.25zm47.429 52.985c-2.16-4.526-2.913-10.046-2.261-16.563.957-9.569 4.47-17.209 10.54-22.918 6.069-5.706 14.044-8.56 23.93-8.562 8.976 0 15.487 2.42 19.527 7.256 4.04 4.839 5.608 11.764 4.708 20.776l-.658 6.577h-40.04c-.097 2.714.25 4.997 1.04 6.838.794 1.811 1.937 3.254 3.431 4.332 1.46 1.08 3.208 1.863 5.246 2.348 2.043.456 4.299.68 6.77.68a29.75 29.75 0 0 0 6.33-.68c2.101-.485 4.043-1.113 5.827-1.88a38.912 38.912 0 0 0 4.337-2.14c1.364-.764 2.477-1.443 3.336-2.038h1.931l-1.508 15.087a295.014 295.014 0 0 0-4.29 1.669c-1.27.488-3.007.993-5.216 1.514-2.035.52-4.13.922-6.28 1.2-1.587.237-3.433.382-5.534.442l-85.818.044H301.67l5.864-58.623h18.27l-4.435 44.354L350.53 43.25l-21.764.079 1.582-13.44 44.262-.367-1.184 11.849-31.31 32.783h32.475v.009zm38.88-24.446c.281-3.862-.33-6.803-1.833-8.821-1.467-2.019-3.944-3.025-7.422-3.028-3.548 0-6.44 1.061-8.671 3.183-2.196 2.125-3.581 5.011-4.154 8.666h22.08zM512 27.947l-37.612 80.131H454.76l11.167-22.915-12.452-45.126-4.653 46.534h-18.273l8.123-81.227h18.27l-2.261 22.604h14.666l8.644 36.752 15.213-36.752H512z" fill="#707070"/></svg>