<svg width="144" height="139" viewBox="0 0 144 139" fill="none" xmlns="http://www.w3.org/2000/svg">
  <g clip-path="url(#clip0_51_268)">
    <path
      d="M48.4004 76.4V93.1C61.1004 93.1 73.3004 88.2 82.3004 79.5C91.3004 70.8 96.4004 58.9 96.4004 46.6H79.2004C79.2004 54.5 75.9004 62.1 70.2004 67.7C64.4004 73.2 56.6004 76.4 48.4004 76.4Z"
      fill="#3BE081" />
    <path
      d="M48.3996 122.4C40.2996 122.4 32.4996 119.3 26.7996 113.7C21.0996 108.1 17.7996 100.6 17.7996 92.7C17.7996 84.8 20.9996 77.3 26.7996 71.7C32.4996 66.1 40.2996 63 48.3996 63V46.4C42.0996 46.4 35.8996 47.6 30.1996 49.9C24.3996 52.2 19.1996 55.6 14.6996 59.9C10.2996 64.2 6.69961 69.3 4.29961 74.9C1.89961 80.5 0.699609 86.5 0.599609 92.6C0.599609 98.7 1.79961 104.7 4.19961 110.3C6.59961 115.9 10.0996 121 14.4996 125.3C18.8996 129.6 24.1996 133 29.9996 135.3C35.7996 137.6 41.9996 138.8 48.1996 138.8H48.2996V122.4H48.3996Z"
      fill="#0037FF" />
    <path
      d="M48.4004 122.4V139C61.0004 139 73.2004 134.1 82.1004 125.5C91.0004 116.9 96.1004 105.1 96.1004 92.8H79.0004C79.0004 100.7 75.8004 108.2 70.0004 113.8C64.3004 119.2 56.5004 122.3 48.4004 122.4Z"
      fill="#00CCFF" />
    <path
      d="M48.4004 30V46.6C61.0004 46.6 73.2004 41.7 82.1004 33.1C91.0004 24.4 96.1004 12.7 96.1004 0.399994H79.0004C79.0004 8.29999 75.8004 15.8 70.0004 21.4C64.3004 26.8 56.5004 30 48.4004 30Z"
      fill="#861DFF" />
    <path
      d="M96.2998 30V46.6C108.9 46.6 121.1 41.7 130 33.1C138.9 24.4 144 12.7 144 0.399994H126.9C126.9 8.29999 123.7 15.8 117.9 21.4C112.2 26.8 104.5 30 96.2998 30Z"
      fill="#FF8110" />
  </g>
  <defs>
    <clipPath id="clip0_51_268">
      <rect width="144" height="139" fill="white" />
    </clipPath>
  </defs>
</svg>