<svg viewBox="0 0 401 400" fill="none" xmlns="http://www.w3.org/2000/svg">
  <path
    d="M180.487 30.1738C123.727 30.1738 81.0554 44.521 56.2484 69.1451C43.7958 81.6514 34.0615 96.5803 27.6509 113.001C21.2403 129.422 18.2919 146.983 18.9888 164.589C18.9888 222.792 48.4909 285.064 89.7331 326.173C100.452 336.958 137.611 369.825 186.307 369.825C235.001 369.825 273.078 339.3 296.355 316.404C341.375 271.532 382.107 194.301 382.107 143.425C382.315 122.079 374.102 101.506 359.239 86.1379C320.141 47.1666 236.022 30.1738 180.487 30.1738ZM249.292 231.238C242.453 239.012 234.085 245.308 224.711 249.735C215.334 254.162 205.148 256.628 194.78 256.982C177.489 256.631 160.987 249.715 148.637 237.648C134.56 223.685 126.316 204.924 125.565 185.144C125.326 176.895 126.769 168.683 129.805 161.006C132.84 153.328 137.406 146.343 143.227 140.474C150.9 133.403 159.93 127.955 169.772 124.457C179.615 120.96 190.067 119.485 200.496 120.123C211.275 119.514 222.066 121.154 232.173 124.939C242.281 128.723 251.483 134.569 259.196 142.102C263.684 146.587 267.224 151.924 269.609 157.796C271.993 163.668 273.174 169.957 273.078 176.291C272.52 196.971 264.003 216.644 249.292 231.238Z"
    fill="#5951FF" />
</svg>