<!-- Felipe: this took some effort... -->

<svg viewBox="0 0 190 192" fill="none" xmlns="http://www.w3.org/2000/svg">
  <style>
    path {
    fill: black;
    }
    @media (prefers-color-scheme: dark) {
    path { fill: white; }
    }
</style>

  <g clip-path="url(#clip0_7_356)">
    <path fill-rule="evenodd" clip-rule="evenodd"
      d="M75.325 0L16.53 15.399L0.327 74.524L20.592 95.331L0 115.794L15.25 175.178L73.789 191.535L94.385 171.068L114.65 191.87L173.444 176.471L189.643 117.342L169.382 96.543L189.974 76.08L174.725 16.692L116.178 0.334999L95.589 20.798L75.325 0ZM39.245 26.772L70.215 18.656L83.76 32.56L64.008 52.186L39.245 26.772ZM107.233 32.746L120.995 19.073L151.833 27.69L126.666 52.695L107.233 32.746ZM18.883 69.67L27.415 38.53L52.17 63.942L32.422 83.57L18.882 69.666L18.883 69.67ZM138.302 64.647L163.469 39.633L171.496 70.915L157.738 84.592L138.302 64.647ZM75.648 64.133L95.399 44.507L114.828 64.457L95.08 84.083L75.648 64.133ZM44.066 95.517L63.814 75.89L83.254 95.84L63.499 115.466L44.066 95.517ZM106.724 96.03L126.472 76.404L145.904 96.353L126.153 115.98L106.724 96.03ZM18.47 120.955L32.236 107.274L51.665 127.228L26.505 152.229L18.47 120.955ZM75.139 127.414L94.89 107.787L114.323 127.737L94.575 147.363L75.139 127.414ZM137.793 127.931L157.544 108.305L171.088 122.204L162.56 153.345L137.793 127.931ZM38.141 164.185L63.305 139.171L82.745 159.12L68.979 172.801L38.141 164.185ZM106.215 159.31L125.963 139.684L150.722 165.102L119.755 173.214L106.215 159.31Z"
      fill="black" />
  </g>
  <defs>
    <clipPath id="clip0_7_356">
      <rect width="190" height="192" fill="white" />
    </clipPath>
  </defs>
</svg>