<svg version="1.2" xmlns="http://www.w3.org/2000/svg" viewBox="0 0 1491 1408" width="1491" height="1408">
	<title>procore-svg</title>
	<style>
		.s0 { fill: #000000 } 
		.s1 { fill: #ff5200 } 
	</style>
	<path id="_Compound_Path_" class="s0" d="m1311.3 18.5c36.3 13.8 69.3 35.1 96.8 62.4 27.5 27.4 49 60.2 63.1 96.4 14.1 36.1 20.5 74.9 18.7 113.6v226h-338l-147.2-254h-518.3l-256.1 442.7 250.9 442.7h518.3l147.2-254h338v226c1.3 38-5.2 75.9-19.2 111.4-14 35.4-35.1 67.6-62 94.5-27 26.9-59.1 48-94.6 62-35.4 14-73.3 20.5-111.4 19.2h-908.1c-38.1 1.3-76.1-5.2-111.5-19.2-35.5-13.9-67.8-35-94.8-61.9-27-27-48.2-59.1-62.3-94.5-14.1-35.5-20.7-73.4-19.6-111.5v-829.4c-1.6-38.3 4.8-76.6 18.7-112.4 13.9-35.8 35-68.4 62.1-95.6 27-27.3 59.4-48.6 95.1-62.8 35.7-14.1 73.9-20.8 112.3-19.4h908.1c38.8-2.1 77.6 4 113.8 17.8z"/>
	<path id="Layer" class="s1" d="m607.7 473.4h269.5l134.8 232.2-134.8 232.2h-269.5l-134.8-232.2 134.8-232.2z"/>
</svg>