<svg width="55" height="55" viewBox="0 0 55 55" fill="none" xmlns="http://www.w3.org/2000/svg">
  <path
    d="M31.1758 19.2417H23.3727V27.4917H31.1758C33.456 27.4917 35.3031 25.6446 35.3031 23.3644C35.3031 21.0888 33.4583 19.2417 31.1758 19.2417ZM27.5 -0.00830078C12.3108 -0.00830078 0 12.3025 0 27.4917C0 42.6809 12.3108 54.9917 27.5 54.9917C42.6892 54.9917 55 42.6809 55 27.4917C55 12.3025 42.6892 -0.00830078 27.5 -0.00830078ZM31.1758 32.9917H23.3727V41.2417H17.8773V13.7417H31.1781C36.4925 13.7417 40.8031 18.05 40.8031 23.3644C40.8031 28.6834 36.4925 32.9917 31.1758 32.9917Z"
    fill="#D55124" />
</svg>