<svg viewBox="0 0 137 137" fill="none" xmlns="http://www.w3.org/2000/svg">
  <path
    d="M127.353 72.6755C127.353 83.2645 126.165 92.6755 123.791 103.264C120.228 118.558 109.541 129.146 94.1039 132.675C73.9169 137.381 52.5424 137.381 32.3555 132.675C18.1059 129.146 6.23134 117.381 3.85634 103.264C1.48144 92.6755 0.293945 82.0875 0.293945 72.6755C0.293945 62.0877 1.48144 52.6759 3.85634 42.0877C7.41874 26.7936 18.1059 16.2053 33.543 12.6759C43.0427 10.323 53.7299 9.14648 64.4171 9.14648C75.1038 9.14648 84.6038 10.323 95.2908 12.6759C110.728 16.2053 121.416 26.7936 124.978 42.0877C126.165 51.4995 127.353 62.0877 127.353 72.6755Z"
    fill="#80ADFD" />
  <path
    d="M103.235 65.6179C121.103 65.6179 135.588 51.133 135.588 33.265C135.588 15.397 121.103 0.912109 103.235 0.912109C85.3667 0.912109 70.8818 15.397 70.8818 33.265C70.8818 51.133 85.3667 65.6179 103.235 65.6179Z"
    fill="#005AFF" />
</svg>