<svg viewBox="0 0 160 160" fill="none" xmlns="http://www.w3.org/2000/svg">
  <path
    d="M35.4443 32.0953C35.4443 21.562 45.4193 13.1354 58.5443 13.1354C75.3443 13.1354 85.3193 21.0354 91.0943 61.0619H94.7693L100.019 6.28872C62.2193 -6.87792 16.0193 7.34206 15.4943 46.3153C15.4943 88.9752 83.2193 88.9752 83.2193 127.948C83.2193 139.535 73.2443 146.908 61.6943 146.908C31.7693 146.908 24.9443 121.628 23.3693 95.2952H19.1693L9.19434 144.802C9.19434 144.802 31.2443 157.968 55.3943 157.968C84.2693 157.442 103.169 136.375 104.219 114.255C104.219 71.5952 35.4443 62.6419 35.4443 32.0953Z"
    fill="#06492E" />
  <path
    d="M120.355 143.223C120.355 135.323 126.656 127.949 135.581 127.949C144.506 127.949 150.805 134.796 150.805 143.223C150.805 151.649 144.506 158.496 135.581 158.496C126.656 158.496 120.355 151.123 120.355 143.223Z"
    fill="#B4D625" />
</svg>