<svg viewBox="0 0 62 61" fill="none" xmlns="http://www.w3.org/2000/svg">
  <style>
    path {
    fill: black;
    }
    @media (prefers-color-scheme: dark) {
    path { fill: white; }
    }
  </style>
  <g clip-path="url(#clip0_77_238)">
    <path
      d="M30.9744 48.7199C30.9549 48.3667 30.9297 48.1201 30.9297 47.8735C30.9297 41.4994 30.9297 35.1251 30.9297 28.7488C30.9297 28.2613 30.9297 27.8951 31.5688 27.6728C38.022 25.4515 44.4577 23.1891 50.8993 20.938C51.0455 20.8876 51.2013 20.8614 51.4176 20.8091C51.4449 21.1098 51.4858 21.3527 51.4858 21.5937C51.4858 27.9997 51.4897 34.4058 51.4956 40.8118C51.4956 41.3256 51.4331 41.6581 50.8194 41.8692C44.3623 44.0867 37.9187 46.3436 31.4694 48.5947C31.3467 48.6227 31.216 48.6545 30.9744 48.7199Z"
    />
    <path
      d="M29.3702 48.7199C26.8408 47.7725 24.4094 46.8511 21.9744 45.9486C18.3537 44.5976 14.733 43.2502 11.1104 41.9029C10.7128 41.7552 10.3605 41.6712 10.3623 41.0432C10.3932 34.4168 10.3823 27.7904 10.3859 21.1642C10.3968 21.0445 10.4168 20.9268 10.4422 20.8091C10.7455 20.9063 11.0342 20.9866 11.312 21.0894C17.0917 23.244 22.8696 25.4024 28.6457 27.5606C29.0724 27.7195 29.4628 27.8092 29.4592 28.4857C29.4283 35.0485 29.4411 41.6132 29.4374 48.176C29.4374 48.2976 29.4084 48.4208 29.3702 48.7199Z"
    />
    <path
      d="M54.643 50.3663C55.6913 50.3663 56.5966 50.3572 57.5019 50.3663C58.3196 50.3768 58.8422 50.8514 58.8284 51.545C58.8161 52.216 58.3196 52.6784 57.5373 52.686C55.7189 52.6996 53.9006 52.6996 52.0838 52.686C51.3153 52.686 50.8265 52.1964 50.8342 51.5148C50.8542 49.7799 50.8818 48.0465 50.9033 46.3116C50.9141 45.4049 51.2676 44.9757 52.0146 44.9772C52.7616 44.9787 53.1413 45.417 53.1674 46.3041C53.1859 46.9403 53.1936 47.578 53.2089 48.2143C53.2089 48.2324 53.2381 48.249 53.315 48.3397C53.6593 47.8863 54.0036 47.4647 54.3217 47.0204C63.4979 34.1477 60.3239 16.3983 47.2329 7.37622C38.3472 1.25271 26.7255 0.528827 17.1251 5.50078C16.5995 5.77734 16.0938 6.08865 15.6111 6.4317C15.0885 6.79591 14.5813 6.80951 14.1248 6.39392C13.6345 5.94055 13.6422 5.38895 14.0218 4.88269C14.2093 4.64089 14.446 4.4399 14.715 4.29029C21.1138 0.589276 27.989 -0.692249 35.3023 0.34899C42.0177 1.3056 47.7893 4.17392 52.6033 8.85572C57.4558 13.5753 60.493 19.2696 61.4813 25.9115C62.8109 34.8399 60.6436 42.9098 54.915 50.0081C54.852 50.0852 54.7952 50.1728 54.643 50.3663Z"
    />
    <path
      d="M7.01075 11.4274H4.39923C3.54032 11.417 2.99896 10.9501 3.0171 10.2543C3.03525 9.55854 3.53124 9.16603 4.37806 9.16455H9.51944C10.5613 9.16455 10.8668 9.58381 10.8305 10.6305C10.7745 12.2362 10.7987 13.8463 10.7987 15.4535C10.7987 16.3039 10.4827 16.7232 9.78256 16.7529C9.01438 16.7856 8.64238 16.4006 8.62273 15.513C8.6076 14.7934 8.62273 14.0723 8.45034 13.2829C8.29005 13.4836 8.12371 13.6798 7.96796 13.8865C-0.184168 24.6684 0.605186 39.6519 9.92471 49.4763C15.9492 55.8263 23.4753 58.7968 32.2852 58.4623C36.5117 58.2958 40.643 57.1643 44.3478 55.1572C44.6396 55.0011 44.933 54.848 45.2309 54.7112C45.9114 54.3901 46.5087 54.5358 46.8187 55.0918C47.1438 55.6746 46.9321 56.2976 46.2531 56.6722C43.9894 57.936 41.579 58.9217 39.0718 59.61C25.2128 63.3567 10.4343 57.3621 3.85636 44.8867C-2.12882 33.5324 -1.07483 22.4888 6.51476 12.0771C6.64481 11.9002 6.78241 11.7277 7.01075 11.4274Z"
    />
    <path
      d="M10.3623 19.3352C12.9944 18.3433 15.3405 17.4609 17.6867 16.5746C21.6229 15.0898 25.5514 13.5888 29.4975 12.1344C29.9499 11.966 30.4414 11.9499 30.9016 12.0898C37.09 14.3818 43.2628 16.7145 49.4375 19.0389C49.5883 19.0937 49.7313 19.1627 50.025 19.2905C49.7234 19.4488 49.5531 19.5622 49.3671 19.6333C43.2316 21.9476 37.09 24.2539 30.9428 26.5541C30.5511 26.7082 30.1222 26.7265 29.7188 26.6089C23.3601 24.2437 17.0051 21.8381 10.3623 19.3352Z"
    />
  </g>
  <defs>
    <clipPath id="clip0_77_238">
      <rect width="62" height="61" />
    </clipPath>
  </defs>
</svg>