<svg viewBox="0 0 179 181" fill="none" xmlns="http://www.w3.org/2000/svg">
  <g clip-path="url(#clip0_69_213)">
    <path
      d="M108.686 122.35C113.701 122.35 117.749 126.43 117.749 131.485V171.047C117.749 176.103 113.701 180.183 108.686 180.183H9.06307C4.0477 180.183 0 176.103 0 171.047V70.6194C0 65.5644 4.0477 61.4844 9.06307 61.4844H48.3128C53.3282 61.4844 57.3758 65.5644 57.3758 70.6194V116.272C57.3758 119.614 60.0903 122.362 63.4179 122.362H108.71L108.686 122.35Z"
      fill="#51A9E3" />
    <path
      d="M65.8978 62.0238H111.19C114.506 62.0238 117.232 64.7598 117.232 68.1144V113.767C117.232 118.822 121.28 122.902 126.295 122.902H165.545C170.56 122.902 174.607 118.822 174.607 113.767V13.3266C174.607 8.27129 170.56 4.19141 165.545 4.19141H65.8978C60.8828 4.19141 56.835 8.27129 56.835 13.3266V52.8888C56.835 57.9444 60.8828 62.0238 65.8978 62.0238Z"
      fill="#51A9E3" />
  </g>
  <defs>
    <clipPath id="clip0_69_213">
      <rect width="179" height="180" fill="white" transform="translate(0 0.5)" />
    </clipPath>
  </defs>
</svg>