<svg xmlns="http://www.w3.org/2000/svg" width="2500" height="2500" viewBox="0 0 192.756 192.756"><path fill-rule="evenodd" clip-rule="evenodd" fill="#fff" d="M0 0h192.756v192.756H0V0z"/><path fill-rule="evenodd" clip-rule="evenodd" fill="#ca0088" stroke="#000" stroke-width=".753" stroke-miterlimit="2.613" d="M11.256 25.166h167.806l-10.955 27.897 11.532 32.548H11.256V25.166z"/><path fill="none" stroke="#000" stroke-width=".753" stroke-miterlimit="2.613" d="M12.986 26.678h163.727l-10.408 26.501 10.955 30.92H12.986V26.678z"/><path d="M33.962 45.217h7.136v-8.282s0-5.23-8.217-5.449c-7.566-.201-9.516 6.32-9.516 6.32v10.462l10.164 13.513V72.46s-2.595 2.397-2.811-1.308v-6.756H24.23v9.807s.433 4.578 7.786 4.578c7.352 0 9.299-5.231 9.299-5.231V60.038l-9.731-12.859v-6.974s.865-1.526 2.378-.218v5.23zM64.669 77.91l-9.082-22.885 8.217-20.706h-7.352l-5.191 12.143V33.883h-7.785V77.91h7.785V61.325l6.704 16.585h6.704zM164.789 77.91l-9.082-22.885 8.217-20.706h-7.352l-5.189 12.143V33.883h-7.785V77.91h7.785V61.325l6.703 16.585h6.703z" fill-rule="evenodd" clip-rule="evenodd" fill="#fff22d" stroke="#000" stroke-width=".753" stroke-miterlimit="2.613"/><path fill-rule="evenodd" clip-rule="evenodd" fill="#fff22d" stroke="#000" stroke-width=".753" stroke-miterlimit="2.613" d="M73.103 77.691h3.459v-17l6.271-26.372h-7.352l-2.162 16.129-2.162-16.129h-7.353l6.271 26.372v17h3.46-.432zM97.518 54.35c3.447-.119 3.264-3.031 3.264-3.031V37.807c.432-3.487-3.242-3.269-3.242-3.269H83.266v43.59h6.812V57.205h3.568l.216.177v20.746h6.81V58.076c0-3.747-2.438-3.788-3.154-3.726zm-3.872-2.376h-3.46V39.115h3.46v12.859zM111.811 32.358s-8.219-.653-8.219 7.192v32.039c0 7.846 8.219 7.192 8.219 7.192s8.648.217 8.434-5.014V37.371c.214-5.23-8.434-5.013-8.434-5.013zm1.945 39.885h-3.027V39.115h3.027v33.128zM140.354 60.8v12.968c.217 5.231-8.434 5.014-8.434 5.014s-8.217.653-8.217-7.192V53.5 39.551c0-7.846 8.217-7.192 8.217-7.192s8.65-.217 8.434 5.013v10.244h-6.486v-8.5h-3.027v33.128h3.027V60.8h6.486z"/><path fill-rule="evenodd" clip-rule="evenodd" fill="#fff22d" d="M180.791 88.589l3.461 6.102H11.04v-6.102h169.751zM14.997 117.266c0 1.137.22 1.643 1.239 1.658v.395h-5.692v-.395c1.019-.016 1.239-.521 1.239-1.658v-7.191c-1.475.031-2.572.822-2.948 2.26l-.33-.062.769-3.605c.187.35.909.254 1.238.254h5.629c.345 0 1.16.078 1.396-.254l.721 3.605-.312.062c-.534-1.406-1.412-2.166-2.948-2.26v7.191h-.001zM20.097 118.182c-1.129-1.045-1.647-2.576-1.647-4.094 0-3.398 2.556-5.422 5.802-5.422 1.412 0 2.98.365 4.045 1.361 1.146 1.057 1.648 2.639 1.648 4.17 0 1.424-.502 2.926-1.553 3.904-1.066.996-2.713 1.469-4.141 1.469-1.44 0-3.072-.394-4.154-1.388zm6.083-1.328c.252-.633.314-1.406.314-2.086 0-.98-.095-2.039-.439-2.955-.345-.869-1.081-1.803-2.101-1.803-.814 0-1.381.648-1.693 1.344-.282.648-.362 1.453-.362 2.15 0 .979.126 2.053.486 2.953.345.871 1.051 1.771 2.055 1.771.847.001 1.458-.615 1.74-1.374zM30.436 108.92H35.5v.395c-.768.016-1.018.459-1.018 1.66v4.947c0 .568.045 1.105.421 1.562.393.506 1.066.744 1.678.744.674 0 1.365-.174 1.819-.711.501-.553.501-1.422.501-2.102v-4.441c0-1.139-.22-1.645-1.003-1.66v-.395h3.184v.395c-.58.033-.864.396-.864 1.281v4.629c.064 1.297-.045 2.436-1.111 3.318-.941.76-2.227 1.027-3.402 1.027-1.036 0-2.244-.174-3.138-.709-1.128-.697-1.3-1.613-1.3-2.861v-5.404c0-.885-.252-1.248-.832-1.281v-.394h.001zM46.186 108.92l.016.395c-.643-.014-.863.475-.863 1.582v6.289c0 .316-.173 1.09 1.145 1.09 1.835 0 3.278-1.629 3.905-3.225l.314.111-1.303 4.408c-.172-.299-.736-.252-1.033-.252h-7.105v-.395c.644.016.864-.473.864-1.58v-6.447c0-1.107-.22-1.596-.864-1.582v-.395h4.924v.001zM52.73 118.182c-1.129-1.045-1.646-2.576-1.646-4.094 0-3.398 2.556-5.422 5.801-5.422 1.412 0 2.979.365 4.045 1.361 1.146 1.057 1.647 2.639 1.647 4.17 0 1.424-.502 2.926-1.553 3.904-1.066.996-2.714 1.469-4.14 1.469-1.441 0-3.071-.394-4.154-1.388zm6.083-1.328c.252-.633.314-1.406.314-2.086 0-.98-.094-2.039-.439-2.955-.344-.869-1.081-1.803-2.101-1.803-.815 0-1.379.648-1.694 1.344-.282.648-.359 1.453-.359 2.15 0 .979.125 2.053.484 2.953.344.871 1.05 1.771 2.055 1.771.846.001 1.458-.615 1.74-1.374zM63.069 108.92h5.064v.395c-.769.016-1.019.459-1.019 1.66v4.947c0 .568.048 1.105.423 1.562.392.506 1.068.744 1.679.744.674 0 1.363-.174 1.818-.711.501-.553.501-1.422.501-2.102v-4.441c0-1.139-.22-1.645-1.003-1.66v-.395h3.183v.395c-.579.033-.861.396-.861 1.281v4.629c.063 1.297-.047 2.436-1.113 3.318-.941.76-2.227 1.027-3.403 1.027-1.035 0-2.241-.174-3.135-.709-1.13-.697-1.302-1.613-1.302-2.861v-5.404c0-.885-.249-1.248-.831-1.281v-.394h-.001zM82.646 112.049l-.329.047c-.439-1.152-1.695-2.164-2.948-2.164-.706 0-1.6.426-1.6 1.248 0 .791.926 1.012 1.505 1.201l1.834.553c1.428.441 2.604 1.105 2.604 2.812 0 1.266-.629 2.215-1.662 2.893-.989.664-2.352.932-3.528.932-.8 0-1.412-.094-2.196-.236-.297-.062-.737-.158-1.035-.158-.361 0-.611.143-.848.379l-.345-4.408.345-.047c.299 1.834 1.789 3.207 3.653 3.207.972 0 2.165-.395 2.165-1.564 0-.869-.831-1.105-1.49-1.311l-1.583-.523c-.596-.188-1.333-.459-1.819-.852-.564-.459-.926-1.186-.926-1.914 0-1.027.612-2.037 1.443-2.621.862-.602 1.913-.855 2.948-.855.596 0 1.036.096 1.614.207.252.047.582.125.817.125.312 0 .751-.109.971-.381l.41 3.43zM84.158 119.318v-.395c.642.016.862-.473.862-1.58v-6.447c0-1.107-.22-1.596-.862-1.582v-.395h7.117c.393.016 1.02.062 1.318-.254l.799 3.635-.345.111c-.454-1.533-1.802-2.449-3.37-2.449-1.537 0-1.442.584-1.442 1.85v.504h.502c1.034 0 2.069.111 2.054-1.279l.312-.047.691 4.014-.314.033c-.173-.443-.424-.854-.769-1.172-.611-.568-1.27-.504-2.054-.504h-.422v3.049c-.127 1.551.47 1.896 1.52 1.865 2.008 0 3.292-1.217 4.124-2.939l.33.125-1.333 4.109c-.252-.268-.597-.252-.942-.252h-7.776zM117.395 108.795v8.264c0 .916 0 1.803 1.158 1.865v.395h-5.252v-.395c1.16-.078 1.16-.963 1.16-1.881v-5.184c0-.68.031-1.596-.877-1.596a2.16 2.16 0 0 0-.455.047l-.078-.395 4.344-1.12zM126.338 119.57c-2.994 0-4.688-2.447-4.688-5.293 0-2.908 1.553-5.611 4.721-5.611 3.104 0 4.75 2.529 4.75 5.438 0 2.875-1.709 5.466-4.783 5.466zm-1.395-7.931c-.221.742-.268 1.707-.268 2.479 0 .809.047 1.646.252 2.438.172.631.658 1.705 1.443 1.705.877 0 1.316-1.09 1.506-1.816.172-.713.219-1.518.219-2.26 0-.869-.047-1.787-.299-2.625-.203-.648-.627-1.58-1.426-1.58-.784-.001-1.239 1.01-1.427 1.659zM137.01 119.57c-2.996 0-4.689-2.447-4.689-5.293 0-2.908 1.551-5.611 4.719-5.611 3.105 0 4.75 2.529 4.75 5.438-.001 2.875-1.708 5.466-4.78 5.466zm-1.397-7.931c-.219.742-.266 1.707-.266 2.479 0 .809.047 1.646.25 2.438.172.631.658 1.705 1.441 1.705.879 0 1.318-1.09 1.506-1.816.172-.713.219-1.518.219-2.26 0-.869-.047-1.787-.297-2.625-.203-.648-.627-1.58-1.428-1.58-.782-.001-1.237 1.01-1.425 1.659zM160.885 108.92c.266 0 .674.062.799-.254l.754 3.668-.316.111c-.516-1.535-1.707-2.451-3.322-2.482-.33 0-.939.031-1.207.268-.377.254-.299.838-.299 1.232v.965h.895c.861 0 1.771.111 1.771-1.041l-.016-.285.344-.033.52 4.252h-.33c-.078-.49-.221-.9-.596-1.281-.627-.584-1.381-.568-2.195-.568h-.393v3.873c.094 1.107.312 1.596.957 1.58v.395h-5.018l-.018-.395c.645.016.863-.473.863-1.58v-6.447c0-1.107-.219-1.596-.863-1.582l.018-.395h7.652v-.001z"/><path d="M164.494 111.021v6.244c0 1.137.221 1.643.941 1.658v.395h-3.105v-.395c.643.016.832-.473.832-1.58v-6.447c0-1.107-.189-1.596-.832-1.582v-.395h5.285v.395c-.172.049-.361.174-.361.381 0 .156.062.314.109.457l.156.395.926 2.119 1.129-2.244c.096-.207.252-.506.252-.727 0-.207-.094-.316-.268-.381v-.395h4.971v.395c-.643-.014-.861.475-.861 1.582v6.447c0 1.107.219 1.596.861 1.58v.395h-4.971v-.395c.645.016.895-.473.895-1.58v-6.322l-3.01 6.227-2.949-6.227zM11.892 136.25c-.11.332-.297.934-.297 1.281 0 .49.297.648.719.693v.396H8.866v-.396c.847-.188 1.175-1.074 1.474-1.801l2.461-6.557c.079-.191.266-.633.266-.855 0-.236-.125-.361-.345-.395v-.395H17.3v.395c-.234.033-.361.127-.361.395 0 .207 1.365 4.205 2.446 7.43.236.662.471 1.689 1.302 1.783v.396h-5.41v-.396c.502-.029.862-.377.862-.914 0-.775-.704-1.566-1.316-1.977-.721-.506-1.49-.742-2.369-.693l-.562 1.61zm2.037-5.926l-.987 2.971c.785-.016 1.551.334 2.179.775l-1.192-3.746zM26.103 128.223l.017.395c-.644-.016-.863.475-.863 1.582v6.289c0 .316-.172 1.09 1.146 1.09 1.834 0 3.277-1.627 3.904-3.223l.312.111-1.301 4.406c-.173-.299-.736-.252-1.036-.252h-7.103v-.396c.645.018.864-.473.864-1.578V130.2c0-1.107-.22-1.598-.864-1.582v-.395h4.924zM31.706 130.199c0-1.107-.219-1.598-.861-1.582v-.395h6.944c1.131.016 2.824 0 2.824 1.564 0 1.328-1.6 2.07-2.635 2.48 1.756.301 3.528 1.312 3.528 3.32 0 1.09-.596 1.943-1.552 2.48-.862.506-2.055.553-3.042.553h-6.068v-.396c.642.018.861-.473.861-1.578v-6.446h.001zm3.215 2.069c.942-.219 2.587-.867 2.587-2.053 0-.742-.832-.949-1.426-.949-.267 0-.786.033-1.004.238-.189.158-.158.521-.158.727v2.037h.001zm0 4.267c0 .807.031 1.043.942 1.043 1.333 0 2.319-.727 2.319-2.148 0-1.17-.722-2.023-1.693-2.561l-1.568.537v3.129zM46.798 138.621H41.86v-.396c.643.018.861-.473.861-1.578V130.2c0-1.107-.219-1.598-.861-1.582v-.395h4.938v.395c-.643-.016-.862.475-.862 1.582v6.447c0 1.105.22 1.596.862 1.578v.396zM112.611 135.633l.316.033c-.08 1.264.877 2.023 2.102 2.023.939 0 1.863-.521 2.445-1.266.594-.773.768-1.611.703-2.574-.877.9-1.896 1.326-3.148 1.326-2.008 0-3.422-1.264-3.422-3.334 0-2.561 2.227-3.873 4.518-3.873 3.057 0 4.893 2.246 4.893 5.217 0 1.564-.424 3.082-1.553 4.172-1.16 1.121-2.76 1.516-4.328 1.516-1.082 0-2.148-.172-3.182-.457l.656-2.783zm2.354-5.737c-.328.506-.424 1.107-.424 1.709 0 .963.393 2.26 1.553 2.26 1.271 0 1.787-1.219 1.787-2.324 0-.633-.094-1.234-.486-1.738-.297-.379-.721-.648-1.205-.648-.502-.001-.958.331-1.225.741zM130.355 138.891c-.205-.316-.598-.27-.912-.27h-7.197c2.135-1.5 5.646-4.645 5.646-7.459 0-.996-.721-1.818-1.725-1.818-1.412 0-2.588.996-2.508 2.482l-.33.078-.66-2.701c1.396-.727 2.934-1.234 4.502-1.234 1.756 0 3.996.965 3.996 3.035 0 1.85-1.77 3.396-3.104 4.457l-1.145.9h2.416c.891 0 1.535.08 2.053-.82l.299.125-1.331 3.225zM134.705 139.664h-2.432c.408-.252.629-.727.816-1.17l.393-.9c.094-.221.281-.584.281-.838 0-.109-.029-.203-.062-.314h2.885l-1.881 3.222zM145.635 134.766h.297c.629 0 1.225.031 1.586-.568l.264.016-.578 2.229-.221-.033c.062-.521-.611-.443-.939-.443h-.408v1.014c.047.822.33 1.232.91 1.264v.379H141.7v-.379c.58-.031.988-.441 1.004-1.264v-1.014h-3.527c-.393 0-.832-.045-1.129.254l-.016-.234c0-.666.283-1.234.627-1.787l.594-.98c.533-.887 1.412-2.26 1.412-3.303 0-.301-.141-.615-.406-.773.941-.617 1.709-1.406 2.336-2.215.266.461.406.967.406 1.613 0 1.66-1.316 3.396-2.287 4.646l-1.256 1.58h3.246v-3.762c1.521-.047 2.635-.979 2.838-2.449h.094v6.209h-.001zM161.498 128.223c.264 0 .674.064.799-.254l.75 3.668-.311.109c-.518-1.531-1.711-2.447-3.324-2.48-.33 0-.943.033-1.207.27-.377.252-.299.838-.299 1.232v.965h.893c.863 0 1.773.109 1.773-1.045l-.016-.285.344-.029.518 4.25h-.33c-.076-.488-.219-.9-.594-1.279-.627-.586-1.381-.57-2.197-.57h-.391v3.873c.094 1.105.312 1.596.955 1.578v.396h-5.018l-.016-.396c.645.018.863-.473.863-1.578v-6.447c0-1.107-.219-1.598-.863-1.582l.016-.395h7.655v-.001z" fill-rule="evenodd" clip-rule="evenodd" fill="#fff22d"/><path d="M165.107 130.324v6.244c0 1.137.221 1.643.941 1.656v.396h-3.105v-.396c.645.018.832-.473.832-1.578v-6.447c0-1.107-.188-1.598-.832-1.582v-.395h5.285v.395c-.172.047-.359.176-.359.379 0 .158.061.316.107.459l.156.395.926 2.119 1.129-2.244c.094-.205.252-.506.252-.729 0-.203-.094-.314-.268-.379v-.395h4.971v.395c-.643-.016-.863.475-.863 1.582v6.447c0 1.105.221 1.596.863 1.578v.396h-4.971v-.396c.643.018.895-.473.895-1.578v-6.322l-3.01 6.229-2.949-6.229zM11.892 155.555c-.11.33-.297.932-.297 1.279 0 .488.297.646.719.695v.395H8.866v-.395c.847-.189 1.175-1.074 1.474-1.803l2.461-6.559c.079-.188.266-.631.266-.852 0-.236-.125-.363-.345-.396v-.395H17.3v.395c-.234.033-.361.127-.361.396 0 .205 1.365 4.203 2.446 7.428.236.662.471 1.689 1.302 1.785v.395h-5.41v-.395c.502-.033.862-.379.862-.916 0-.775-.704-1.564-1.316-1.975-.721-.506-1.49-.744-2.369-.697l-.562 1.615zm2.037-5.928l-.987 2.971c.785-.014 1.551.332 2.179.775l-1.192-3.746zM21.023 147.525h5.064v.395c-.768.016-1.019.459-1.019 1.662v4.945c0 .568.047 1.105.422 1.562.394.506 1.068.744 1.68.744.672 0 1.364-.174 1.818-.711.501-.555.501-1.422.501-2.104v-4.438c0-1.139-.22-1.646-1.003-1.662v-.395h3.184v.395c-.58.033-.862.396-.862 1.281v4.629c.063 1.297-.047 2.436-1.113 3.32-.941.758-2.227 1.027-3.402 1.027-1.036 0-2.244-.174-3.136-.711-1.131-.695-1.302-1.613-1.302-2.861v-5.404c0-.885-.25-1.248-.832-1.281v-.393zM41.603 158.271c-.189-.285-.439-.268-.753-.252l-2.242.158c-3.449.016-6.633-1.865-6.633-5.691 0-3.381 2.618-5.215 5.77-5.215.753 0 1.506.096 2.259.238.188.031.393.064.58.064.362 0 .611-.127.784-.428l.894 4.488-.33.096c-.547-1.582-1.771-3.115-3.557-3.115-1.961 0-2.948 1.771-2.948 3.557 0 1.059.297 2.229.924 3.098.69.949 1.819 1.564 3.011 1.564 1.412 0 2.603-.822 3.12-2.15l.362.127-1.241 3.461zM47.193 155.869c0 1.17.22 1.645.924 1.66v.395h-5.002v-.395c.644.016.863-.473.863-1.58v-6.447c0-1.107-.22-1.596-.863-1.582v-.395h5.002v.395c-.641-.014-.924.475-.924 1.582v.852h3.121v-.852c0-1.107-.282-1.596-.926-1.582v-.395h5.002v.395c-.643-.014-.863.475-.863 1.582v6.447c0 1.107.22 1.596.863 1.58v.395h-5.002v-.395c.706-.016.926-.49.926-1.66v-4.471h-3.121v4.471zM115.125 154.938l.314.031c-.078 1.266.877 2.021 2.102 2.021.939 0 1.865-.52 2.445-1.264.596-.773.77-1.611.705-2.574-.877.9-1.896 1.328-3.15 1.328-2.008 0-3.418-1.266-3.418-3.336 0-2.561 2.227-3.873 4.516-3.873 3.057 0 4.893 2.246 4.893 5.215 0 1.566-.424 3.082-1.553 4.174-1.16 1.121-2.762 1.518-4.328 1.518-1.082 0-2.146-.174-3.184-.459l.658-2.781zm2.352-5.737c-.328.506-.42 1.105-.42 1.707 0 .963.391 2.258 1.551 2.258 1.27 0 1.787-1.215 1.787-2.322 0-.631-.094-1.232-.486-1.738-.299-.379-.721-.646-1.207-.646-.503-.001-.958.329-1.225.741zM131.189 147.4v8.266c0 .914 0 1.801 1.16 1.863v.395h-5.252v-.395c1.16-.08 1.16-.963 1.16-1.881v-5.184c0-.68.031-1.596-.879-1.596-.156 0-.314.016-.453.047l-.08-.395 4.344-1.12zM137.219 158.967h-2.432c.408-.252.627-.725.816-1.168l.393-.9c.092-.223.281-.586.281-.838 0-.111-.031-.207-.062-.316h2.883l-1.879 3.222zM141.799 154.938l.312.031c-.078 1.266.879 2.021 2.102 2.021.941 0 1.867-.52 2.447-1.264.594-.773.768-1.611.705-2.574-.879.9-1.898 1.328-3.152 1.328-2.008 0-3.418-1.266-3.418-3.336 0-2.561 2.227-3.873 4.516-3.873 3.059 0 4.891 2.246 4.891 5.215 0 1.566-.422 3.082-1.551 4.174-1.16 1.121-2.76 1.518-4.328 1.518-1.08 0-2.148-.174-3.184-.459l.66-2.781zm2.351-5.737c-.33.506-.424 1.105-.424 1.707 0 .963.391 2.258 1.551 2.258 1.271 0 1.789-1.215 1.789-2.322 0-.631-.094-1.232-.484-1.738-.299-.379-.723-.646-1.209-.646-.502-.001-.955.329-1.223.741zM164.01 147.525c.268 0 .674.062.801-.254l.752 3.668-.312.111c-.52-1.533-1.709-2.451-3.324-2.482-.33 0-.943.031-1.209.268-.377.254-.297.84-.297 1.234v.963h.893c.863 0 1.773.111 1.773-1.041l-.018-.285.346-.031.518 4.25h-.33c-.076-.49-.219-.9-.596-1.281-.627-.584-1.379-.568-2.193-.568h-.393v3.873c.092 1.107.311 1.596.955 1.58v.395h-5.018l-.016-.395c.643.016.863-.473.863-1.58v-6.447c0-1.107-.221-1.596-.863-1.582l.016-.395h7.652v-.001z" fill-rule="evenodd" clip-rule="evenodd" fill="#fff22d"/><path d="M167.621 149.627v6.242c0 1.139.221 1.645.939 1.66v.395h-3.104v-.395c.643.016.832-.473.832-1.58v-6.447c0-1.107-.189-1.596-.832-1.582v-.395h5.285v.395c-.174.049-.361.174-.361.381 0 .158.062.314.109.457l.156.396.926 2.117 1.129-2.244c.094-.207.25-.506.25-.727 0-.207-.092-.316-.266-.381v-.395h4.971v.395c-.643-.014-.863.475-.863 1.582v6.447c0 1.107.221 1.596.863 1.58v.395h-4.971v-.395c.643.016.895-.473.895-1.58v-6.322l-3.012 6.227-2.946-6.226zM18.696 177.574c-.188-.283-.439-.268-.751-.252l-2.244.158c-3.449.014-6.633-1.865-6.633-5.689 0-3.383 2.619-5.215 5.771-5.215.752 0 1.505.096 2.258.236.189.033.392.062.582.062.359 0 .611-.125.784-.426l.894 4.488-.33.096c-.549-1.582-1.772-3.113-3.56-3.113-1.959 0-2.948 1.768-2.948 3.555 0 1.059.297 2.229.926 3.098.688.947 1.817 1.564 3.01 1.564 1.412 0 2.602-.822 3.121-2.148l.36.125-1.24 3.461zM23.188 174.857c-.109.33-.297.932-.297 1.279 0 .49.297.648.722.695v.396h-3.45v-.396c.846-.189 1.176-1.074 1.475-1.803l2.462-6.557c.078-.189.265-.633.265-.855 0-.236-.125-.361-.344-.395v-.395h4.578v.395c-.235.033-.36.127-.36.395 0 .207 1.364 4.205 2.446 7.43.235.662.47 1.691 1.302 1.785v.396h-5.41v-.396c.502-.031.862-.379.862-.916 0-.775-.706-1.566-1.316-1.977-.722-.506-1.491-.742-2.367-.693l-.568 1.612zm2.04-5.925l-.989 2.971c.784-.018 1.553.332 2.179.773l-1.19-3.744zM41.226 169.957l-.327.049c-.439-1.154-1.695-2.166-2.948-2.166-.706 0-1.6.426-1.6 1.248 0 .791.926 1.012 1.505 1.201l1.834.553c1.428.443 2.604 1.107 2.604 2.814 0 1.264-.629 2.211-1.662 2.891-.989.664-2.352.934-3.528.934-.8 0-1.412-.096-2.196-.238-.297-.062-.736-.158-1.035-.158-.361 0-.611.145-.847.381l-.345-4.41.345-.047c.299 1.834 1.787 3.209 3.654 3.209.971 0 2.164-.395 2.164-1.564 0-.871-.831-1.107-1.49-1.312l-1.585-.521c-.594-.189-1.331-.459-1.817-.854a2.521 2.521 0 0 1-.926-1.912c0-1.027.612-2.039 1.442-2.623.863-.602 1.914-.854 2.948-.854.597 0 1.036.096 1.615.205.252.047.581.127.816.127.312 0 .751-.111.971-.381l.408 3.428zM48.886 175.174c0 1.137.22 1.643 1.238 1.658v.396h-5.691v-.396c1.018-.016 1.238-.521 1.238-1.658v-7.191c-1.473.031-2.572.822-2.948 2.26l-.33-.062.769-3.604c.187.348.909.252 1.238.252h5.629c.345 0 1.161.08 1.396-.252l.722 3.604-.313.062c-.535-1.408-1.412-2.164-2.948-2.26v7.191zM53.045 168.805c0-1.107-.22-1.598-.862-1.582v-.395h7.056c.643.018 1.333.018 1.929.254.549.254.909.711.909 1.342 0 1.312-1.191 2.182-2.228 2.719 1.146 1.281 2.008 2.781 2.62 4.393.218.539.486 1.297 1.175 1.297v.396h-5.268v-.396c.36-.016.643-.094.643-.521 0-.963-1.567-3.24-2.227-4.014l-.548.189v2.766c0 1.105.22 1.596.862 1.58v.396h-4.923v-.396c.642.016.862-.475.862-1.58v-6.448zm4.392-.934c-.315 0-.816.062-1.05.301-.173.191-.142.586-.142.822v2.338c1.066-.268 2.509-.9 2.509-2.244 0-.805-.534-1.217-1.317-1.217z" fill-rule="evenodd" clip-rule="evenodd" fill="#fff22d"/><path d="M63.451 177.229v-.396c.643.016.862-.475.862-1.58v-6.447c0-1.107-.22-1.598-.862-1.582v-.395h7.117c.393.018 1.021.064 1.318-.252l.799 3.635-.345.111c-.454-1.535-1.803-2.451-3.37-2.451-1.538 0-1.442.584-1.442 1.85v.506h.501c1.034 0 2.069.111 2.053-1.281l.315-.047.69 4.016-.314.029c-.173-.441-.425-.852-.769-1.168-.612-.57-1.271-.508-2.055-.508h-.421v3.053c-.125 1.547.469 1.896 1.52 1.863 2.006 0 3.292-1.217 4.124-2.938l.329.125-1.332 4.109c-.25-.27-.597-.252-.941-.252h-7.777zM82.649 169.957l-.329.049c-.439-1.154-1.693-2.166-2.948-2.166-.706 0-1.6.426-1.6 1.248 0 .791.926 1.012 1.505 1.201l1.835.553c1.427.443 2.603 1.107 2.603 2.814 0 1.264-.627 2.211-1.663 2.891-.987.664-2.352.934-3.527.934-.799 0-1.411-.096-2.195-.238-.299-.062-.738-.158-1.036-.158-.362 0-.612.145-.847.381l-.346-4.41.346-.047c.298 1.834 1.788 3.209 3.652 3.209.973 0 2.165-.395 2.165-1.564 0-.871-.832-1.107-1.491-1.312l-1.583-.521c-.597-.189-1.333-.459-1.819-.854a2.523 2.523 0 0 1-.924-1.912c0-1.027.611-2.039 1.443-2.623.862-.602 1.913-.854 2.948-.854.594 0 1.034.096 1.613.205.252.047.582.127.816.127.314 0 .753-.111.973-.381l.409 3.428zM120.906 174.35c0 1.203-.689 1.977-1.693 2.498-.986.506-2.1.633-3.199.633-.971 0-2.084-.127-2.963-.539-1.098-.488-1.881-1.342-1.881-2.621 0-1.738 1.662-2.467 3.135-2.672-1.285-.189-2.648-.807-2.648-2.322 0-1.043.721-1.771 1.598-2.197.926-.428 1.945-.553 2.949-.553.83 0 1.789.125 2.539.441.863.363 1.678 1.139 1.678 2.135 0 1.484-1.316 2.26-2.586 2.496 1.505.22 3.071.949 3.071 2.701zm-4.83-6.668c-.908.016-1.488.807-1.488 1.66 0 .869.471 1.77 1.412 1.77.939 0 1.457-.807 1.488-1.707 0-.869-.439-1.707-1.412-1.707v-.016l-1.771 6.574c0 1.105.564 2.102 1.758 2.102 1.08 0 1.707-1.043 1.707-2.055 0-1.027-.5-2.148-1.678-2.148-1.223 0-1.787.963-1.787 2.102l1.771-6.575zM127.877 177.229h-3.857c.092-.871.406-1.709.83-2.484.611-1.137 1.238-1.816 2.164-2.67l.564-.504c.736-.664 1.426-1.424 1.723-2.387h-4.436c-.674 0-1.758-.096-1.977.744l-.375-.096.924-3.256c.221.299.754.27 1.066.27h4.797c.551 0 1.334.029 1.445-.617h.094l.047.758c0 1.328-.455 2.48-1.051 3.619l-.752 1.438c-.721 1.377-1.256 2.576-1.256 4.174l.033.805.017.206zM134.406 178.27h-2.43c.406-.252.627-.727.814-1.168l.391-.902c.096-.221.283-.584.283-.838 0-.109-.029-.203-.062-.314h2.885l-1.881 3.222zM146.057 169.783l-.311-.031c.062-1.076-.832-1.99-1.916-1.99-.924 0-1.771.521-2.336 1.264-.643.807-.752 1.564-.736 2.576.863-.885 1.896-1.328 3.137-1.328 2.006 0 3.447 1.25 3.447 3.334 0 2.576-2.209 3.873-4.529 3.873-3.043 0-4.877-2.229-4.877-5.184 0-3.463 2.354-5.721 5.754-5.721 1.006 0 1.992.174 2.965.395l-.598 2.812zm-4.641 2.655c-.266.412-.344.996-.344 1.486 0 1.092.393 2.371 1.725 2.371 1.238 0 1.615-1.393 1.615-2.402 0-1.012-.377-2.309-1.6-2.309-.548 0-1.097.396-1.396.854zM161.197 166.828c.268 0 .674.064.801-.252l.752 3.666-.312.109c-.518-1.531-1.711-2.447-3.326-2.48-.328 0-.939.033-1.205.27-.377.252-.297.838-.297 1.232v.965h.893c.861 0 1.77.109 1.77-1.045l-.016-.283.346-.031.52 4.25h-.332c-.078-.488-.217-.9-.594-1.279-.627-.586-1.381-.57-2.197-.57h-.389v3.873c.092 1.105.311 1.596.955 1.58v.396h-5.018l-.018-.396c.645.016.865-.475.865-1.58v-6.447c0-1.107-.221-1.598-.865-1.582l.018-.395h7.649v-.001z" fill-rule="evenodd" clip-rule="evenodd" fill="#fff22d"/><path d="M164.809 168.932v6.242c0 1.137.219 1.643.939 1.658v.396h-3.104v-.396c.645.016.832-.475.832-1.58v-6.447c0-1.107-.188-1.598-.832-1.582v-.395h5.285v.395c-.174.049-.361.176-.361.379 0 .16.064.318.111.459l.154.395.926 2.119 1.129-2.244c.094-.205.252-.506.252-.729 0-.203-.096-.314-.268-.379v-.395h4.971v.395c-.643-.016-.861.475-.861 1.582v6.447c0 1.105.219 1.596.861 1.58v.396h-4.971v-.396c.645.016.893-.475.893-1.58v-6.32l-3.01 6.227-2.946-6.227z" fill-rule="evenodd" clip-rule="evenodd" fill="#fff22d"/><path fill-rule="evenodd" clip-rule="evenodd" fill="#00acec" stroke="#000" stroke-width=".753" stroke-miterlimit="2.613" d="M124.568 14.486l-2.812 7.847-10.811 2.179 7.569 7.846-4.326 10.461 7.568-6.973 8.65 8.281-3.027-15.256 8.65-8.936-9.947 1.09-1.514-6.539z"/></svg>