<svg xmlns="http://www.w3.org/2000/svg" width="2500" height="2500" viewBox="0 0 192.756 192.756"><g fill-rule="evenodd" clip-rule="evenodd"><path d="M0 0h192.756v192.756H0V0z"/><path d="M178.855 88.355a2.378 2.378 0 0 0-2.986-1.547c-1.26.396-1.961 1.745-1.564 2.986a2.399 2.399 0 0 0 3.004 1.565 2.41 2.41 0 0 0 1.546-3.004zM152.629 109.061s1.781 2.859 4.533-.055c2.752-2.896 3.004-3.867 3.004-3.867l1.025 1.08s-3.617 7.068-7.646 6.871c-4.029-.199-5.252-3.922-4.641-7.143.611-3.201 3.525-7.824 5.396-6.494 1.889 1.314 2.303 2.537 1.637 3.904-.664 1.385-3.308 5.704-3.308 5.704z" fill="#fff"/><path d="M134.621 110.57s0-2.68 1.332-2.051c1.35.648 1.637.99 1.637.99s.881-2.627 2.572-2.914 2.105 1.223 2.105 1.223 2.445-2.627 3.85-2.627c1.402 0 1.402.594 1.33 1.998-.055 1.402-.395 4.893-.342 5.252 0 0-.18 1.512 1.584-.125l1.799 1.582s-1.277 2.32-3.203 1.979c-1.924-.342-2.572-1.115-2.518-2.914.055-1.816 0-4.082-.521-4.082s-1.17.809-1.17 2.104c0 1.277-.107 4.893-.107 4.893s-1.115 2.807-3.041.521c0 0-.232-4.029-.18-5.252.055-1.223-.988-1.402-1.277.701-.287 2.105.18 5.307.18 5.307l-3.508 2.914c0-.001-.809-6.35-.522-9.499zM130.592 111.615s.881-1.332 1.637-1.332 1.277.396 1.17 2.158c-.127 1.746-.127 5.307.107 6.639.234 1.35-.936 1.637-1.457 1.816s-1.564 1.277-1.402-.936c.179-2.212-.055-8.345-.055-8.345zM119.746 108.125s.809-3.742 3.309-1.619c2.52 2.141 0 3.021 0 3.021l-.072 12.809s.666 1.547 2.213-.072 3.76-3.453 4.264-2.5c.521.953-.287 2.355-1.457 3.902-1.188 1.547-3.021 4.049-3.021 4.049s-4.426.664-5.523-2.502c.502-5.701.574-11.387.287-17.088zM130.771 105.785s1.332-1.637 2.5-.232c1.17 1.402-.287 2.031-.395 2.805-.127.756-2.158.99-2.158 0 .001-1.006-.234-1.924.053-2.573zM99.238 123.02s2.355.521 3.148 1.979c0 0 1.188-.504 1.762-1.691 0 0-.143-1.744 1.025-1.744 1.188 0 1.404.072 1.475 1.906 0 0 3.221-3.885 4.246-2.213 1.025 1.691.521 2.213.521 3.885 0 1.691-.072 4.623 1.17 4.336 1.24-.305 1.906-2.051 2.5-4.768.576-2.715 1.602-.377 1.242.666-.379 1.025-1.404 7.322-4.695 6.746-3.293-.594-2.932-4.695-2.932-5.883 0-1.168-1.027-3.146-1.314-.072-.305 3.096.072 4.193.072 4.193s-1.025 2.787-2.355 1.672c-1.314-1.098-1.027-5.865-1.027-5.865l-1.096.523s1.096 8.201-2.789 8.652c-3.867.432-4.964-2.051-4.964-5.648s1.151-6.674 4.011-6.674zM83.858 140.918s-.504 1.672-1.457 1.312-2.716-3.004-2.716-3.004 1.763-3.885 1.241-7.627l1.835-1.24.593 1.6s2.339-2.555 3.814-3.004c1.457-.432 1.241 1.547 1.241 1.547s2.5-4.406 4.317-3.004c1.834 1.385.377 4.389.377 5.865 0 1.457.882 1.689 1.529.809.666-.881.81 2.268-.36 2.859-1.169.576-2.716.217-3.292-1.115-.594-1.312-.377-2.859-.377-2.859s-.882-1.24-1.098.377c-.216 1.619-.503 5.416-.503 5.416s-1.116 1.996-1.835 1.996c-.738 0-2.05-1.619-2.05-1.619s.719-1.979.432-3.381c-.288-1.387-.954-1.602-1.169 0-.216 1.617-.306 4.261-.522 5.072zM21.941 132.625l1.493-.828s9.265 15.992 20.615 9.48c10.361-5.955 3.022-10.686-1.816-10.074-3.472.451-15.309 1.764-19.374-2.895-4.065-4.66-7.142-13.061 3.994-21.533 11.135-8.455 19.032-5.99 19.032-5.99l4.821 11.639-1.079.828s-8.491-13.689-19.212-6.801c-10.721 6.891 2.842 8.725 7.483 8.473 4.659-.252 14.625-2.086 18.042 5.738 3.4 7.807-.828 16.531-9.138 21.855-8.311 5.326-18.708 5.074-18.708 5.074l-6.153-14.966z" fill="#fff"/><path d="M82.509 126.076l.666 1.818-15.434 6.223c.287-2.32-.09-4.855-2.789-5.359-2.303-.037-3.166 2.697-3.58 4.533l.018 3.381-4.317 1.727-.54-1.816s5.936-1.889 3.238-10.99L49.104 88.247s-1.205-6.998-6.997-5.252l-.612-1.619s13.347-8.437 18.816-12.88l15.183 54.127s1.115 5.811 7.015 3.453zM104.779 117.154l.484 1.332-21.028 8.939-.72-1.979s1.691-1.762.306-5.756l-5.666-20.381s-1.655-5.217-7.034-4.318l-.612-1.511s12.214-5.864 18.564-11.782l9.39 33.224c.002.002 1.549 3.797 6.316 2.232z" fill="#fff"/><path d="M134.496 90.333l2.086.18s.559 7.23-3.561 13.941a2.569 2.569 0 0 0-.863-.18c-1.277.143-2.16.863-2.25 2.158-.018.648-.072 1.35.055 1.924a20.382 20.382 0 0 1-1.943 1.729 24.14 24.14 0 0 1-4.264 2.697l.02-2.807c.629-.342.916-.809 1.096-1.457.055-1.654-1.457-2.967-2.949-3.363-1.764-.018-2.5 1.312-2.879 2.914.072 1.619.127 3.238.145 4.875.018.469.018.936.018 1.422-7.34 1.582-14.877-1.332-19.787-8.924-6.889-10.738-.125-24.211 8.113-30.778 8.527-6.781 21.316-7.015 25.059 3.112 3.723 10.109-6.531 12.143-9.48 10.199-3.059-2.014-4.049-4.389-4.461-8.742-.414-4.389-3.004-6.565-5.738-4.659-2.734 1.925-5.02 3.832-3.365 13.401 1.637 9.552 11.135 14.949 17.486 12.089 6.22-2.787 6.923-6.996 7.462-9.731z" fill="#fff"/><path d="M173.566 74.54h2.285s1.277 14.265-10.775 20.903c-12.07 6.602-22.18 2.967-28.205-7.573-6.027-10.523 1.51-25.652 11.566-29.934 10.055-4.281 21.227-2.5 23.852 8.958l-22.412 9.516s.934 9.876 12.482 9.857c8.797-.017 11.207-11.727 11.207-11.727z" fill="#fff"/><path d="M159.248 70.097l-9.857 4.173s-5.414-11.836.125-14.409c5.738-2.68 8.724 6.692 9.732 10.236z"/><path d="M68.784 73.407s-1.709-1.709-1.367-3.076 2.321-1.619 3.256-2.644c.936-1.026 4.965-5.99 11.027-3.76 6.081 2.212 6.422 6.062 6.764 7.429.342 1.367 2.806 3.076 2.302 4.443-.521 1.367-2.986 1.457-4.101 2.914s-5.199 4.389-10.434 3.166c-5.379-1.277-6.764-7.447-7.447-8.472z" fill="#e6e6e7"/><path d="M74.99 144.354s-6.296 6.529-6.746 7.34c-.432.809-2.194 1.098-2.194 1.098l-3.886-2.934-.072-16.494s.881-4.191 2.788-3.887c1.907.287 2.861 2.34 1.835 6.152 0 0 0 9.965.216 11.656l6.008-5.055s-1.619-4.174.288-7.41c1.906-3.221 4.982-3.004 5.792-1.602.81 1.385.378 4.029-3.742 7.986 0 0 1.691 2.41 3.31-.736l1.385 1.24c0 .001-1.834 4.265-4.982 2.646z" fill="#fff"/><path d="M77.418 71.482l-5.757-1.943s.792-3.004 3.22-3.274l2.537 5.217zM78.821 74.936l2.59 5.487s-2.698 1.511-4.587-.036l1.997-5.451zM76.951 72.921l-5.433 2.734s-1.583-2.68-.072-4.587l5.505 1.853zM80.188 74.27l5.72 2.015s-.827 2.986-3.256 3.238l-2.464-5.253zM77.634 74.27l-1.942 5.756s-3.004-.773-3.274-3.202l5.216-2.554zM80.674 72.849l5.486-2.608s1.529 2.698-.018 4.587l-5.468-1.979zM80.062 71.518l2.194-5.648s2.968.917 3.13 3.346l-5.324 2.302zM78.641 70.978l-2.482-5.54s2.734-1.457 4.587.144l-2.105 5.396zM98.734 126.473s.881 1.836 2.338 1.836c0 0 .955 5.197-1.385 5.27-2.355.071-2.787-5.936-.953-7.106zM75.133 137.752s.306-2.932 1.26-3.293c.953-.359 1.097.432.647 1.098-.431.666-1.763 1.619-1.907 2.195zM152.322 106.559s-.359-2.59.559-3.615c.916-1.008 1.889-.504 1.385.611-.522 1.134-1.944 3.004-1.944 3.004zM178.586 88.445c.359 1.116-.27 2.285-1.367 2.645a2.1 2.1 0 0 1-2.645-1.367 2.113 2.113 0 0 1 1.367-2.662c1.116-.343 2.303.269 2.645 1.384z"/><path d="M176.104 90.532l.324-.108-.342-1.062.826-.27c.521-.162.521.341.666.629l.162.288.377-.108c-.215-.18-.18-.251-.305-.575-.18-.414-.199-.45-.504-.54.18-.252.234-.414.125-.72-.215-.557-.611-.521-1.006-.396l-1.115.36.792 2.502z" fill="#fff"/><path d="M176.535 87.959c.197-.072.521-.108.611.324.072.342-.125.468-.342.54l-.809.252-.271-.863.811-.253z"/></g></svg>