<svg width="2500" height="322" viewBox="0 0 373 48" xmlns="http://www.w3.org/2000/svg"><title>survey-monkey</title><g fill="none" fill-rule="evenodd"><path d="M52.534 30.746c-.36 0-.688-.139-.935-.359.084-.725.14-1.458.149-2.203.226-.151.496-.243.786-.243.771 0 1.402.63 1.402 1.406a1.4 1.4 0 0 1-1.402 1.399m-44.563-.003a1.397 1.397 0 0 1-1.396-1.4 1.4 1.4 0 0 1 2.189-1.159c.008.741.064 1.471.15 2.192a1.398 1.398 0 0 1-.943.367m44.804-8.381c-.572 0-1.135.078-1.669.208-2.103-8.327-9.065-14.711-17.687-15.985-.129-1.453.426-3.733 4.061-5.931L37.373.44s-6.089 1.927-7.466 5.729c.06-1.188-.372-2.971-3.016-4.239 0 0-.209.071-.103.167.524.484 2.195 2.1 1.485 4.35-9.167.833-16.671 7.423-18.871 16.123a7.027 7.027 0 0 0-1.67-.208 6.986 6.986 0 0 0-6.98 6.985c0 3.85 3.133 6.981 6.98 6.981.902 0 1.761-.18 2.551-.488a21.426 21.426 0 0 0 2.268 4.22l5.82-3.924-.076-.047c-1.532-1.97-2.469-4.869-2.626-7.755-.174-3.184.603-6.346 2.635-8.204 4.192-3.567 8.754-1.942 11.613 1.478h.763c2.861-3.352 7.372-4.91 11.529-1.379 2.007 1.844 2.79 4.953 2.638 8.093-.137 2.914-1.081 5.86-2.62 7.843l5.738 3.895a21.625 21.625 0 0 0 2.263-4.22 6.991 6.991 0 0 0 2.547.488 6.985 6.985 0 0 0 6.982-6.985 6.98 6.98 0 0 0-6.982-6.981" fill="#ACB529"/><path d="M75.034 30.431c2.145 2.285 5.157 3.883 8.491 3.883 4.02-.041 6.853-1.551 6.853-4.294 0-6.393-18.496-.225-18.496-11.917 0-5.117 5.341-8.63 11.873-8.63 4.75 0 8.584 1.504 11.416 4.38l-3.927 3.519c-2.603-2.557-4.977-3.424-7.762-3.424-4.385 0-6.031 2.145-6.031 3.883 0 6.435 18.493 0 18.493 11.916 0 5.981-6.074 9.592-12.645 9.592a17.01 17.01 0 0 1-12.285-5.297l4.02-3.611M99.189 16.641h4.749v12.377c0 3.241 2.375 5.568 5.346 5.568 2.969 0 5.343-2.327 5.343-5.568V16.641h4.746v12.787c0 6.211-4.838 9.911-10.089 9.911-5.253 0-10.095-3.7-10.095-9.911V16.641M124.308 16.641h4.473v2.421h.091c.777-1.827 2.421-3.016 4.341-3.016 1.045 0 1.96.278 2.599.687l-1.688 4.705c-.456-.367-1.322-.64-1.782-.64-1.735 0-3.284 1.323-3.284 3.333v14.613h-4.75V16.641M137.639 16.641h5.3l4.883 12.648h.092l4.886-12.648h5.3l-10.231 22.698-10.23-22.698M176.913 25.408c-1.003-3.382-3.517-5.16-6.529-5.16-3.017 0-5.481 1.873-6.261 5.16h12.79zm4.385 8.537c-2.65 3.336-6.303 5.345-10.277 5.395-7.719 0-12.191-5.806-12.191-11.646 0-5.847 4.472-11.649 12.191-11.649 4.613 0 11.459 3.796 11.459 12.424v.87h-18.357c.276 3.377 3.429 5.801 6.763 5.801 2.554 0 4.748-1.242 6.39-3.432l4.022 2.237zM185.863 16.641h4.748v12.967c0 3.704 2.284 5.253 5.204 5.253 3.701 0 5.486-2.285 5.486-5.705V16.641h4.748v21.42c0 6.754-5.986 9.722-10.092 9.722-4.98 0-7.218-1.869-9.366-4.334l4.02-2.468c1.507 1.461 3.017 2.332 5.072 2.332 3.148 0 5.888-1.92 5.888-5.8v-1.191h-.092c-1.872 2.102-3.608 3.017-6.666 3.017-4.935 0-8.95-3.7-8.95-9.911V16.641M211.481 9.474l12.74 12.879 12.743-12.879v29.269h-5.297v-17.72l-7.446 7.717-7.443-7.717v17.72h-5.297V9.474M252.538 34.856c4.151 0 7.167-3.19 7.167-7.162 0-3.97-3.016-7.168-7.167-7.168-4.158 0-7.173 3.198-7.173 7.168 0 3.972 3.015 7.162 7.173 7.162m0-18.81c7.717 0 12.189 5.801 12.189 11.648 0 5.841-4.472 11.648-12.189 11.648-7.723 0-12.194-5.807-12.194-11.648 0-5.847 4.471-11.648 12.194-11.648M268.063 16.641h4.745v2.788h.092c1.326-2.055 3.744-3.383 6.762-3.383 4.658 0 8.582 3.886 8.582 9.362v13.336h-4.745V26.46c0-4.016-2.103-5.662-5.254-5.662-3.058 0-5.437 1.963-5.437 5.573v12.373h-4.745V16.641M295.007 29.521h-3.108v-4.479h3.108V10.063h4.747v14.979h2.419l5.802-8.401h5.75l-7.487 10.411 7.856 11.692h-5.62l-5.845-9.223h-2.875v9.223h-4.747v-9.223M333.639 25.408c-1.003-3.382-3.519-5.16-6.531-5.16-3.015 0-5.479 1.873-6.256 5.16h12.787zm4.38 8.537c-2.646 3.336-6.298 5.345-10.272 5.395-7.714 0-12.195-5.806-12.195-11.646 0-5.847 4.481-11.649 12.195-11.649 4.611 0 11.463 3.796 11.463 12.424v.87h-18.358c.272 3.377 3.424 5.801 6.758 5.801 2.559 0 4.748-1.242 6.394-3.432l4.015 2.237zM342.133 16.641h4.747v12.967c0 3.704 2.283 5.253 5.206 5.253 3.7 0 5.482-2.285 5.482-5.705V16.641h4.749v21.42c0 6.754-5.984 9.722-10.093 9.722-4.979 0-7.212-1.869-9.361-4.334l4.017-2.468c1.508 1.461 3.018 2.332 5.07 2.332 3.15 0 5.89-1.92 5.89-5.8v-1.191h-.092c-1.873 2.102-3.604 3.017-6.667 3.017-4.931 0-8.948-3.7-8.948-9.911V16.641" fill="#555744"/><path d="M369.279 16.522c.456 0 .905.121 1.336.356.439.23.782.569 1.024 1.007.245.433.367.887.367 1.367 0 .468-.122.919-.364 1.352a2.584 2.584 0 0 1-1.01 1.011 2.742 2.742 0 0 1-2.711 0 2.57 2.57 0 0 1-1.012-1.011 2.772 2.772 0 0 1-.358-1.352c0-.48.12-.934.368-1.367a2.477 2.477 0 0 1 1.019-1.007 2.793 2.793 0 0 1 1.341-.356zm0 .452c-.383 0-.757.098-1.116.293-.367.198-.65.478-.857.84-.199.369-.303.75-.303 1.145 0 .389.099.767.3 1.129.204.357.482.64.848.84.359.2.738.3 1.128.3.395 0 .77-.1 1.13-.3.362-.2.642-.483.843-.84a2.34 2.34 0 0 0 .298-1.129c0-.395-.101-.776-.305-1.145a2.078 2.078 0 0 0-.85-.84 2.347 2.347 0 0 0-1.116-.293zm-1.195 3.782v-2.932h1.007c.345 0 .594.025.746.077a.756.756 0 0 1 .368.289.743.743 0 0 1 .142.427.765.765 0 0 1-.235.562c-.149.16-.352.248-.607.265a.835.835 0 0 1 .248.159c.122.115.268.309.435.578l.356.575h-.574l-.258-.463c-.207-.362-.374-.59-.499-.68a.62.62 0 0 0-.375-.102h-.278v1.245h-.476zm.476-1.648h.574c.269 0 .459-.041.556-.124a.402.402 0 0 0 .151-.329.412.412 0 0 0-.069-.23.45.45 0 0 0-.204-.156c-.084-.033-.239-.048-.471-.048h-.537v.887z" fill="#8A8B77"/></g></svg>