<svg width="397" height="267" viewBox="0 0 397 267" fill="none" xmlns="http://www.w3.org/2000/svg">
  <path fill-rule="evenodd" clip-rule="evenodd"
    d="M347.582 204.254C345.167 204.254 342.967 203.322 341.31 201.846C341.873 196.983 342.249 192.065 342.309 187.068C343.825 186.055 345.636 185.438 347.582 185.438C352.754 185.438 356.987 189.664 356.987 194.869C356.986 196.103 356.742 197.325 356.269 198.465C355.796 199.604 355.103 200.639 354.229 201.511C353.356 202.382 352.319 203.073 351.178 203.544C350.038 204.015 348.816 204.256 347.582 204.254ZM48.6384 204.234C47.4066 204.233 46.187 203.99 45.0495 203.517C43.9119 203.044 42.8787 202.352 42.0089 201.48C41.1392 200.608 40.4499 199.572 39.9805 198.434C39.5111 197.295 39.2709 196.074 39.2736 194.843C39.2705 193.133 39.7343 191.455 40.6149 189.989C41.4955 188.523 42.7595 187.326 44.2706 186.526C45.7817 185.726 47.4826 185.353 49.1898 185.449C50.8969 185.544 52.5457 186.104 53.9581 187.068C54.0118 192.039 54.3874 196.936 54.9644 201.772C53.2371 203.354 50.9805 204.232 48.6384 204.234ZM349.199 148.012C345.361 148.012 341.585 148.535 338.002 149.407C323.895 93.5468 277.191 50.7208 219.352 42.1744C218.487 32.4272 222.21 17.1322 246.595 2.38724L245.877 0.95166C245.877 0.95166 205.03 13.8786 195.792 39.3837C196.195 31.4142 193.297 19.4532 175.56 10.9471C175.56 10.9471 174.158 11.4234 174.869 12.0674C178.384 15.3142 189.594 26.1549 184.831 41.2486C123.336 46.8367 72.9964 91.0446 58.238 149.407C54.5731 148.495 50.8118 148.026 47.0351 148.012C34.614 148.022 22.7052 152.964 13.9253 161.75C5.14546 170.536 0.212711 182.448 0.210938 194.869C0.210938 220.697 21.2281 241.7 47.0351 241.7C53.086 241.7 58.8485 240.493 64.1481 238.427C68.1453 248.402 73.2487 257.898 79.3626 266.736L118.405 240.412L117.895 240.097C107.618 226.882 101.332 207.434 100.279 188.074C99.1119 166.715 104.324 145.503 117.956 133.039C146.077 109.11 176.68 120.011 195.859 142.954H200.978C220.17 120.467 250.432 110.016 278.318 133.703C291.782 146.073 297.035 166.929 296.015 187.993C295.096 207.541 288.763 227.304 278.439 240.607L316.931 266.736C323.024 257.891 328.116 248.396 332.112 238.427C337.554 240.574 343.349 241.684 349.199 241.7C361.623 241.695 373.536 236.756 382.319 227.969C391.102 219.182 396.036 207.267 396.036 194.843C396.037 188.692 394.826 182.601 392.473 176.919C390.119 171.236 386.669 166.073 382.319 161.724C377.97 157.375 372.806 153.926 367.123 151.573C361.44 149.22 355.349 148.01 349.199 148.012Z"
    fill="#ACB529" />
</svg>