<svg width="2500" height="2500" viewBox="0 0 256 256" xmlns="http://www.w3.org/2000/svg" preserveAspectRatio="xMidYMid"><path d="M128 0C57.307 0 0 57.307 0 128s57.306 128 128 128c70.696 0 128-57.307 128-128S198.696 0 128 0zM92.61 218.026a3217.662 3217.662 0 0 1 4.028-25.215c-28.191-14.13-46.057-42.577-41.5-75.453 6.218-44.65 40.598-67.547 83.832-63.652 3.279-4.64 6.877-9.094 10.974-13.403 7.293-8.154 18.14-8.41 13.262 1.252-9.834 18.608-13.72 32.657-22.166 55.217-8.417 23.995-21.429 59.213-38.75 121.047-1.253 5.664-10.128 4.76-9.68.207zm108.318-81.996c-5.622 42.633-45.47 66.827-85.081 62.65 2.875-9.722 4.237-13.867 7.57-21.703 2.514-4.522 11.926-6.369 19.236-9.476 14.847-5.336 26.249-18.588 28.403-35.311 1.516-11.857-1.948-23.218-8.737-32-4.747-6.024-9.222-9.675-7.694-15.33 2.249-7.636 3.974-13.303 8.167-22.898 26.026 13.98 42.251 43.014 38.136 74.068zM85.042 121.18c-1.47 11.404 1.636 22.29 7.862 30.877 4.15 5.543 7.328 8.774 8.885 11.318 5.128-27.777 8.83-42.145 13.763-58.266 2.212-6.734 5.876-16.18 8.527-22.61-3.162 1.058-7.649 2.235-11.313 3.67-14.516 5.442-25.611 18.558-27.724 35.01z" fill="#278CC0"/></svg>