<svg version="1.2" xmlns="http://www.w3.org/2000/svg" viewBox="0 0 1528 951" width="1528" height="951">
	<title>upwiork-svg</title>
	<style>
		.s0 { fill: #14a800 } 
	</style>
	<path id="Layer" fill-rule="evenodd" class="s0" d="m1179.2 2.1c46.3-0.4 92.2 8.5 135 26.2 42.8 17.6 81.7 43.7 114.2 76.7 32.5 33 58.1 72.2 75.1 115.2 17.1 43 25.3 89.1 24.2 135.3 1.5 46.5-6.4 92.8-23.3 136.1-16.8 43.3-42.3 82.7-74.8 116-32.5 33.2-71.5 59.5-114.4 77.3-43 17.8-89.1 26.7-135.6 26.2h-14.5c-15.5-0.6-31-2.1-46.4-4.7-15.3-2.6-30.4-6.2-45.3-10.8-14.9-4.6-29.4-10.2-43.5-16.7-14.2-6.5-27.8-13.9-41-22.2q-7.6-4.8-15.1-9.8-7.4-5.1-14.6-10.4-7.3-5.3-14.3-10.9-7.1-5.6-13.9-11.5l-54.9 336.9h-158.3l83.4-475.5c-17.7-26-34.4-52.8-49.8-80.3-15.5-27.4-29.8-55.5-42.8-84.2-13.1-28.7-24.9-57.9-35.4-87.6-10.6-29.7-19.8-59.8-27.8-90.3v227.1c0 206.3-131.5 350.5-319.2 350.5-22 0.6-44-1.2-65.7-5.3-21.6-4.2-42.7-10.6-63-19.2-20.3-8.6-39.6-19.3-57.6-32-18-12.7-34.6-27.3-49.5-43.5-15.1-17.3-28.6-36.1-40.2-56-11.6-19.9-21.3-40.8-29-62.6-7.6-21.7-13.2-44.1-16.7-66.9-3.4-22.7-4.8-45.8-3.9-68.8v-336h155.8v336c0 122.5 61.7 212.7 170.2 212.7 108.6 0 163.9-90.6 163.9-212.7v-336h271.1q6.8 30.9 15.4 61.4 8.6 30.5 18.8 60.5 10.3 29.9 22.3 59.2 12 29.3 25.7 57.9c8.3-37.5 23.1-73.3 43.8-105.8 20.7-32.4 46.8-61 77.3-84.5 30.5-23.4 64.9-41.4 101.6-53 36.6-11.7 75.1-16.8 113.5-15.3m0 567.4c108.1 0 193.2-85.1 193.2-212.7 0-127.6-83.4-212.6-193.2-212.6-109.8 0-192.8 70.6-221.3 297.7 11.8 18.8 25.8 36.1 41.7 51.6 15.9 15.5 33.5 29 52.7 40.3 19.1 11.3 39.5 20.3 60.7 26.7 21.3 6.4 43.2 10.3 65.4 11.6z"/>
</svg>