<svg width="2500" height="2500" viewBox="0 0 256 256" xmlns="http://www.w3.org/2000/svg" preserveAspectRatio="xMidYMid"><path fill="#0097E8" d="M31.226 127.833l-.293.363c.01-.015.093-.036.24-.105a2.81 2.81 0 0 0 .053-.258M29.518 138.068s-.015.001-.013.005c-.01.32 0 .654-.007.994.108-.045.206-.067.304-.098l-.284-.9M119.561 206.17c-.01.033-.017.075-.017.075l.08-.166c-.014.02-.047.053-.063.091M120.45 206.504l-.068.14.051-.084.017-.056M122.476 202.627l-.06.1a.613.613 0 0 0 .06-.1M123.227 203.215l-.013.015.004-.001s.005-.005.01-.014"/><path fill="#0097E8" d="M123.227 203.215l-.004.009.013-.005-.009-.004M187.41 176.984s-.002.015.004.013c.036.01.045.013.078.024l-.082-.037"/><path d="M172.334 7.891l-.081.006-.158.03-.818.143-.674.345c-2.141 1.082-21.222 11.547-30.527 44.873-6.89 24.667-86.4 60.729-113.675 71.403l-2.746 1.047-.519 3.02c-.16.92-.567 3.789-.755 7.821-6.014 2.638-10.258 6.89-12.315 12.47-.268.729-.504 1.49-.698 2.268-2.055 8.226.26 18.685 6.416 28.52 7.084 11.331 18.723 10.943 25.864 8.604 1.92 1.631 3.944 3.18 6.119 4.506l.057.038 1.97 1.131 1.923-.556s17.2-5.077 17.773-5.24c.92-.168 5.846-.833 9.6 1.817 2.784 1.973 4.508 5.558 5.121 10.652 2.287 18.997 1.046 25.525 1.022 25.675l-.058.234-.025.223c-.147 1.082-1.27 10.83 4.496 17.31 2.184 2.46 6.235 5.37 13.135 5.244l.165-.006 22.97-2.081.183-.02s3.17-1.567 3.178-1.574c.52-.546 2.979-3.253 4.542-7.25l-.27.758c.444-.749 2.753-4.763 4.098-10.153 1.129-4.553 1.577-10.1-.367-15.472-1.782-4.91-5.231-8.765-10.244-11.526.213-.626.451-1.242.609-1.893 1.38-5.532.904-11.473-3.545-15.646l-1.493-1.39c-5.873-5.43-7.806-7.961-7.3-10.014.018-.097.096-.178.123-.268.75-.385 1.562-.76 2.465-1.092l.759-.287s.115-.087.21-.163c2.238-.948 20.4-7.42 63.567 11.439 4.035 3.236 24.209 18.359 42.595 13.718 9.682-2.44 16.981-9.692 21.676-21.551a46.396 46.396 0 0 0 1.802-5.69c3.815-15.312 2.419-38.391-4.044-64.718-7.137-29.084-19.4-56.844-32.784-74.265-12.478-16.23-26.073-23.993-39.342-22.44" fill="#FFF"/><path d="M164.136 147.94c-.465-.887-.892-1.8-1.335-2.705a211.632 211.632 0 0 1-6.15-14.506c-5.952-16.136-9.243-31.688-10.302-37.202-1.537-8.78-2.546-18.105-2.755-27.88 0 0-8.19 56.265 32.538 103.339 0 0-5.606-7.797-12.163-21.309.106.17.167.263.167.263M182.6 18.363s-32.336-6.895-14.314 81.766c0 0 23.326 100.751 65.458 75.039 0 0-29.923 23.856-56.105-39.919-26.182-63.788-20.306-122.392 4.961-116.886" fill="#F8941E"/><path d="M210.053 85.428l-2.195-.062-41.795 4.74.113.972 41.149-4.656c.395-.488.856-.804 1.39-.965.428-.126.891.754 1.367.859l-.03-.888" fill="#F8941E"/><path d="M182.277 141.225l33.945-24.53c-2.969-1.088-6.498-6.57-8.643-13.875-1.926-6.564-2.165-12.902-.606-15.772.142-.252.296-.48.458-.666l-39.624 4.43h-1.28c2.738 15.673 7.58 32.976 15.612 50.467l.138-.054" fill="#F8941E"/><path d="M207.808 87.51c-1.453 2.65-1.189 8.704.685 15.053 2.367 8.047 6.108 13.074 8.536 13.382a2.07 2.07 0 0 0 .666-.058c.48-.14.898-.527 1.24-1.14 1.445-2.659 1.172-8.709-.7-15.052-1.854-6.345-4.895-11.58-7.544-13.037-.528-.287-1.01-.411-1.447-.348-.066.019-.139.03-.208.05-.473.144-.891.524-1.228 1.15" fill="#F8941E"/><path d="M210.653 86.359s-1.778-.246-4.902.158l.718-1.007s2.714-.738 4.665.327l-.481.522M211.732 113.267l4.951 4.24 1.71-.869s-5.04-2.537-6.661-3.37" fill="#F8941E"/><path d="M206.973 87.048c-1.559 2.87-1.32 9.208.606 15.772 2.145 7.306 5.674 12.787 8.643 13.875l.805-.585.002-.165c-2.428-.308-6.169-5.335-8.536-13.382-1.874-6.35-2.138-12.403-.685-15.054.337-.625.755-1.005 1.228-1.15.07-.02.142-.03.208-.05l-.017-.135-1.796.208a4.097 4.097 0 0 0-.458.666" fill="#F8941E"/><path d="M182.364 142.237l35.22-25.356-.012-.01c-.434.058-.896-.008-1.363-.182l-34.397 24.757.552.791M205.705 87.692l-38.86 4.05 1.974 10.874 34.675-3.408s4.588 11.185 8.218 15.436c0 0-7.736-13.316-6.007-26.952" fill="#F8941E"/><path d="M229 78.047c.149.413.306.828.46 1.24.417 1.16.828 2.324 1.233 3.489.154.448.314.902.469 1.35.391 1.148.77 2.303 1.152 3.462.15.468.304.938.451 1.407.367 1.138.715 2.275 1.067 3.415l.454 1.508c.33 1.118.653 2.235.968 3.358.143.522.293 1.044.439 1.56.3 1.107.593 2.209.886 3.314.14.54.277 1.078.41 1.621.278 1.082.546 2.167.806 3.25.134.558.263 1.113.394 1.671.245 1.06.48 2.12.711 3.185.127.567.245 1.133.366 1.695.218 1.044.43 2.083.635 3.12.112.58.22 1.16.326 1.74a170.1 170.1 0 0 1 .549 3.028c.101.59.195 1.179.297 1.761.159.988.315 1.97.463 2.948.088.594.167 1.181.25 1.77.14.966.269 1.92.389 2.871.073.582.134 1.16.2 1.74.113.943.215 1.882.305 2.81.056.573.105 1.137.157 1.711.077.908.156 1.825.22 2.726.041.564.064 1.115.099 1.67.052.89.104 1.781.142 2.65.02.543.028 1.074.043 1.614.026.867.052 1.723.055 2.565.01.523-.004 1.022-.006 1.535-.009.839-.011 1.686-.034 2.508-.018.475-.047.928-.065 1.392-.037.834-.07 1.674-.128 2.478-.032.415-.077.812-.11 1.223-.07.827-.14 1.661-.233 2.467-.04.326-.093.636-.136.955-.108.859-.22 1.715-.36 2.54-.03.17-.067.325-.094.49-.37 2.047-.819 3.985-1.361 5.785-.187.66-.429 1.267-.65 1.892-.115.308-.213.647-.332.946-2.397 6.04-5.514 10.62-9.291 13.77-.168.144-.328.312-.5.455-.274.21-.57.374-.845.578-.547.384-1.083.79-1.652 1.12-.09.054-.192.089-.288.147-.777.435-1.565.837-2.387 1.17-.912.38-1.86.689-2.835.937-17.248 4.348-37.974-12.886-38.171-13.057l-.047-.042-.052-.023-.027-.016c-1.122-.493-2.206-.94-3.292-1.402-24.463-10.37-40.889-12.678-50.466-12.73-5.324-.013-9.13.618-11.668 1.285-2.379.615-3.669 1.27-4 1.457l-.03.01v.008h-.004c-.06.025-.119.056-.18.08-1.7.645-3.231 1.368-4.552 2.197a18.438 18.438 0 0 0-2.221 1.662c-2.558 2.196-4.12 4.845-4.583 7.966-1.195 8.063 5.106 16.547 8.735 19.31 5.113 3.896 4.129 9.416 3.97 10.18.016-.039.048-.072.063-.091l-.082.173s.008-.05.019-.083c-.025.034-.07.126-.102.18l-.004-.001c-.008.017-.017.034-.03.047l.005.005c-.32.56-.924 1.91-.635 3.972.098.707.342 1.415.615 2.124l-.004.009c.007.02.019.044.026.064.131.329.296.66.47.994.302.615.649 1.233 1.1 1.855l.008.005c1.345 1.88 3.26 3.79 5.792 5.72 3.16 2.381 4.877 5.173 5.127 8.284.032.345-.04.664-.047 1.001-.005.009-.01.025-.014.034-.039 1.46-.308 2.864-.78 4.109l-.013.026.376.216-.409-.154c-1.094 2.775-2.817 4.83-3.257 5.315l-4.307.397-18.34 1.663c-3.78.06-6.72-1.075-8.751-3.341-4.157-4.666-3.127-12.734-3.117-12.821.154-.722 1.475-7.459-.933-27.559-.824-6.74-3.333-11.653-7.496-14.594-3.892-2.766-8.317-3.157-11.173-3.05-1.713.068-2.864.315-2.997.339l-15.347 4.54-2.262.67a43.09 43.09 0 0 1-4.754-3.393c-.142-.114-.267-.235-.408-.35a46.72 46.72 0 0 1-1.62-1.425c-.332-.308-.643-.63-.958-.943-12.149-12.047-14.69-29.063-14.844-40.369a103.9 103.9 0 0 1-.001-1.965c.003-.255.008-.493.013-.742.006-.384.015-.768.028-1.132l.029-.813c.016-.311.03-.607.042-.902.014-.255.032-.52.045-.767.013-.266.037-.514.053-.763.04-.562.084-1.086.128-1.56.007-.074.014-.16.022-.232a54.595 54.595 0 0 1 .113-1.042c.025-.223.048-.43.073-.621l.022-.2c.052-.4.1-.714.127-.909 2.755-1.086 28.424-11.335 54.785-25.084 14.015-7.3 25.706-14.229 35.051-20.76 15.58-10.884 24.634-20.666 27.021-29.234 8.683-31.091 26.294-40.654 27.554-41.299-.003.001-.007.002-.01 0h.002l.011-.001-.003.001a23.32 23.32 0 0 1 4.086-.088c.465.03.929.142 1.392.2.907.113 1.815.218 2.729.434.595.144 1.2.372 1.8.561.78.24 1.554.464 2.335.78.677.276 1.356.634 2.033.965.703.342 1.405.671 2.106 1.073.728.414 1.452.902 2.18 1.382.654.432 1.311.853 1.969 1.339.754.554 1.499 1.177 2.254 1.796a57.548 57.548 0 0 1 1.885 1.615 70.539 70.539 0 0 1 2.264 2.174c.628.63 1.257 1.264 1.885 1.938.733.79 1.462 1.619 2.187 2.47.927 1.087 1.859 2.169 2.774 3.358.077.097.152.18.226.278 3.303 4.295 6.472 9.14 9.468 14.391.04.063.08.126.11.191a148.36 148.36 0 0 1 2.03 3.683c.074.138.154.278.232.418a263.252 263.252 0 0 1 1.866 3.616c.107.214.22.426.327.643a197.01 197.01 0 0 1 1.734 3.578c.126.273.254.538.383.81.55 1.173 1.087 2.365 1.62 3.562.14.315.283.622.425.94.516 1.181 1.023 2.37 1.524 3.57.146.342.29.685.433 1.028.49 1.176.963 2.372 1.435 3.565.148.377.299.75.447 1.129.455 1.173.897 2.35 1.337 3.536zM118.984 204.98c5.122 1.877 8.668 4.714 10.625 8.455.18.49 1.769 5.528-2.273 12.752-.92-1.587-2.245-3.057-4.011-4.4-6.17-4.685-7.654-8.392-7.748-10.787l3.407-6.02zm-1.774-18.004l1.48 1.387c.387.361.7.755.98 1.156.384 1.19.668 4.567-4.496 10.621-.677-1.216-1.65-2.426-3.07-3.503-3.377-2.565-9.496-10.85-8.37-18.406.462-3.164 2.092-5.808 4.884-7.957-2.7 6.26 3.263 11.779 8.592 16.702zm-98.184-10.532c-5.796-9.297-7.765-18.952-5.215-25.826 1.787-4.823 5.7-8.241 11.626-10.154.002 3.393.21 7.314.839 11.48 1.313 8.806 4.77 20.057 13.217 29.07.273.283.503.593.786.877-1.953.901-14.163 5.868-21.253-5.447zM215.567 25.75C197.842 2.69 180.993-.613 170 .672l-2.49.421-1.567.798c-3.946 1.994-24.157 13.754-34.04 49.157-4.908 17.564-66.782 50.107-109.508 66.832l-6.4 2.444-1.192 6.881c-.07.41-.34 2.065-.572 4.66-5.768 3.446-9.938 8.366-12.169 14.414a27.21 27.21 0 0 0-.913 2.981c-2.525 10.102.119 22.432 7.25 33.827 7.663 12.26 19.94 14.569 30.079 12.484 1.383 1.053 2.69 1.955 3.9 2.686l4.978 2.88 4.75-1.379s14.578-4.304 17.31-5.106c1.044-.123 3.029-.09 4.149.704 1.085.767 1.908 2.904 2.269 5.861 1.953 16.194 1.205 22.727 1.1 23.53l-.148.846c-.314 2.307-1.49 14.204 6.166 22.806 4.445 5.014 10.977 7.692 18.525 7.549l23.59-2.117 1.411-.144 4.003-1.989 1.143-.437 1.061-1.118c.795-.825 3.285-3.609 5.234-7.76l.002.006c.97-1.66 3.382-6.135 4.838-11.974 1.746-7.043 1.557-13.595-.576-19.473-1.769-4.863-4.74-8.956-8.866-12.212 1.215-7.812-.9-14.671-6.094-19.543l-1.512-1.405c-.562-.515-1.057-.991-1.511-1.423 7.102-.963 23.577-.75 53.114 12.029 6.924 5.399 27.565 19.558 47.828 14.438a33.943 33.943 0 0 0 3.94-1.24l.004-.002c9.987-3.835 17.544-12.065 22.453-24.456a53.78 53.78 0 0 0 2.075-6.54c4.112-16.508 2.676-40.664-4.032-68.017-7.354-29.948-20.07-58.667-34.016-76.821z" fill="#F8941E"/></svg>