<svg width="60" height="61" viewBox="0 0 60 61" fill="none" xmlns="http://www.w3.org/2000/svg">
    <g clip-path="url(#clip0_39_2147)">
        <path fill-rule="evenodd" clip-rule="evenodd"
            d="M59.9698 16.396C59.7088 22.1719 55.6235 30.0674 47.7423 40.0861C39.5859 50.5623 32.6749 55.7969 27.0268 55.7969C23.5343 55.7969 20.5744 52.6121 18.1578 46.2217C16.5385 40.3585 14.9298 34.4954 13.3141 28.6497C11.5149 22.2557 9.58868 19.0605 7.52842 19.0605C7.08038 19.0605 5.51754 19.9928 2.82227 21.8611L0 18.2608C2.95633 15.6941 5.87034 13.117 8.74554 10.5469C12.6826 7.17353 15.6425 5.40303 17.6181 5.21796C22.2748 4.77097 25.1465 7.9243 26.2295 14.6675C27.3831 21.9484 28.1945 26.4741 28.6426 28.248C29.9902 34.2823 31.4648 37.2925 33.0806 37.2925C34.333 37.2925 36.2169 35.3439 38.7287 31.4433C41.2405 27.5357 42.5776 24.5674 42.761 22.5211C43.1208 19.1478 41.7767 17.4716 38.7287 17.4716C37.2928 17.4716 35.8112 17.7719 34.2907 18.4005C37.254 8.90559 42.8986 4.28909 51.2384 4.55797C57.4157 4.72908 60.3332 8.6821 59.9698 16.396Z"
            fill="#00B2EA" />
    </g>
    <defs>
        <clipPath id="clip0_39_2147">
            <rect width="60" height="60" fill="white" transform="translate(0 0.171875)" />
        </clipPath>
    </defs>
</svg>