<?xml version="1.0" encoding="utf-8"?><!-- Uploaded to: SVG Repo, www.svgrepo.com, Generator: SVG Repo
Mixer Tools -->
<svg width="800px" height="800px" viewBox="0 0 24 24" fill="none" xmlns="http://www.w3.org/2000/svg">
  <path
    d="M11.8088 7.05902C11.3508 7.06746 10.9637 7.45766 10.9718 7.90277C10.9802 8.36421 11.3599 8.7252 11.8309 8.7196C12.3031 8.71385 12.6613 8.3491 12.6568 7.87785C12.6529 7.41534 12.2749 7.05051 11.8088 7.05902ZM7.35079 7.91557C7.36789 7.47215 6.98366 7.07275 6.52729 7.05933C6.06002 7.04561 5.67572 7.40269 5.66207 7.8632C5.64827 8.32985 6.0052 8.70373 6.47584 8.71569C6.94241 8.72757 7.33354 8.36996 7.35079 7.91557ZM15.8953 8.67099C14.0388 8.76798 12.4244 9.33078 11.1137 10.6023C9.7894 11.887 9.18488 13.4611 9.35012 15.4126C8.62446 15.3226 7.96351 15.2237 7.2988 15.1678C7.06924 15.1484 6.7968 15.1759 6.60235 15.2856C5.95689 15.6498 5.33812 16.061 4.60471 16.5195C4.73928 15.9108 4.82638 15.3778 4.98058 14.8652C5.09398 14.4884 5.04146 14.2788 4.69434 14.0333C2.46568 12.4599 1.52624 10.1051 2.22929 7.68071C2.87973 5.43794 4.47705 4.07778 6.64744 3.36875C9.60982 2.4011 12.939 3.38815 14.7404 5.74012C15.391 6.58969 15.7899 7.54323 15.8953 8.67099Z"
    fill="#00c70a" />
  <path
    d="M17.6884 12.3843C17.3253 12.3818 17.0167 12.6791 17.0019 13.046C16.9861 13.4383 17.2912 13.7605 17.6794 13.7615C18.055 13.7627 18.3517 13.4787 18.3655 13.105C18.38 12.7117 18.0749 12.387 17.6884 12.3843ZM13.3745 13.7662C13.7489 13.7666 14.057 13.4737 14.0711 13.1041C14.0861 12.7127 13.7713 12.3845 13.3795 12.3828C12.9915 12.381 12.6664 12.714 12.6799 13.0994C12.6927 13.4678 13.003 13.7658 13.3745 13.7662ZM20.0664 20.2452C19.4785 19.9835 18.9392 19.5907 18.3652 19.5308C17.7932 19.471 17.1919 19.801 16.5936 19.8622C14.771 20.0486 13.138 19.5407 11.7916 18.2956C9.23081 15.927 9.59671 12.2954 12.5594 10.3543C15.1925 8.62927 19.0542 9.20435 20.9107 11.598C22.5307 13.6866 22.3403 16.4592 20.3626 18.2139C19.7903 18.7217 19.5843 19.1397 19.9515 19.809C20.0193 19.9326 20.027 20.0891 20.0664 20.2452Z"
    fill="#00c70a" />
</svg>