<svg version="1.2" xmlns="http://www.w3.org/2000/svg" viewBox="0 0 1525 1237" width="1525" height="1237">
	<title>Sina_Weibo-svg</title>
	<style>
		.s0 { fill: #ffffff } 
		.s1 { fill: #e6162d } 
		.s2 { fill: #ff9933 } 
		.s3 { fill: #000000 } 
	</style>
	<path id="Layer" class="s0" d="m628.3 1171.7c-285.5 0-516.2-143.7-516.2-321.4 0-177.8 230.7-321.5 516.2-321.5 285.5 0 516.2 143.7 516.2 321.5 0 177.7-230.7 321.4-516.2 321.4z"/>
	<path id="Layer" fill-rule="evenodd" class="s1" d="m1329.8 804c0 191.2-275.8 432.1-690.4 432.1-316.1 0-639.4-153.4-639.4-405.4 0-131.9 83.5-284.4 227.2-428.1 192-192.1 416-279.6 500.2-195.2 37 37.2 40.6 101.4 16.8 178.2-12.6 38.5 36.2 17.2 36.2 17.2 155.2-65 290.7-68.8 340.1 1.9 26.5 37.9 24 90.7-0.4 151.9-11.2 28.2 3.6 32.4 25 38.9 87.5 27.2 184.9 92.8 184.7 208.5zm-262.3-3.6c-16.2-165.5-234.1-279.8-486.5-254.7-252.2 25-443.6 179.4-427.2 345.2 16.4 165.5 234.3 279.8 486.7 254.7 252.2-24.8 443.6-179.4 427-345.2z"/>
	<path id="Layer" class="s2" d="m1504.8 528.6v0.2c-9.9 30.5-42.7 47.4-73.4 37.5-30.7-9.9-47.5-42.7-37.7-73.4 30.5-94.3 11.2-201.8-59.9-280.7-71.1-78.9-176.1-109-273-88.3-31.6 6.7-62.5-13.3-69.2-44.9-6.8-31.3 13.2-62.4 44.8-69.2 136.3-29 283.9 13.3 384.1 124.4 100.1 110.8 127.2 262.1 84.3 394.4z"/>
	<path id="Layer" class="s2" d="m1307.7 465.3c-8.6 26.5-36.8 40.8-63.3 32.4-26.5-8.6-40.8-37-32.4-63.3 10.3-31.6 3.8-67.6-20-94.1-23.7-26.3-59.1-36.4-91.5-29.4-26.9 5.9-53.6-11.4-59.5-38.5-5.7-27.2 11.6-54.1 38.7-59.8 66.3-14.3 138.2 6.3 187 60.4 48.8 54.1 61.8 127.7 41 192.3z"/>
	<path id="Layer" fill-rule="evenodd" class="s3" d="m802.5 936.5c-51.6 116.4-199.7 178.6-325.4 138-121.2-39.1-172.7-159-119.5-266.9 52.2-105.8 187.8-165.8 307.9-134.5 124.3 32.2 187.9 149.4 137 263.4zm-256.9-89c-39.1-16.4-89.6 0.5-113.8 38.3-24.4 38.1-12.8 83.3 25.9 101 39.3 17.9 91.7 0.9 116.1-38.1 24-39.3 11.4-84.1-28.2-101.2zm96.6-39.7c-15-5.9-33.7 1.2-42.5 16-8.6 14.7-4 31.7 11.1 37.8 15.2 6.4 34.7-0.8 43.6-15.9 8.4-15.4 2.9-32.4-12.2-37.9z"/>
</svg>