<svg viewBox="0 0 300 300" fill="none" xmlns="http://www.w3.org/2000/svg">
  <path
    d="M30.8746 63.3242H269.004C284.075 63.3242 296.274 75.4681 296.274 90.4707V180.956C296.274 195.959 284.075 208.103 269.004 208.103H183.608L195.329 236.677L143.78 208.103H30.9935C15.9237 208.103 3.72451 195.959 3.72451 180.956V90.4707C3.60452 75.5875 15.8025 63.3242 30.8746 63.3242Z"
    fill="#9B5C8F" />
  <path
    d="M20.3827 88.0675C22.0477 85.8173 24.5447 84.6342 27.8747 84.3976C33.9406 83.9232 37.3895 86.7638 38.2214 92.9205C41.908 117.663 45.9512 138.618 50.232 155.783L76.2759 106.417C78.6552 101.918 81.6287 99.5504 85.1964 99.3138C90.4292 98.9588 93.6393 102.273 94.9478 109.257C97.9213 125.002 101.727 138.38 106.245 149.745C109.338 119.676 114.57 98.0112 121.944 84.6342C123.726 81.3193 126.343 79.6618 129.792 79.424C132.528 79.1885 135.025 80.0167 137.284 81.7925C139.544 83.5683 140.733 85.8173 140.971 88.5407C141.09 90.6714 140.733 92.4472 139.782 94.223C135.144 102.747 131.337 117.072 128.246 136.959C125.274 156.256 124.203 171.292 124.916 182.065C125.155 185.023 124.678 187.628 123.49 189.878C122.061 192.482 119.922 193.903 117.186 194.139C114.094 194.376 110.884 192.956 107.791 189.759C96.7316 178.512 87.9311 161.702 81.5098 139.328C73.7789 154.48 68.0708 165.845 64.3842 173.421C57.3675 186.799 51.4216 193.666 46.4266 194.021C43.2154 194.258 40.4807 191.534 38.1026 185.853C32.0378 170.344 25.4966 140.392 18.4811 95.9988C18.0045 92.9205 18.7176 90.1971 20.3827 88.0675ZM275.949 106.654C271.668 99.1954 265.364 94.6974 256.922 92.9205C254.661 92.4472 252.522 92.2106 250.499 92.2106C239.083 92.2106 229.807 98.1295 222.553 109.968C216.368 120.031 213.277 131.158 213.277 143.352C213.277 152.468 215.179 160.281 218.985 166.793C223.266 174.251 229.569 178.749 238.012 180.524C240.271 180.999 242.412 181.235 244.434 181.235C255.97 181.235 265.246 175.317 272.381 163.478C278.565 153.296 281.657 142.168 281.657 129.975C281.776 120.742 279.754 113.046 275.949 106.654ZM260.965 139.446C259.3 147.259 256.326 153.059 251.925 156.966C248.478 160.044 245.266 161.346 242.294 160.754C239.439 160.163 237.06 157.677 235.277 153.059C233.849 149.39 233.137 145.72 233.137 142.286C233.137 139.328 233.375 136.368 233.969 133.645C235.04 128.791 237.061 124.055 240.271 119.557C244.197 113.756 248.359 111.389 252.64 112.218C255.494 112.809 257.874 115.296 259.656 119.912C261.084 123.582 261.797 127.252 261.797 130.685C261.797 133.764 261.559 136.724 260.965 139.446ZM201.503 106.654C197.222 99.1954 190.799 94.6974 182.475 92.9205C180.216 92.4472 178.076 92.2106 176.053 92.2106C164.637 92.2106 155.361 98.1295 148.106 109.968C141.923 120.031 138.83 131.158 138.83 143.352C138.83 152.468 140.733 160.281 144.539 166.793C148.819 174.251 155.123 178.749 163.566 180.524C165.826 180.999 167.966 181.235 169.988 181.235C181.523 181.235 190.799 175.317 197.935 163.478C204.12 153.296 207.211 142.168 207.211 129.975C207.211 120.742 205.308 113.046 201.503 106.654ZM186.4 139.446C184.735 147.259 181.761 153.059 177.361 156.966C173.913 160.044 170.701 161.346 167.728 160.754C164.874 160.163 162.496 157.677 160.711 153.059C159.285 149.39 158.572 145.72 158.572 142.286C158.572 139.328 158.81 136.368 159.404 133.645C160.475 128.791 162.496 124.055 165.707 119.557C169.632 113.756 173.794 111.389 178.075 112.218C180.929 112.809 183.308 115.296 185.091 119.912C186.52 123.582 187.232 127.252 187.232 130.685C187.352 133.764 186.994 136.724 186.4 139.446Z"
    fill="white" />
</svg>