<svg xmlns="http://www.w3.org/2000/svg" width="2500" height="989" viewBox="0.157 0 1023.693 405.056"><path d="M810.714 54.414c-2.394 0-4.408.84-5.42 2.483-1.047 1.698-.885 3.884.227 6.096l26.868 46.511c.045.091.045.145 0 .226l-42.222 74.508c-1.102 2.195-1.048 4.398 0 6.097 1.012 1.634 2.8 2.71 5.193 2.71h39.737c5.942 0 8.806-4.01 10.838-7.678 0 0 41.291-73.027 42.9-75.863-.164-.262-27.32-47.64-27.32-47.64-1.979-3.522-4.968-7.45-11.064-7.45h-39.737zm-174.982 86.927c-61.666 0-95.507 35.98-95.507 101.151v68.638c0 62.244 29.632 93.926 88.281 93.926 47.424 0 85.825-18.54 88.507-19.869V261.91c0-3.829-2.718-6.548-6.547-6.548h-78.573c-3.829 0-6.548 2.72-6.548 6.548v31.61c0 3.828 2.72 6.547 6.548 6.547h36.577c.153 0 .226.072.226.226v53.285c0 .117-.126.19-.226.226-.172.072-17.232 6.548-38.384 6.548-27.942 0-41.544-17.34-41.544-52.833v-65.025c0-18.45 3.631-32.017 11.063-41.319 8.138-10.178 20.438-15.127 37.932-15.127h7.677c25.396 0 45.012 5.672 57.575 9.708 1.95.624 3.738.298 4.967-.677 1.255-.993 2.032-2.682 2.032-4.74v-30.256c0-3.423-1.68-5.346-6.773-7.902-6.494-3.25-24.98-10.837-56.897-10.837h-10.386zM8.504 144.727c-1.825 0-3.243.704-4.064 2.032-.895 1.436-.885 3.423 0 5.193l64.574 117.633c.045.081.045.37 0 .451L.827 393.54c-.895 1.78-.895 3.757 0 5.193.812 1.327 2.24 2.032 4.063 2.032h44.028c5.04 0 6.837-2.827 8.806-6.773l45.156-83.089c.045-.09.127-.226.226-.226.108 0 .181.135.227.226 0 0 45.373 83.08 45.382 83.09 1.96 3.937 3.541 6.772 8.58 6.772h44.254c1.824 0 3.251-.705 4.063-2.032.452-.723.678-1.608.678-2.483 0-.886-.234-1.815-.678-2.71-.009-.019-68.412-123.504-68.412-123.504-.027-.045 0-.18 0-.226s-.027-.189 0-.226L202 151.951c.442-.894.678-1.825.678-2.709 0-.876-.235-1.77-.678-2.484-.82-1.328-2.249-2.032-4.063-2.032h-44.254c-5.04 0-6.837 2.836-8.806 6.773l-41.544 77.218c-.046.082-.118.227-.227.227-.099 0-.18-.145-.226-.227 0 0-41.535-77.218-41.544-77.218-1.644-3.306-3.378-6.773-8.806-6.773H8.504zm229.848 0c-3.82 0-6.548 2.728-6.548 6.548v242.943c0 3.82 2.728 6.548 6.548 6.548h34.996c3.82 0 6.548-2.728 6.548-6.548V151.275c0-3.82-2.728-6.548-6.548-6.548h-34.996zm93.475 0c-3.82 0-6.773 2.728-6.773 6.548v242.943c0 3.82 2.953 6.548 6.773 6.548h34.996c3.82 0 6.548-2.728 6.548-6.548V247.684c0-.126.108-.198.226-.226.117-.036.172.117.226.226 0 0 75.863 146.3 75.863 146.31 1.562 3.123 3.992 6.772 8.807 6.772h36.576c3.82 0 6.548-2.728 6.548-6.548V151.275c0-3.82-2.728-6.548-6.548-6.548h-34.996c-3.82 0-6.548 2.728-6.548 6.548v146.308c0 .126-.108.198-.226.226-.117.036-.389.108-.452 0 0 0-75.863-146.299-75.863-146.308-1.66-3.296-3.378-6.773-8.806-6.773h-36.35z" fill="#005a5f"/><path d="M977.656 0c-5.934 0-8.508 3.74-10.639 7.568 0 0-85.608 151.817-88.426 156.802.145.271 56.464 103.59 56.464 103.59 1.97 3.521 5.013 7.567 11.1 7.567h39.692c2.394 0 4.264-.903 5.274-2.538 1.057-1.697 1.03-3.938-.08-6.14l-56.022-102.354a.232.232 0 0 1 0-.262l87.983-155.565c1.103-2.194 1.13-4.435.081-6.132-1.012-1.635-2.89-2.538-5.283-2.538h-40.144z" fill="#d4d600"/></svg>