<svg width="674" height="674" viewBox="0 0 674 674" fill="none" xmlns="http://www.w3.org/2000/svg">
  <path
    d="M153.342 133.859C147.497 133.859 142.58 135.91 140.109 139.922C137.552 144.068 137.948 149.405 140.663 154.806L206.265 268.369C206.375 268.591 206.375 268.723 206.265 268.921L103.174 450.843C100.483 456.202 100.615 461.581 103.174 465.729C105.645 469.719 110.011 472.346 115.853 472.346H212.877C227.385 472.346 234.378 462.555 239.339 453.599C239.339 453.599 340.157 275.294 344.085 268.369C343.685 267.729 277.38 152.05 277.38 152.05C272.548 143.45 265.25 133.859 250.366 133.859H153.342Z"
    fill="#005A5F" />
  <path
    d="M560.955 1C546.466 1 540.182 10.1317 534.979 19.4783C534.979 19.4783 325.955 390.16 319.074 402.332C319.428 402.994 456.939 655.261 456.939 655.261C461.749 663.858 469.179 673.737 484.041 673.737H580.954C586.8 673.737 591.366 671.532 593.832 667.54C596.412 663.397 596.347 657.925 593.636 652.549L456.851 402.637C456.786 402.543 456.752 402.431 456.752 402.317C456.752 402.203 456.786 402.092 456.851 401.997L671.674 22.1641C674.367 16.8072 674.433 11.3355 671.871 7.19199C669.4 3.19992 664.815 0.995117 658.972 0.995117H560.955V1Z"
    fill="#D4D600" />
</svg>