<svg fill="#925FFF" width="800px" height="800px" viewBox="0 0 32 32" version="1.1"
  xmlns="http://www.w3.org/2000/svg">
  <title>yahoo</title>
  <path
    d="M20.524 17.087c-0.042-0.002-0.091-0.003-0.14-0.003-1.894 0-3.436 1.505-3.496 3.384l-0 0.006c0.052 1.814 1.535 3.264 3.357 3.264 0.046 0 0.091-0.001 0.136-0.003l-0.006 0c0.051 0.003 0.11 0.004 0.17 0.004 1.884 0 3.42-1.492 3.491-3.359l0-0.006c-0.031-1.824-1.517-3.291-3.346-3.291-0.058 0-0.116 0.002-0.174 0.004l0.008-0zM1.004 9.389l6.436 14.446-2.312 5.211h5.661l8.573-19.657h-5.623l-3.499 8.41-3.462-8.41h-5.773zM24.573 2.954l-5.736 12.884h6.411l5.748-12.884h-6.423z"></path>
</svg>