<svg version="1.2" xmlns="http://www.w3.org/2000/svg" viewBox="0 0 1571 1190" width="1571" height="1190">
	<title>ZEN_BIG copy-svg</title>
	<style>
		.s0 { fill: #03363d } 
	</style>
	<path id="Layer" fill-rule="evenodd" class="s0" d="m725.9 314.2v875.4h-725.3zm-725.2-314.1c0 96 38.2 188.3 106.3 256.2 67.9 68.1 160.2 106.3 256.4 106.3 96 0 188.3-38.2 256.4-106.3 67.9-67.9 106.1-160.2 106.1-256.2zm1570 1189.6c0-96.1-38.2-188.3-106.2-256.4-68.1-68-160.2-106.2-256.4-106.2-96.2 0-188.4 38.2-256.4 106.2-68.1 68.1-106.3 160.3-106.3 256.4zm-725.2-314.3l725.4-875.3h-725.4z"/>
</svg>