<svg width="2500" height="2471" viewBox="0 0 256 253" xmlns="http://www.w3.org/2000/svg" preserveAspectRatio="xMidYMid"><g fill="#719C40"><path d="M225.851 150.373c-11.203 6.29-23.396 9.281-35.39 9.281-7.818 0-15.556-1.297-22.091-3.9-11.948 10.776-24.805 18.324-31.277 21.83 9.376 14.874 24.282 26.307 42.702 30.896a70.171 70.171 0 0 0 17.027 2.089c12.596 0 24.717-3.45 35.019-8.996a71.809 71.809 0 0 0 2.286-18.056c0-11.25-2.69-22.62-8.276-33.144M211.253 61.67c-2.12 14.148-8.244 26.728-16.82 36.088.45 2.484.759 5.206.759 8.054-.04 16.545-8.577 30.937-19.243 42.52 3.055.38 6.132.593 9.186.593 15.208 0 30.533-4.873 43.501-14.977 14.978-11.75 23.99-28.326 26.593-45.226-10.088-13.268-24.908-22.787-41.42-26.94-.855-.183-1.638-.523-2.508-.673l-.048.562M199.994 49.573c0-19.052-7.5-36.317-19.242-48.818h-1.02c-16.853 0-31.617 5.99-45.005 18.103 12.794 13.601 17.391 30.85 17.391 48.09 0 1.393-.047 2.77-.087 4.106a35.446 35.446 0 0 1 8.664-1.076h.76c11.005.222 22.098 5.69 28.46 15.99 6.377-10.649 10.08-23.07 10.08-36.395M72.847 2.013c-1.053 0-2.057 0-2.43-.205C58.907 14.45 51.99 31.154 51.99 49.352c0 .26 0 .482-.094.625.799 0 1.606-.024 2.429-.024 19.392 0 37.139 7.722 49.711 20.152 10.555.744 21.355 6.346 27.044 17.462 3.054-5.974 7.588-10.341 12.374-12.572 0-.792.032-1.622.032-2.437 0-19.48-8.062-38.912-23.744-52.798C106.26 7.813 89.518 2.013 72.847 2.013M92.62 71.102c-10.595-6.18-22.764-9.645-35.542-9.645-4.099 0-8.276.356-12.406 1.108C25.896 65.935 10.199 76.379 0 90.115c2.77 16.995 11.75 32.993 26.252 44.3 10.595-14.21 25.438-23.389 40.78-26.332 0-.72-.032-1.527-.032-2.286-.032-19.25 11.931-31.174 25.62-34.695M30.493 150.54c-5.61 10.554-8.284 21.845-8.284 33.009 0 6.678.942 13.268 2.398 19.14a70.465 70.465 0 0 0 33.911 8.663c5.673 0 11.425-.68 17.225-2.097-1.78-6.416-2.643-12.817-2.643-19.17 0-15.113 4.795-29.616 13.292-41.626-8.189-8.838-15.136-19.298-17.992-31.127-15.745 5.832-29.457 17.233-37.907 33.207M128.485 252.637c15.848-6.852 29.235-19.432 36.664-36.285-18.07-7.484-31.419-21.536-38.175-37.756-5.776-2.983-20.683-11.33-34.268-23.824a70.739 70.739 0 0 0-7.864 32.4c0 9.598 1.906 19.361 6.147 28.698 7.786 17.446 21.759 30.13 37.496 36.767"/></g></svg>